<svg width="687" height="524" viewBox="0 0 687 524" fill="none" xmlns="http://www.w3.org/2000/svg">
<path d="M149.075 193.574C152.737 193.574 155.705 190.661 155.705 187.068C155.705 183.475 152.737 180.562 149.075 180.562C145.413 180.562 142.444 183.475 142.444 187.068C142.444 190.661 145.413 193.574 149.075 193.574Z" fill="#5222D0"/>
<path d="M425.464 33.6671C427.602 33.6671 429.336 31.9662 429.336 29.8681C429.336 27.77 427.602 26.0691 425.464 26.0691C423.326 26.0691 421.593 27.77 421.593 29.8681C421.593 31.9662 423.326 33.6671 425.464 33.6671Z" fill="#5222D0"/>
<path d="M632.834 157.506C636.767 157.506 639.954 154.378 639.954 150.519C639.954 146.66 636.767 143.532 632.834 143.532C628.902 143.532 625.714 146.66 625.714 150.519C625.714 154.378 628.902 157.506 632.834 157.506Z" fill="#5222D0"/>
<path d="M182.895 210.517C185.254 210.517 187.167 208.64 187.167 206.325C187.167 204.01 185.254 202.133 182.895 202.133C180.535 202.133 178.623 204.01 178.623 206.325C178.623 208.64 180.535 210.517 182.895 210.517Z" fill="#FFD600"/>
<path d="M404.238 46.8981C406.229 46.8981 407.842 45.3145 407.842 43.3611C407.842 41.4077 406.229 39.8241 404.238 39.8241C402.247 39.8241 400.633 41.4077 400.633 43.3611C400.633 45.3145 402.247 46.8981 404.238 46.8981Z" fill="#FFD600"/>
<path d="M536.581 138.118C539.211 138.118 541.342 136.026 541.342 133.445C541.342 130.865 539.211 128.773 536.581 128.773C533.951 128.773 531.819 130.865 531.819 133.445C531.819 136.026 533.951 138.118 536.581 138.118Z" fill="#FFD600"/>
<path d="M309.542 167.68C311.336 167.68 312.79 166.253 312.79 164.492C312.79 162.732 311.336 161.305 309.542 161.305C307.748 161.305 306.293 162.732 306.293 164.492C306.293 166.253 307.748 167.68 309.542 167.68Z" fill="#FFD600"/>
<path d="M140.397 50.1294C144.379 50.1294 147.606 46.9623 147.606 43.0554C147.606 39.1486 144.379 35.9814 140.397 35.9814C136.416 35.9814 133.188 39.1486 133.188 43.0554C133.188 46.9623 136.416 50.1294 140.397 50.1294Z" fill="#FFD600"/>
<path d="M428.402 70.2598C428.713 67.3341 432.407 67.9018 434.142 68.7751C435.477 69.4738 436.634 70.4345 437.969 71.0895C440.061 72.1811 442.286 72.5741 444.422 71.3515C447.003 69.8668 448.916 67.7708 452.031 67.1595C455.146 66.5481 457.371 68.9061 460.352 68.6005C462.533 68.3385 464.357 66.9411 466.226 65.9368C467.428 65.2818 468.718 64.6705 470.142 64.7578C471.744 64.8451 473.124 65.7185 474.503 66.4171C476.506 67.4215 478.375 67.9891 480.555 67.2031C482.068 66.6791 483.403 65.9805 485.05 65.9368C487.186 65.8931 489.144 66.6355 490.746 68.0328C491.413 68.6005 492.348 67.6398 491.68 67.1158C489.589 65.3255 486.963 64.4085 484.204 64.7141C482.469 64.8888 481.178 65.8495 479.487 66.1988C477.44 66.6355 475.749 65.5875 474.014 64.7141C471.655 63.5351 469.564 63.0548 467.072 64.0591C464.135 65.2381 461.554 68.0765 458.172 67.0285C456.703 66.5481 455.457 65.8058 453.811 65.7185C452.387 65.6748 450.963 65.9805 449.628 66.5045C446.202 67.8581 443.487 71.8318 439.571 70.3471C436.679 69.2555 434.276 66.3298 430.894 66.6355C428.847 66.8538 427.2 68.1638 426.978 70.2161C426.978 71.0895 428.313 71.0895 428.402 70.2598Z" fill="#E8E8E8"/>
<path d="M445.845 64.2774C447.358 61.8757 449.895 60.3037 452.787 60.1291C455.502 59.9544 457.816 61.4391 460.441 61.9194C462.31 62.2251 463.912 61.7884 465.514 60.9151C468.229 59.4304 470.187 58.4261 473.391 58.9501C475.438 59.2994 477.44 59.9107 479.576 60.0417C481.846 60.1727 483.581 59.4741 485.584 58.5134C490.879 56.0681 495.418 60.0854 500.758 59.9981C501.604 59.9981 501.604 58.6881 500.758 58.6881C495.552 58.7754 490.968 54.8017 485.717 57.0287C484.471 57.5527 483.314 58.2951 481.979 58.6007C480.466 58.9501 478.909 58.7317 477.396 58.4697C475.037 58.0331 472.679 57.2471 470.276 57.5091C468.051 57.7274 466.449 58.9937 464.535 59.9544C461.153 61.7011 458.483 59.6487 455.146 58.9937C451.007 58.2077 446.869 60.1727 444.644 63.6224C444.243 64.3647 445.356 65.0197 445.845 64.2774Z" fill="#E8E8E8"/>
<path d="M224.502 215.015C225.392 210.692 231.355 213.923 233.758 214.491C236.428 215.102 238.787 214.185 241.145 213.006C242.614 212.264 244.082 211.434 245.729 211.128C247.598 210.779 249.378 211.39 251.069 212.045C253.561 212.962 256.142 214.098 258.767 213.05C261.126 212.133 263.484 208.596 266.288 209.251C268.691 209.818 269.937 212.089 272.518 210.473C274.031 209.556 274.921 208.814 276.834 209.294C277.991 209.6 279.104 210.168 280.216 210.604C282.041 211.303 283.865 211.74 285.556 210.604C286.268 210.124 285.601 208.989 284.889 209.469C282.53 211.085 279.549 208.683 277.19 208.028C276.3 207.81 275.366 207.679 274.476 207.853C272.607 208.246 271.45 210.43 269.314 209.338C267.311 208.29 265.843 207.286 263.573 208.334C260.28 209.862 258.678 212.919 254.54 211.871C251.647 211.128 249.111 209.425 245.996 209.775C242.925 210.124 240.567 212.264 237.674 213.093C233.936 214.185 231.133 211.347 227.484 211.565C225.481 211.696 223.612 212.7 223.167 214.709C223.034 215.495 224.324 215.844 224.502 215.015Z" fill="#E8E8E8"/>
<path d="M256.453 205.888C258.545 204.142 261.348 203.705 263.885 204.84C265.487 205.539 266.866 206.456 268.691 206.5C272.473 206.543 278.036 202.439 281.062 206.281C281.329 206.631 281.907 206.456 282.13 206.15C285.2 201.172 291.697 202.744 296.325 204.098C297.171 204.316 297.482 203.094 296.681 202.832C291.386 201.303 284.355 199.95 280.973 205.495C281.329 205.452 281.685 205.408 282.041 205.364C278.525 200.954 272.963 205.321 268.691 205.233C265.976 205.146 263.929 203.006 261.17 202.919C259.034 202.875 257.121 203.661 255.519 205.015C254.851 205.539 255.83 206.456 256.453 205.888Z" fill="#E8E8E8"/>
<path d="M84.3718 254.358C85.0393 252.481 86.8193 251.127 88.9108 251.127C90.7353 251.127 92.1593 252.35 93.4498 253.441C95.0963 254.795 96.8763 256.367 99.1903 255.974C101.905 255.494 103.106 252.699 105.198 251.258C108.224 249.206 112.318 249.424 115.7 250.428C118.503 251.302 121.262 252.917 124.244 251.782C126.958 250.734 128.56 247.939 131.72 247.765C136.837 247.503 141.243 252.306 146.36 249.904C147.117 249.555 146.449 248.42 145.693 248.769C140.397 251.258 135.057 244.795 129.495 246.891C125.801 248.289 124.377 251.782 119.794 250.472C116.679 249.599 113.964 248.289 110.627 248.332C107.957 248.376 105.376 249.162 103.373 250.952C101.949 252.219 100.792 254.533 98.6563 254.664C96.9653 254.751 95.5858 253.398 94.3843 252.437C92.5598 250.952 90.6908 249.468 88.1543 249.817C85.7513 250.123 83.8823 251.738 83.0813 253.922C82.8143 254.795 84.1048 255.144 84.3718 254.358Z" fill="#E8E8E8"/>
<path d="M55.9364 388.328C69.0639 378.852 84.1494 372.171 100.08 368.765C108.046 367.062 116.234 366.189 124.377 366.232C133.411 366.276 142.355 367.28 151.344 367.935C161.134 368.634 171.013 368.721 180.625 366.625C181.471 366.451 181.115 365.184 180.269 365.359C162.202 369.376 143.824 365.184 125.623 364.966C109.648 364.748 93.7169 367.892 78.9874 373.961C70.5324 377.455 62.5669 381.909 55.1799 387.236C54.5569 387.716 55.2244 388.852 55.9364 388.328Z" fill="#E8E8E8"/>
<path d="M149.075 369.464C160.467 361.385 171.77 353.089 183.34 345.229C188.68 341.604 194.287 338.242 200.472 336.146C206.524 334.137 212.888 333.482 219.162 332.653C224.947 331.91 230.777 330.993 236.206 328.679C241.056 326.627 245.284 323.483 249.155 319.989C257.521 312.348 264.285 303.09 274.476 297.588C286.669 291.038 300.909 289.554 314.526 288.2C315.371 288.113 315.371 286.803 314.526 286.89C302.6 288.069 290.362 289.335 279.193 293.92C268.602 298.243 261.215 305.885 253.472 313.876C249.511 317.981 245.373 322.042 240.433 325.055C235.004 328.373 228.863 329.902 222.589 330.862C216.581 331.779 210.44 332.26 204.522 333.657C198.336 335.098 192.64 337.805 187.3 341.08C180.759 345.098 174.573 349.726 168.343 354.18C161.713 358.896 155.082 363.612 148.407 368.285C147.74 368.809 148.407 369.944 149.075 369.464Z" fill="#E8E8E8"/>
<path d="M355.332 440.597C362.719 433.697 372.109 429.593 381.32 425.488C391.911 420.772 402.591 417.148 414.295 420.161C415.14 420.379 415.496 419.113 414.651 418.894C403.214 415.925 392.623 419.113 382.121 423.698C372.331 427.977 362.274 432.3 354.398 439.636C353.73 440.247 354.709 441.164 355.332 440.597Z" fill="#E8E8E8"/>
<path d="M252.715 404.091C260.28 403.043 267.934 404.965 275.143 407.104C280.884 408.807 286.936 411.209 289.917 416.667C290.318 417.41 291.475 416.755 291.074 416.012C288.004 410.467 281.996 407.803 276.122 406.056C268.468 403.742 260.369 401.777 252.359 402.869C251.514 402.912 251.87 404.179 252.715 404.091Z" fill="#E8E8E8"/>
<path d="M316.884 399.856C324.983 391.559 336.375 386.974 348.034 387.367C348.88 387.411 348.88 386.101 348.034 386.057C336.019 385.664 324.227 390.38 315.905 398.939C315.327 399.55 316.261 400.511 316.884 399.856Z" fill="#E8E8E8"/>
<path d="M317.641 349.508C326.585 350.993 334.506 356.189 339.312 363.787C339.757 364.486 340.914 363.831 340.469 363.132C335.485 355.272 327.297 349.814 318.041 348.285C317.151 348.111 316.795 349.377 317.641 349.508Z" fill="#E8E8E8"/>
<path d="M364.277 340.818C373.933 331.343 387.372 326.234 401.034 326.801C401.879 326.845 401.879 325.535 401.034 325.491C387.061 324.88 373.266 330.164 363.342 339.901C362.719 340.513 363.654 341.43 364.277 340.818Z" fill="#E8E8E8"/>
<path d="M338.778 457.539C343.807 450.902 354.087 449.592 360.806 454.526C361.474 455.05 362.141 453.915 361.474 453.391C354.131 447.976 343.095 449.723 337.621 456.884C337.087 457.583 338.244 458.238 338.778 457.539Z" fill="#E8E8E8"/>
<path d="M406.151 369.988C412.826 364.18 420.836 360.032 429.469 357.848C433.697 356.8 438.058 356.189 442.463 356.145C444.377 356.102 449.494 357.324 450.073 354.486C450.251 353.656 448.96 353.307 448.782 354.137C448.515 355.621 443.932 354.835 442.864 354.835C440.817 354.835 438.77 354.966 436.767 355.228C432.896 355.665 429.069 356.495 425.375 357.717C417.944 360.119 411.135 364.005 405.261 369.114C404.549 369.638 405.484 370.555 406.151 369.988Z" fill="#E8E8E8"/>
<path d="M416.876 322.173C422.572 321.474 427.956 325.491 428.757 331.081C428.891 331.91 430.181 331.561 430.048 330.731C429.158 324.618 423.106 320.12 416.876 320.863C416.031 320.95 416.031 322.26 416.876 322.173Z" fill="#E8E8E8"/>
<path d="M436.411 331.343C446.379 319.815 462.355 314.182 477.485 316.889C478.33 317.02 478.686 315.797 477.841 315.623C462.266 312.828 445.756 318.505 435.477 330.426C434.898 331.037 435.833 331.954 436.411 331.343Z" fill="#E8E8E8"/>
<path d="M216.047 452.43C224.102 448.85 233.046 450.072 241.323 452.037C249.734 454.046 258.055 456.229 263.306 463.522C263.796 464.22 264.953 463.565 264.463 462.867C262.105 459.548 259.034 456.841 255.341 455.007C251.113 452.911 246.263 451.863 241.679 450.771C233.002 448.675 223.746 447.583 215.38 451.295C214.579 451.644 215.246 452.736 216.047 452.43Z" fill="#E8E8E8"/>
<path d="M468.585 413.523C482.78 404.615 500.135 400.904 516.823 403.436C521.05 404.091 525.233 405.096 529.505 405.227C533.51 405.358 537.159 404.353 540.808 402.825C548.996 399.463 557.229 397.105 566.173 396.799C575.919 396.45 585.709 398.284 594.653 402.126C595.454 402.476 596.122 401.34 595.321 400.991C579.879 394.31 561.99 393.611 546.104 399.288C541.743 400.86 537.56 403.262 532.843 403.786C527.859 404.353 522.919 403.087 518.024 402.301C510.103 401.035 502.004 401.035 494.083 402.388C484.783 403.96 475.883 407.41 467.917 412.388C467.205 412.868 467.873 414.004 468.585 413.523Z" fill="#E8E8E8"/>
<path d="M536.269 383.175C550.732 377.062 566.529 370.512 582.638 372.564C586.154 373.001 589.758 374.529 593.318 374.136C596.611 373.787 599.637 372.04 602.886 371.341C610.406 369.726 618.327 370.905 625.047 374.442C625.803 374.835 626.471 373.699 625.714 373.306C619.44 369.988 612.32 368.678 605.244 369.595C601.595 370.075 598.48 371.516 594.965 372.477C590.782 373.612 586.465 371.734 582.282 371.21C565.995 369.289 550.198 375.839 535.557 382.04C534.845 382.389 535.513 383.524 536.269 383.175Z" fill="#E8E8E8"/>
<path d="M88.11 436.012C95.4525 432.082 104.085 432.78 111.828 434.964C116.1 436.143 120.239 437.758 124.377 439.287C127.804 440.509 132.031 442.649 135.725 442.387C138.884 442.169 141.866 439.723 144.803 438.632C148.496 437.278 152.412 436.492 156.328 436.274C164.027 435.881 171.636 437.715 178.267 441.645C179.023 442.081 179.691 440.946 178.934 440.509C168.966 434.614 156.462 433.304 145.47 437.016C142.845 437.889 140.486 439.243 137.994 440.378C134.345 442.038 129.806 439.811 126.291 438.588C119.838 436.317 113.43 433.566 106.622 432.431C100.08 431.339 93.3165 431.689 87.398 434.833C86.686 435.269 87.3535 436.405 88.11 436.012Z" fill="#E8E8E8"/>
<path d="M525.589 35.9378C526.034 55.9371 526.034 75.9365 525.634 95.9795C525.634 96.8091 526.969 96.8091 526.969 95.9795C527.37 75.9801 527.37 55.9808 526.925 35.9378C526.88 35.1081 525.545 35.1081 525.589 35.9378Z" fill="#E8E8E8"/>
<path d="M527.948 34.3221C563.236 34.3221 598.525 34.3221 633.813 34.3221C634.659 34.3221 634.659 33.0121 633.813 33.0121C598.525 33.0121 563.236 33.0121 527.948 33.0121C527.058 33.0121 527.058 34.3221 527.948 34.3221Z" fill="#E8E8E8"/>
<path d="M532.62 97.4205C565.817 97.4205 599.014 97.4205 632.211 97.4205C633.057 97.4205 633.057 96.1105 632.211 96.1105C599.014 96.1105 565.817 96.1105 532.62 96.1105C531.775 96.1105 531.775 97.4205 532.62 97.4205Z" fill="#E8E8E8"/>
<path d="M635.504 33.6671C635.504 53.4044 635.504 73.1854 635.504 92.9228C635.504 93.7524 636.839 93.7524 636.839 92.9228C636.839 73.1854 636.839 53.4044 636.839 33.6671C636.839 32.7938 635.504 32.7938 635.504 33.6671Z" fill="#E8E8E8"/>
<path d="M571.246 30.5231C571.113 31.5711 572.003 32.3134 573.071 32.0951C574.628 31.7894 574.806 29.6934 575.251 28.5144C575.741 27.2481 576.408 26.0254 577.209 24.8901C577.877 23.9731 578.099 23.2744 579.256 23.5801C580.369 23.8857 580.235 24.4097 580.547 25.3704C581.392 28.2087 582.104 31.0471 582.727 33.8854C582.905 34.7151 584.196 34.3657 584.018 33.5361C583.395 30.6541 582.683 27.8157 581.837 25.0211C581.481 23.8421 581.125 21.6587 579.523 21.4841C577.966 21.2657 576.764 23.2307 576.052 24.2787C575.34 25.2394 574.762 26.2874 574.317 27.4227C574.094 27.9031 573.916 28.4271 573.738 28.9074C573.649 29.1257 573.605 29.3441 573.516 29.6061C573.471 30.1301 573.16 30.4357 572.626 30.6104C572.715 29.6934 571.38 29.6934 571.246 30.5231Z" fill="#E8E8E8"/>
<path d="M531.196 42.0947C531.196 57.4653 531.196 72.8797 531.196 88.2503C531.196 89.08 532.531 89.08 532.531 88.2503C532.531 72.8797 532.531 57.4653 532.531 42.0947C532.531 41.265 531.196 41.265 531.196 42.0947Z" fill="#E8E8E8"/>
<path d="M534.222 88.949C564.527 88.949 594.876 88.949 625.181 88.949C626.026 88.949 626.026 87.639 625.181 87.639C594.876 87.639 564.527 87.639 534.222 87.639C533.332 87.639 533.332 88.949 534.222 88.949Z" fill="#E8E8E8"/>
<path d="M534.979 42.0074C565.817 42.0074 596.656 42.0074 627.539 42.0074C628.384 42.0074 628.384 40.6974 627.539 40.6974C596.7 40.6974 565.862 40.6974 534.979 40.6974C534.133 40.6974 534.133 42.0074 534.979 42.0074Z" fill="#E8E8E8"/>
<path d="M627.628 39.8241C627.628 55.4567 627.628 71.1331 627.628 86.7657C627.628 87.5954 628.963 87.5954 628.963 86.7657C628.963 71.1331 628.963 55.4567 628.963 39.8241C628.963 38.9507 627.628 38.9507 627.628 39.8241Z" fill="#E8E8E8"/>
<path d="M532.754 67.465C542.277 63.8844 551.266 71.2641 559.454 74.9757C567.508 78.6437 576.052 81.0891 584.863 82.3554C585.709 82.4864 586.065 81.2201 585.219 81.0891C575.474 79.6917 566.04 76.8534 557.229 72.4867C549.575 68.6877 541.298 62.8364 532.353 66.1987C531.597 66.5044 531.953 67.7707 532.754 67.465Z" fill="#E8E8E8"/>
<path d="M565.995 75.8054C571.469 75.6744 576.853 75.0194 582.149 73.6657C584.774 73.0107 587.311 72.05 589.892 71.3077C593.051 70.3907 595.677 70.478 598.836 71.3077C603.42 72.574 607.069 71.8317 611.296 69.7357C616.725 67.072 621.843 65.1507 627.984 65.1507C628.829 65.1507 628.829 63.8407 627.984 63.8407C622.955 63.8407 618.105 64.9324 613.61 67.1157C611.207 68.251 608.893 69.6484 606.312 70.347C603.242 71.1767 600.705 70.3907 597.768 69.6484C592.829 68.4257 588.468 70.478 583.795 71.8317C578.01 73.491 572.047 74.3207 565.995 74.4517C565.105 74.4954 565.105 75.8054 565.995 75.8054Z" fill="#E8E8E8"/>
<path d="M608.27 68.0763C607.469 67.3776 605.867 66.5043 605.422 65.5873C604.888 65.238 604.977 64.714 605.778 64.1026C605.778 63.0983 606.179 62.618 607.024 62.6616C607.514 62.4433 608.137 62.487 608.671 62.4433C610.095 62.2686 611.608 61.832 612.32 60.522C612.898 59.5176 612.631 58.7316 612.142 57.8146C611.43 56.461 610.54 55.151 612.008 53.841C613.61 52.4436 615.88 53.186 617.393 54.234C617.793 54.496 618.238 54.1903 618.372 53.841C618.906 52.4873 620.107 51.5266 621.531 51.2646C622.11 51.1336 622.822 51.1336 623.356 51.3083C623.979 51.5266 625.937 53.1423 624.513 53.9283C623.756 54.365 624.424 55.5003 625.18 55.0636C627.405 53.7973 625.937 50.828 623.934 50.1293C621.086 49.125 618.105 50.8716 617.037 53.4916C617.348 53.3606 617.704 53.2296 618.016 53.0986C616.102 51.8323 613.477 51.1336 611.43 52.5746C609.427 53.972 609.605 55.7623 610.273 57.7273C610.406 57.902 610.54 58.0766 610.718 58.2513C611.074 60.0416 610.54 61.0023 609.027 61.1333C608.137 61.308 607.202 61.2643 606.312 61.4826C605.244 61.7446 604.31 62.2686 603.731 63.1856C602.218 65.7183 605.689 67.6396 607.291 69.037C608.003 69.561 608.938 68.6003 608.27 68.0763Z" fill="#E8E8E8"/>
<path d="M574.762 55.4131C573.249 54.4524 574.45 52.2691 575.563 51.5268C576.853 50.6534 578.811 50.4788 580.102 51.4394C581.481 52.4001 581.704 54.5834 580.502 55.8498C579.256 57.1598 577.12 56.8978 575.919 55.6751C575.34 55.0638 574.406 55.9808 574.984 56.5921C576.631 58.3388 579.701 58.5571 581.437 56.7668C583.172 54.9764 582.905 51.8324 580.903 50.3914C578.9 48.9504 575.785 49.3434 574.094 51.0028C572.581 52.4874 572.047 55.2821 574.05 56.5484C574.806 56.9851 575.474 55.8498 574.762 55.4131Z" fill="#E8E8E8"/>
<path d="M176.665 52.7057C175.419 80.6524 174.618 108.599 174.262 136.589C174.262 137.419 175.597 137.419 175.597 136.589C175.953 108.599 176.754 80.6524 178 52.7057C178.044 51.8761 176.709 51.8761 176.665 52.7057Z" fill="#E8E8E8"/>
<path d="M176.22 135.323C213.555 126.197 250.535 115.76 287.114 104.014C297.571 100.652 307.984 97.2021 318.353 93.6651C319.154 93.4031 318.798 92.1368 317.997 92.3988C281.685 104.844 244.928 116.022 207.815 125.891C197.224 128.729 186.588 131.437 175.908 134.057C175.063 134.231 175.419 135.498 176.22 135.323Z" fill="#E8E8E8"/>
<path d="M180.358 52.1381C214.445 43.5794 248.933 36.5491 283.687 31.0908C293.789 29.5188 303.89 28.0341 314.036 26.7241C314.882 26.5931 314.882 25.2831 314.036 25.4141C278.97 29.9991 244.082 36.1561 209.595 43.8414C199.716 46.0684 189.881 48.3828 180.047 50.8718C179.157 51.0464 179.513 52.3128 180.358 52.1381Z" fill="#E8E8E8"/>
<path d="M314.214 26.2437C315.416 48.1207 316.617 69.9977 317.819 91.8747C317.863 92.7044 319.198 92.7044 319.154 91.8747C317.952 69.9977 316.751 48.1207 315.549 26.2437C315.505 25.3704 314.17 25.3704 314.214 26.2437Z" fill="#E8E8E8"/>
<path d="M177.065 61.8757C181.693 60.7404 186.366 59.6487 190.994 58.5134C190.727 58.2951 190.415 58.0767 190.148 57.9021C188.012 81.4821 187.3 105.149 188.057 128.817C188.101 129.646 189.436 129.646 189.392 128.817C188.635 105.149 189.347 81.4821 191.483 57.9021C191.528 57.4654 191.038 57.1597 190.638 57.2907C186.01 58.4261 181.337 59.5177 176.709 60.6531C175.908 60.8277 176.264 62.0941 177.065 61.8757Z" fill="#E8E8E8"/>
<path d="M251.647 112.311C251.692 108.905 251.87 105.499 252.226 102.093C252.315 101.35 252.181 100.171 252.582 99.5163C253.205 98.4683 254.851 98.119 255.919 97.8134C257.477 97.3767 259.034 96.94 260.592 96.5034C267.222 94.6694 273.853 92.8353 280.528 91.0013C287.025 89.211 293.522 87.4207 300.019 85.6304C301.71 85.15 303.401 84.7133 305.092 84.233C306.605 83.7963 308.607 82.8357 310.165 82.8357C311.678 82.8357 311.767 83.5343 311.633 84.7133C311.544 85.4993 311.5 86.329 311.411 87.115C311.277 88.7307 311.099 90.3027 310.966 91.9184C310.877 92.748 312.212 92.748 312.301 91.9184C312.479 89.7787 312.701 87.639 312.879 85.4994C312.968 84.4514 313.413 83.0103 312.657 82.0933C311.233 80.2593 307.228 82.268 305.537 82.7483C297.349 85.019 289.161 87.2897 280.973 89.5604C272.785 91.831 264.597 94.1017 256.409 96.3723C254.006 97.0273 251.692 97.2457 251.158 99.9094C250.357 103.927 250.401 108.293 250.357 112.354C250.312 113.14 251.647 113.14 251.647 112.311Z" fill="#E8E8E8"/>
<path d="M251.336 98.4247C241.991 97.4641 232.601 96.5034 223.39 94.6257C222.856 94.5384 222.5 94.9314 222.589 95.4117C223.167 98.9487 223.345 102.791 224.324 106.241C224.992 108.512 226.994 109.036 229.041 109.822C235.538 112.311 242.302 114.014 249.2 115.018C250.045 115.149 250.401 113.883 249.556 113.752C243.726 112.922 238.03 111.568 232.468 109.691C231.177 109.254 229.887 108.774 228.641 108.293C226.594 107.464 225.748 106.634 225.392 104.451C224.903 101.35 224.413 98.2064 223.924 95.1061C223.657 95.3681 223.39 95.6301 223.123 95.8921C232.468 97.7698 241.946 98.7304 251.425 99.7347C252.181 99.8221 252.181 98.5121 251.336 98.4247Z" fill="#E8E8E8"/>
<path d="M224.324 94.9313C229.664 92.9663 235.049 91.2197 240.522 89.735C241.368 89.5167 241.012 88.2503 240.166 88.4687C234.693 89.997 229.264 91.7437 223.968 93.665C223.167 93.927 223.479 95.1933 224.324 94.9313Z" fill="#E8E8E8"/>
<path d="M257.343 84.7134C257.655 87.8574 257.966 91.0014 258.233 94.1018C258.322 94.9314 259.657 94.9314 259.568 94.1018C259.257 90.9578 258.945 87.8138 258.678 84.7134C258.589 83.8838 257.254 83.8838 257.343 84.7134Z" fill="#E8E8E8"/>
<path d="M257.254 84.0147C265.442 83.4907 273.185 80.2594 281.062 78.2071C289.339 76.0237 297.749 74.3644 306.249 73.1854C305.982 72.9234 305.715 72.6614 305.448 72.3994C304.958 75.5871 304.647 78.7747 304.469 81.9624C304.424 82.7921 305.759 82.7921 305.804 81.9624C305.982 78.8621 306.293 75.8054 306.738 72.7487C306.827 72.2247 306.471 71.8754 305.937 71.9627C297.705 73.0981 289.606 74.7137 281.551 76.7661C273.541 78.8184 265.576 82.2244 257.299 82.7484C256.364 82.7484 256.364 84.0584 257.254 84.0147Z" fill="#E8E8E8"/>
<path d="M241.012 80.9145C240.834 83.0541 240.166 85.6741 240.433 87.7701C240.611 89.0365 241.412 89.4295 242.525 89.7788C247.598 91.3071 252.893 92.2678 258.055 93.4905C258.901 93.7088 259.257 92.4425 258.411 92.2241C254.54 91.3071 250.624 90.3465 246.752 89.4295C245.773 89.2111 244.661 89.0801 243.726 88.6871C242.48 88.1631 241.946 87.7265 241.813 86.2855C241.679 84.5825 242.124 82.5738 242.302 80.8708C242.391 80.0411 241.056 80.0411 241.012 80.9145Z" fill="#E8E8E8"/>
<path d="M241.234 80.2157C246.53 81.0454 251.825 81.8751 257.121 82.7047C257.966 82.8357 258.322 81.5694 257.477 81.4384C252.181 80.6087 246.886 79.7791 241.59 78.9494C240.745 78.8621 240.389 80.0847 241.234 80.2157Z" fill="#E8E8E8"/>
<path d="M242.391 78.7748C250.846 76.4168 259.301 74.1024 267.756 71.7444C276.122 69.4301 284.533 67.1158 293.21 66.5044C294.056 66.4608 294.056 65.1508 293.21 65.1944C284.666 65.8058 276.434 67.9891 268.201 70.2598C259.479 72.6614 250.757 75.1068 241.991 77.5084C241.234 77.7268 241.59 78.9931 242.391 78.7748Z" fill="#E8E8E8"/>
<path d="M290.184 66.2425C295.257 67.8581 300.152 69.8668 304.869 72.3122C305.626 72.7051 306.293 71.5698 305.537 71.1768C300.686 68.7315 295.703 66.6355 290.541 64.9762C289.695 64.7142 289.339 65.9805 290.184 66.2425Z" fill="#E8E8E8"/>
<path d="M189.837 70.7401C192.373 69.8231 194.999 69.2555 197.713 69.2991C198.826 69.2991 200.072 69.2118 200.65 70.6528C200.828 71.0895 200.65 71.9191 200.695 72.3995C200.695 73.7095 200.739 75.0195 200.739 76.3295C200.828 81.8315 200.873 87.3771 200.962 92.8791C201.095 103.752 201.273 114.669 201.407 125.542C201.407 126.371 202.742 126.371 202.742 125.542C202.564 112.747 202.386 99.9968 202.252 87.2025C202.208 84.0148 202.163 80.8271 202.119 77.6395C202.119 76.1985 202.074 74.7138 202.074 73.2728C202.074 72.0938 202.341 70.5655 201.896 69.4301C201.273 67.8581 199.182 67.9891 197.802 67.9891C194.954 67.9455 192.195 68.5131 189.57 69.4738C188.68 69.7795 189.036 71.0458 189.837 70.7401Z" fill="#E8E8E8"/>
<path d="M203.409 113.97C210.351 112.092 217.249 110.215 224.191 108.337C225.036 108.119 224.68 106.852 223.835 107.071C216.893 108.948 209.995 110.826 203.053 112.704C202.252 112.966 202.564 114.188 203.409 113.97Z" fill="#E8E8E8"/>
<path d="M177.866 146.807C177.644 153.838 177.421 160.912 177.154 167.942C177.11 168.772 178.445 168.772 178.489 167.942C178.712 160.912 178.934 153.838 179.201 146.807C179.246 145.978 177.911 145.978 177.866 146.807Z" fill="#E8E8E8"/>
<path d="M261.126 104.582C261.437 102.005 264.908 102.442 266.733 102.224C267.801 102.093 268.78 101.787 269.67 101.263C270.782 100.608 271.583 99.6038 272.696 98.9051C273.942 98.1191 276.478 97.5951 276.834 99.6474C276.923 100.171 277.635 100.259 277.947 99.9531C279.549 98.5121 281.195 97.0274 283.153 96.0668C284.31 95.4991 285.556 95.1061 286.847 95.1498C287.692 95.1934 288.404 95.5428 289.25 95.5428C290.629 95.5428 291.964 94.6258 293.166 94.0144C295.302 93.0101 297.393 91.9621 299.529 90.9578C300.286 90.6084 299.618 89.4731 298.862 89.8224C296.726 90.8268 294.634 91.8748 292.498 92.8791C291.119 93.5341 290.051 94.1891 288.449 94.0581C287.559 93.9708 286.802 93.7961 285.823 93.8834C282.352 94.2764 279.46 96.7218 277.012 98.9924C277.368 99.0798 277.769 99.1671 278.125 99.2981C277.902 97.9008 276.79 97.1584 275.41 96.9401C273.586 96.6781 272.251 97.5514 270.871 98.6431C269.447 99.7784 268.468 100.608 266.644 100.914C265.398 101.088 264.107 100.957 262.906 101.307C261.215 101.787 260.058 102.879 259.835 104.582C259.702 105.411 261.037 105.411 261.126 104.582Z" fill="#E8E8E8"/>
<path d="M267.4 85.936C269.403 84.0583 272.963 86.1543 275.455 85.7613C276.523 85.5866 277.324 85.019 278.303 84.5823C279.949 83.84 281.729 84.0583 283.509 83.7527C289.161 82.792 294.189 78.076 300.152 79.1677C300.998 79.3423 301.354 78.076 300.508 77.9013C294.056 76.7223 289.027 81.613 282.931 82.4863C281.373 82.7047 279.771 82.5737 278.303 83.1413C277.457 83.447 276.701 84.0583 275.855 84.3203C274.832 84.626 273.808 84.4513 272.785 84.3203C270.56 83.971 268.29 83.2723 266.466 84.9753C265.843 85.5866 266.777 86.5036 267.4 85.936Z" fill="#E8E8E8"/>
<path d="M177.466 146.938C214.134 135.585 250.802 124.232 287.426 112.922C297.839 109.691 308.296 106.459 318.709 103.228C319.51 102.966 319.199 101.7 318.353 101.962C281.685 113.315 245.017 124.668 208.393 135.978C197.98 139.209 187.523 142.441 177.11 145.672C176.309 145.934 176.665 147.2 177.466 146.938Z" fill="#E8E8E8"/>
<path d="M178.133 168.029C215.246 158.641 251.736 146.764 287.203 132.528C296.993 128.598 306.738 124.494 316.395 120.171C317.196 119.821 316.484 118.686 315.727 119.035C280.973 134.493 245.195 147.637 208.616 158.335C198.381 161.348 188.101 164.143 177.777 166.763C176.932 166.981 177.288 168.248 178.133 168.029Z" fill="#E8E8E8"/>
<path d="M317.285 104.014C317.33 108.948 317.419 113.839 317.463 118.773C317.463 119.603 318.798 119.603 318.798 118.773C318.754 113.839 318.664 108.948 318.62 104.014C318.62 103.184 317.285 103.141 317.285 104.014Z" fill="#E8E8E8"/>
<path d="M247.331 309.684C254.184 305.536 263.351 298.462 268.558 287.152C274.031 275.275 270.649 268.463 273.319 258.026C278.615 237.459 297.839 240.341 318.62 216.936C340.158 192.701 332.282 175.234 357.424 150.912C366.191 142.397 374.913 137.026 380.876 133.795C380.52 137.201 380.119 140.607 379.763 144.056C378.072 144.886 375.447 146.283 372.465 148.292C364.099 153.969 356.445 162.44 347.145 181.784C338.601 199.513 342.339 198.116 336.732 207.417C326.986 223.704 311.856 234.315 302.467 240.865C290.719 249.075 284.088 251.127 280.751 259.598C277.814 267.065 280.662 271.301 279.683 279.903C278.793 287.763 274.832 298.374 261.082 310.339C256.498 310.077 251.915 309.902 247.331 309.684Z" fill="#EC615B"/>
<path d="M168.611 353.307L236.028 367.193L304.291 312.304L242.436 309.466L168.611 353.307Z" fill="white" stroke="black" stroke-width="3" stroke-miterlimit="10"/>
<path d="M184.808 349.683C199.004 352.041 213.066 354.923 227.039 358.285C227.884 358.503 228.24 357.237 227.395 357.019C213.422 353.656 199.315 350.774 185.164 348.416C184.319 348.285 183.918 349.552 184.808 349.683Z" fill="black"/>
<path d="M185.387 348.635C203.988 337.5 222.589 326.321 241.19 315.186C241.902 314.749 241.235 313.614 240.523 314.051C221.922 325.186 203.321 336.364 184.72 347.499C184.008 347.98 184.675 349.115 185.387 348.635Z" fill="black"/>
<path d="M241.501 314.531C254.406 315.579 267.356 316.19 280.35 316.452C281.195 316.452 281.195 315.142 280.35 315.142C267.4 314.924 254.451 314.269 241.501 313.221C240.611 313.134 240.611 314.444 241.501 314.531Z" fill="black"/>
<path d="M227.484 358.198C245.061 344.05 262.772 330.033 280.572 316.234C281.24 315.71 280.305 314.793 279.638 315.317C261.793 329.159 244.127 343.133 226.549 357.281C225.882 357.805 226.861 358.765 227.484 358.198Z" fill="black"/>
<path d="M191.394 345.098C204.433 347.63 217.382 350.6 230.198 354.006C231.044 354.224 231.4 352.958 230.554 352.739C217.738 349.333 204.789 346.32 191.75 343.831C190.905 343.657 190.549 344.923 191.394 345.098Z" fill="black"/>
<path d="M200.918 339.858C212.844 342.172 224.592 345.403 236.028 349.508C236.829 349.814 237.185 348.547 236.384 348.242C224.948 344.137 213.2 340.949 201.274 338.591C200.428 338.417 200.072 339.683 200.918 339.858Z" fill="black"/>
<path d="M232.602 347.368C240.745 341.299 248.933 335.185 257.076 329.116C257.744 328.592 257.076 327.456 256.409 327.98C248.266 334.05 240.078 340.163 231.934 346.233C231.267 346.757 231.934 347.892 232.602 347.368Z" fill="black"/>
<path d="M209.595 334.487C218.896 336.932 228.063 339.77 237.096 343.002C237.897 343.307 238.253 342.041 237.452 341.735C228.419 338.504 219.252 335.666 209.951 333.22C209.106 333.002 208.75 334.268 209.595 334.487Z" fill="black"/>
<path d="M219.385 328.897C228.107 330.993 236.607 333.875 244.795 337.543C245.551 337.893 246.263 336.757 245.462 336.408C237.185 332.696 228.597 329.771 219.741 327.631C218.94 327.456 218.584 328.723 219.385 328.897Z" fill="black"/>
<path d="M227.084 324.225C235.45 326.932 243.771 329.64 252.137 332.391C252.938 332.653 253.294 331.386 252.493 331.124C244.127 328.417 235.806 325.71 227.44 322.959C226.639 322.697 226.283 323.963 227.084 324.225Z" fill="black"/>
<path d="M233.136 319.596C243.727 321.823 254.273 324.05 264.864 326.277C265.71 326.452 266.066 325.186 265.22 325.011C254.629 322.784 244.083 320.557 233.492 318.33C232.646 318.155 232.29 319.422 233.136 319.596Z" fill="black"/>
<path d="M257.121 328.897C258.634 328.111 259.924 327.063 260.992 325.753C261.527 325.098 260.592 324.181 260.058 324.836C259.035 326.059 257.833 327.019 256.453 327.762C255.697 328.155 256.364 329.29 257.121 328.897Z" fill="black"/>
<path d="M239.899 316.583C250.401 318.679 260.903 320.775 271.361 322.828C272.206 323.002 272.562 321.736 271.717 321.561C261.215 319.465 250.713 317.369 240.255 315.317C239.41 315.142 239.054 316.409 239.899 316.583Z" fill="black"/>
<path d="M201.363 346.713C216.671 336.976 231.667 326.801 246.308 316.19C246.975 315.71 246.308 314.575 245.64 315.055C231 325.71 216.003 335.884 200.695 345.578C199.983 346.058 200.651 347.194 201.363 346.713Z" fill="black"/>
<path d="M211.019 348.809C225.927 338.024 240.879 327.238 255.786 316.452C256.454 315.972 255.786 314.837 255.119 315.317C240.211 326.103 225.259 336.888 210.352 347.674C209.684 348.154 210.352 349.29 211.019 348.809Z" fill="black"/>
<path d="M220.32 351.255C234.649 339.334 249.334 327.849 264.375 316.845C265.042 316.365 264.375 315.23 263.707 315.71C248.577 326.801 233.759 338.329 219.385 350.338C218.718 350.862 219.697 351.779 220.32 351.255Z" fill="black"/>
<path d="M131.943 282.829C144.18 306.322 156.418 329.814 168.655 353.307C193.264 338.679 217.872 324.094 242.481 309.466C232.646 289.335 222.767 269.249 212.933 249.118C185.921 260.341 158.91 271.563 131.943 282.829Z" fill="white" stroke="black" stroke-width="3" stroke-miterlimit="10"/>
<path d="M138.351 284.707C149.164 305.012 159.978 325.273 170.791 345.578C192.552 332.958 214.268 320.339 236.028 307.675C227.306 290.296 218.629 272.917 209.907 255.537C186.055 265.275 162.203 275.013 138.351 284.707Z" fill="white" stroke="black" stroke-width="3" stroke-miterlimit="10"/>
<path d="M165.629 300.077C167.276 303.134 169.1 306.06 171.147 308.854C171.37 309.16 171.726 309.247 172.082 309.073C184.72 302.654 197.358 296.278 209.995 289.859C210.752 289.466 210.084 288.331 209.328 288.724C196.69 295.143 184.052 301.518 171.414 307.937C171.726 308.025 172.037 308.112 172.349 308.156C170.302 305.361 168.433 302.435 166.831 299.379C166.386 298.636 165.229 299.335 165.629 300.077Z" fill="#E8E8E8"/>
<path d="M167.632 299.597C175.508 297.021 182.495 292.698 189.659 288.724C193.397 286.628 197.224 284.619 201.229 283.047C202.119 282.698 203.054 282.392 203.944 282.087C204.611 281.868 206.347 281.039 207.103 281.17C208.171 281.388 208.216 283.222 208.394 284.052C208.661 285.362 208.972 286.628 209.239 287.938C209.417 288.768 210.708 288.418 210.53 287.589C210.263 286.279 209.951 285.012 209.684 283.702C209.462 282.785 209.462 281.519 208.928 280.646C208.171 279.379 206.836 279.86 205.679 280.165C201.318 281.344 197.135 283.222 193.13 285.274C184.542 289.728 176.532 295.274 167.276 298.287C166.43 298.593 166.786 299.859 167.632 299.597Z" fill="#E8E8E8"/>
<path d="M188.458 288.506C190.238 291.344 192.018 294.182 193.798 297.021C194.243 297.719 195.4 297.064 194.955 296.366C193.175 293.527 191.395 290.689 189.615 287.851C189.17 287.108 188.013 287.807 188.458 288.506Z" fill="#E8E8E8"/>
<path d="M181.071 281.519C182.272 281.126 183.429 280.777 184.631 280.384C184.364 280.122 184.097 279.86 183.83 279.598C183.073 282.392 183.207 285.187 184.275 287.894C184.586 288.68 185.877 288.331 185.565 287.545C184.586 285.056 184.453 282.523 185.12 279.947C185.254 279.467 184.809 278.986 184.319 279.161C183.118 279.554 181.961 279.903 180.759 280.296C179.869 280.515 180.225 281.781 181.071 281.519Z" fill="#E8E8E8"/>
<path d="M182.272 285.1C183.696 283.484 185.52 282.436 187.656 281.999C188.502 281.825 188.146 280.558 187.3 280.733C184.942 281.17 182.85 282.349 181.293 284.139C180.803 284.794 181.738 285.711 182.272 285.1Z" fill="#E8E8E8"/>
<path d="M190.46 282.218C189.748 281.126 188.903 279.903 188.947 278.55C188.992 277.589 190.06 276.061 191.261 276.628C192.24 277.109 192.596 279.161 192.507 280.122C192.374 281.344 191.172 282.611 189.882 281.868C189.125 281.432 188.458 282.567 189.214 283.004C190.772 283.877 192.685 283.135 193.442 281.606C194.287 279.947 193.753 277.021 192.285 275.799C190.994 274.707 189.125 275.449 188.235 276.672C186.767 278.681 188.146 281.126 189.303 282.916C189.793 283.571 190.95 282.916 190.46 282.218Z" fill="#E8E8E8"/>
<path d="M197.269 272.48C197.002 275.231 196.735 277.982 196.468 280.689C196.379 281.519 197.714 281.519 197.803 280.689C198.07 277.938 198.337 275.187 198.604 272.48C198.693 271.65 197.358 271.65 197.269 272.48Z" fill="#E8E8E8"/>
<path d="M194.599 273.135C195.444 273.135 195.444 271.825 194.599 271.825C193.753 271.825 193.753 273.135 194.599 273.135Z" fill="#E8E8E8"/>
<path d="M201.719 278.855C202.564 278.855 202.564 277.545 201.719 277.545C200.873 277.545 200.873 278.855 201.719 278.855Z" fill="#E8E8E8"/>
<path d="M175.819 312.828C179.157 311.955 182.45 310.819 185.565 309.378C188.947 307.806 191.928 305.317 195.399 303.964C198.425 302.785 201.451 302.086 204.255 300.427C206.88 298.855 209.194 296.802 211.152 294.488C211.686 293.833 210.752 292.916 210.218 293.571C208.171 296.016 205.812 298.112 203.009 299.684C200.205 301.256 197.09 301.824 194.198 303.134C191.216 304.488 188.591 306.54 185.609 307.981C182.361 309.553 178.979 310.732 175.463 311.649C174.662 311.78 174.974 313.046 175.819 312.828Z" fill="#E8E8E8"/>
<path d="M498.667 150.388C496.131 152.746 495.33 155.584 494.974 156.851C491.814 168.466 491.77 175.191 491.77 175.191C491.681 189.077 489.945 185.452 489.233 205.146C488.966 212.7 488.922 222.001 489.456 232.612C487.72 235.145 485.273 239.206 483.404 244.577C481.179 250.865 479.666 255.101 481.579 259.38C484.027 264.926 490.657 266.978 492.304 267.502C495.686 268.55 497.11 267.982 505.164 269.205C507.923 269.642 510.148 270.078 511.661 270.384C510.371 273.004 508.457 276.847 507.167 279.467C504.319 285.231 501.471 290.995 498.623 296.759C501.382 298.331 505.342 300.558 510.193 303.09C520.517 308.505 525.679 311.212 531.33 313.09C534.979 314.313 543.256 316.758 554.025 317.064C561.368 317.282 566.663 316.409 574.94 315.055C583.217 313.701 589.981 312.042 594.698 310.732C595.588 306.191 596.745 300.427 598.258 293.833C598.659 292.043 600.617 283.702 603.731 272.262C605.778 264.838 608.404 255.756 611.786 245.319C607.603 244.664 603.42 243.966 599.237 243.311C602.308 238.158 604.978 234.053 606.802 231.215C608.849 228.071 612.765 222.176 616.236 214.185C617.616 210.997 618.461 208.508 617.526 205.888C616.325 202.57 612.898 201.041 612.142 200.692C609.116 199.338 606.402 199.731 602.575 200.168C597.991 200.692 593.319 200.779 588.735 201.391C583.707 202.046 576.453 202.439 566.975 200.998C566.485 193.094 566.396 186.631 566.441 182.09C566.53 172.964 567.019 168.029 563.771 165.671C563.103 165.191 562.48 164.929 555.672 164.012C551.489 163.444 549.397 163.182 545.615 162.789C541.343 162.353 535.38 161.741 528.883 159.907C520.116 157.462 515.755 156.239 511.706 152.528C509.214 150.213 507.612 147.681 504.586 147.593C501.827 147.462 499.424 149.689 498.667 150.388Z" fill="white"/>
<path opacity="0.2" d="M528.171 278.157C529.239 282.043 531.553 288.331 537.071 293.658C545.659 301.999 556.873 303.09 569.155 304.269C575.43 304.881 584.819 305.23 596.211 303.352C597.146 298.942 598.391 293.527 599.904 287.327C600.883 283.266 602.93 275.1 605.912 264.795C607.558 259.118 609.516 252.568 611.875 245.276C608.048 244.402 604.221 243.529 600.394 242.656C596.478 249.206 593.319 254.577 591.138 258.288C584.864 269.161 581.748 274.882 575.652 284.838C573.382 288.549 571.469 291.606 570.223 293.571C568.31 293.702 565.64 293.789 562.48 293.571C560.211 293.396 550.688 292.567 540.052 286.759C536.937 285.056 532.621 282.349 528.171 278.157Z" fill="#898989"/>
<path opacity="0.22" d="M565.061 204.36C567.464 206.194 570.802 209.163 573.828 213.617C574.451 214.534 578.011 219.905 579.613 227.285C582.016 238.333 578.678 247.677 576.142 254.62C570.045 271.17 559.588 282.829 551.756 289.903C553.269 290.995 555.494 292.305 558.342 293.178C563.504 294.794 567.998 294.182 570.312 293.702C581.66 275.056 591.005 259.686 598.926 247.022C602.441 241.389 608.271 232.132 613.878 218.726C615.836 214.098 617.215 210.168 618.105 207.548C617.349 205.67 615.702 202.351 612.231 200.736C609.739 199.557 607.336 199.731 606.179 199.819C592.295 201.041 585.353 201.653 584.152 201.827C579.079 202.526 571.514 202.744 561.679 199.993C562.881 201.434 563.949 202.875 565.061 204.36Z" fill="#898989"/>
<path opacity="0.18" d="M491.77 177.942C494.039 185.802 496.309 193.662 498.578 201.565C509.436 192.745 520.294 183.88 531.152 175.06C524.255 181.828 518.737 188.16 514.42 193.531C512.462 195.976 506.099 204.054 499.023 215.582C494.974 222.176 491.859 228.027 489.5 232.7C489.189 226.979 489.011 220.997 489.1 214.753C489.233 201.347 490.257 189.033 491.77 177.942Z" fill="#898989"/>
<path d="M502.005 212.569C505.876 206.325 510.059 200.255 514.554 194.404C519.048 188.553 523.765 182.308 529.194 177.287C536.225 170.824 543.034 179.164 547.35 184.404C551.622 189.601 555.716 194.928 560.122 199.993C564.972 205.495 570.223 210.648 576.32 214.84C577.032 215.32 577.699 214.185 576.987 213.705C564.705 205.321 556.25 193.007 546.861 181.784C543.301 177.505 537.649 171.392 531.375 174.143C528.349 175.453 526.124 178.509 523.988 180.867C521.318 183.88 518.692 186.937 516.2 190.081C510.638 197.024 505.52 204.316 500.803 211.871C500.403 212.613 501.56 213.268 502.005 212.569Z" fill="black"/>
<path d="M561.59 200.605C571.202 202.832 581.126 203.399 590.871 202.22C595.722 201.609 600.572 200.168 605.467 200.124C610.14 200.081 615.702 202.002 617.26 206.849C618.061 209.425 616.948 211.696 615.747 213.923C614.545 216.194 613.299 218.421 612.053 220.648C609.561 225.145 607.069 229.599 604.577 234.097C599.549 243.049 594.431 251.913 589.225 260.734C583.306 270.777 577.254 280.777 571.113 290.733C570.668 291.475 571.825 292.13 572.27 291.388C583.974 272.48 595.277 253.354 606.179 233.966C608.849 229.25 611.475 224.534 614.056 219.774C616.014 216.237 619.44 211.958 618.817 207.679C618.328 204.142 615.435 201.347 612.231 199.95C608.271 198.203 603.776 198.683 599.638 199.382C593.363 200.43 587.222 201.478 580.814 201.478C574.451 201.478 568.087 200.736 561.901 199.295C561.145 199.164 560.789 200.43 561.59 200.605Z" fill="black"/>
<path d="M502.672 208.465C496.487 218.115 490.791 228.071 485.718 238.333C481.802 246.28 476.061 257.197 484.516 264.314C492.259 270.821 503.473 268.594 512.596 271.345C522.831 274.401 531.152 281.301 540.23 286.541C549.575 291.955 561.012 296.147 571.736 292.261C572.537 291.955 572.181 290.689 571.38 290.995C551.489 298.112 534.801 279.248 518.247 272.043C514.198 270.253 509.97 269.118 505.565 268.637C500.403 268.026 495.063 268.07 490.212 266.148C485.317 264.227 481.49 260.428 481.401 255.013C481.312 249.642 484.205 244.49 486.519 239.774C491.681 229.25 497.466 219.032 503.829 209.163C504.274 208.421 503.117 207.722 502.672 208.465Z" fill="black"/>
<path d="M490.212 232.613C489.545 219.557 489.678 206.457 490.613 193.444C491.102 186.719 491.814 179.995 492.749 173.27C493.505 167.724 494.039 161.829 495.819 156.502C496.487 154.493 497.466 152.354 499.112 150.869C501.738 148.467 505.031 149.122 507.923 150.694C513.041 153.402 517.98 156.153 523.409 158.205C529.016 160.345 534.89 161.917 540.809 162.921C546.193 163.838 551.533 163.925 556.962 164.318C559.721 164.493 563.103 165.017 564.75 167.462C566.619 170.301 565.818 175.41 565.862 178.641C565.951 186.152 566.04 193.706 566.129 201.217C566.129 202.046 567.464 202.046 567.464 201.217C567.375 193.968 567.286 186.719 567.197 179.514C567.153 174.711 568.532 167.462 563.459 164.58C559.098 162.091 553.135 162.965 548.329 162.572C541.61 162.004 534.935 160.65 528.482 158.642C522.03 156.589 515.889 153.838 510.059 150.476C506.01 148.162 501.382 146.502 497.688 150.345C494.306 153.838 493.594 159.122 492.793 163.663C491.636 170.432 490.702 177.244 489.99 184.099C488.343 200.212 487.943 216.456 488.744 232.613C488.922 233.486 490.257 233.486 490.212 232.613Z" fill="black"/>
<path d="M510.816 271.388C508.635 275.537 506.41 279.641 504.23 283.79C503.117 285.842 502.049 287.938 500.937 289.99C500.002 291.737 498.712 293.527 498.133 295.405C497.866 296.322 497.911 297.108 498.667 297.763C500.091 299.073 502.45 299.815 504.141 300.689C508.235 302.785 512.329 304.924 516.423 307.02C523.988 310.907 531.775 314.575 540.186 316.321C548.641 318.068 557.363 318.068 565.951 317.107C575.786 316.016 585.442 313.701 595.01 311.387C595.855 311.169 595.499 309.902 594.654 310.121C578.99 313.92 562.747 317.806 546.505 316.016C529.995 314.182 515.355 305.055 500.937 297.545C501.07 297.588 499.824 297.064 499.735 296.89C499.246 296.235 499.824 295.099 500.091 294.488C500.581 293.309 501.337 292.13 501.96 290.995C503.073 288.942 504.141 286.846 505.253 284.794C507.523 280.515 509.792 276.279 512.017 272C512.373 271.301 511.216 270.646 510.816 271.388Z" fill="black"/>
<path d="M599.148 243.354C603.554 243.442 607.737 244.315 611.786 245.974C611.653 245.712 611.475 245.45 611.341 245.188C604.399 266.585 598.659 288.331 594.164 310.295C593.986 311.125 595.277 311.474 595.455 310.645C599.949 288.637 605.69 266.891 612.632 245.538C612.765 245.188 612.498 244.883 612.187 244.752C608.048 243.049 603.687 242.175 599.193 242.088C598.258 242.001 598.258 243.311 599.148 243.354Z" fill="black"/>
<path d="M396.895 277.764C385.459 292.654 373.978 307.501 362.497 322.304C333.127 360.206 303.579 397.934 273.853 435.575C275.9 435.924 278.97 436.754 282.263 438.675C285.2 440.378 287.292 442.387 288.538 443.828C331.302 389.55 374.067 335.229 416.876 280.951C410.201 279.86 403.57 278.812 396.895 277.764Z" fill="white" stroke="black" stroke-width="3" stroke-miterlimit="10"/>
<path d="M253.961 409.593C252.27 410.554 253.116 414.921 253.427 416.624C255.252 426.012 258.278 443.129 262.283 465.967C267.667 466.709 273.096 467.495 278.481 468.238C282.308 461.382 286.179 454.526 290.006 447.627C289.517 446.404 288.76 444.57 287.648 442.474C285.111 437.846 282.441 435.007 279.504 431.863C270.337 422.126 268.068 419.506 262.639 414.833C257.165 410.074 255.118 408.938 253.961 409.593Z" fill="white" stroke="black" stroke-width="3" stroke-miterlimit="10"/>
<path d="M255.652 413.916C261.882 420.597 264.241 430.117 267.267 438.413C270.738 447.845 274.164 457.234 277.635 466.666C277.902 467.452 279.193 467.102 278.926 466.316C275.277 456.36 271.628 446.404 267.979 436.405C265.042 428.37 262.639 419.418 256.631 412.956C256.053 412.344 255.074 413.261 255.652 413.916Z" fill="black"/>
<path d="M284.266 423.348C289.873 422.213 295.614 425.706 297.126 431.077C297.349 431.907 298.639 431.558 298.417 430.728C296.681 424.615 290.185 420.816 283.91 422.082C283.065 422.257 283.421 423.523 284.266 423.348Z" fill="black"/>
<path d="M294.011 411.253C299.396 410.423 304.647 414.135 305.67 419.375C305.848 420.204 307.139 419.855 306.961 419.025C305.804 413.043 299.752 409.026 293.655 409.986C292.81 410.117 293.166 411.384 294.011 411.253Z" fill="black"/>
<path d="M304.647 397.76C310.432 395.358 316.751 399.07 317.374 405.183C317.463 406.013 318.798 406.013 318.709 405.183C317.997 397.978 310.743 393.83 303.979 396.624C303.178 396.974 303.846 398.109 304.647 397.76Z" fill="black"/>
<path d="M312.969 386.668C316.173 385.664 319.288 385.271 322.002 387.629C324.049 389.419 324.939 391.996 325.339 394.616C325.473 395.445 326.764 395.096 326.63 394.266C326.185 391.166 324.939 388.109 322.269 386.188C319.243 383.961 316.039 384.354 312.613 385.402C311.812 385.664 312.168 386.93 312.969 386.668Z" fill="black"/>
<path d="M322.136 374.267C328.277 372.215 334.684 376.014 335.352 382.389C335.441 383.219 336.776 383.219 336.687 382.389C335.93 375.184 328.81 370.599 321.78 373.001C320.979 373.263 321.335 374.529 322.136 374.267Z" fill="black"/>
<path d="M332.816 361.123C338.867 359.595 344.608 363.394 345.542 369.42C345.676 370.25 346.966 369.9 346.833 369.071C345.809 362.302 339.179 358.154 332.459 359.857C331.658 360.075 332.015 361.342 332.816 361.123Z" fill="black"/>
<path d="M341.181 350.294C343.807 348.504 347.189 349.115 349.547 351.036C351.995 353.045 353.196 356.014 354.175 358.94C354.442 359.726 355.733 359.377 355.466 358.591C354.309 355.141 352.751 351.473 349.503 349.377C346.788 347.63 343.184 347.325 340.469 349.159C339.802 349.639 340.469 350.774 341.181 350.294Z" fill="black"/>
<path d="M350.304 339.858C352.751 338.373 355.777 339.465 358.136 340.644C360.717 341.954 362.319 344.137 362.897 346.888C363.075 347.718 364.366 347.368 364.188 346.539C363.476 343.22 361.34 340.687 358.225 339.246C355.51 337.98 352.351 337.063 349.592 338.722C348.924 339.159 349.592 340.294 350.304 339.858Z" fill="black"/>
<path d="M359.649 327.107C365.434 325.317 371.441 327.937 373.755 333.526C374.067 333.264 374.423 333.046 374.734 332.784C374.601 332.696 374.467 332.653 374.289 332.565C373.533 332.216 372.821 333.308 373.622 333.701C373.755 333.788 373.889 333.832 374.067 333.919C374.512 334.137 375.268 333.744 375.046 333.177C372.509 326.976 365.834 323.832 359.293 325.884C358.492 326.103 358.848 327.369 359.649 327.107Z" fill="black"/>
<path d="M369.216 314.531C375.624 313.265 381.409 317.806 381.676 324.181C381.721 325.011 383.056 325.011 383.011 324.181C382.7 316.889 376.158 311.867 368.86 313.265C368.015 313.439 368.371 314.706 369.216 314.531Z" fill="black"/>
<path d="M377.137 303.789C383.412 301.518 389.953 305.012 391.377 311.474C391.555 312.304 392.846 311.955 392.668 311.125C391.155 304.051 383.723 300.034 376.781 302.523C375.98 302.785 376.336 304.051 377.137 303.789Z" fill="black"/>
<path d="M385.414 294.619C391.6 292.567 397.83 296.06 399.12 302.348C399.298 303.178 400.589 302.828 400.411 301.999C398.987 295.056 391.867 291.082 385.058 293.353C384.257 293.615 384.613 294.881 385.414 294.619Z" fill="black"/>
<path d="M392.445 284.27C398.275 283.222 405.44 284.75 407.175 291.126C407.398 291.955 408.688 291.606 408.466 290.776C406.508 283.659 398.631 281.868 392.089 283.004C391.244 283.178 391.6 284.445 392.445 284.27Z" fill="black"/>
<path opacity="0.29" d="M407.531 279.423C391.911 300.121 376.203 320.732 360.361 341.255C335.396 373.612 310.12 405.751 284.622 437.671C277.813 427.584 270.782 421.34 265.665 417.453C265.042 417.017 256.275 410.423 255.163 411.558C254.317 412.432 258.189 417.322 261.393 421.165C265.665 431.645 269.803 442.605 273.764 453.959C275.41 458.718 277.012 463.478 278.525 468.15C283.687 458.194 288.805 448.238 293.967 438.326C302.822 426.929 316.172 409.768 325.072 398.371C355.644 359.158 386.215 319.989 416.876 280.864C413.716 280.427 410.646 279.947 407.531 279.423Z" fill="#828282"/>
<path d="M452.209 290.034C440.772 304.924 429.291 319.771 417.81 334.574C388.44 372.477 358.892 410.205 329.166 447.845C331.213 448.195 334.284 449.024 337.577 450.946C340.514 452.649 342.605 454.657 343.851 456.098C386.616 401.821 429.38 347.499 472.189 293.222C465.47 292.13 458.839 291.082 452.209 290.034Z" fill="white" stroke="black" stroke-width="3" stroke-miterlimit="10"/>
<path d="M309.23 421.864C307.539 422.824 308.385 427.191 308.696 428.894C310.521 438.282 313.547 455.4 317.552 478.237C322.936 478.98 328.365 479.766 333.75 480.508C337.577 473.652 341.448 466.797 345.275 459.897C344.786 458.675 344.029 456.841 342.917 454.745C340.38 450.116 337.71 447.278 334.773 444.134C325.606 434.396 323.337 431.776 317.908 427.104C312.434 422.3 310.387 421.209 309.23 421.864Z" fill="white" stroke="black" stroke-width="3" stroke-miterlimit="10"/>
<path d="M310.966 426.143C317.196 432.824 319.554 442.343 322.58 450.64C326.051 460.072 329.478 469.46 332.949 478.892C333.216 479.678 334.506 479.329 334.239 478.543C330.59 468.587 326.941 458.631 323.292 448.631C320.355 440.597 317.952 431.645 311.945 425.182C311.322 424.615 310.387 425.532 310.966 426.143Z" fill="black"/>
<path d="M339.535 435.619C345.142 434.483 350.882 437.977 352.395 443.348C352.618 444.177 353.908 443.828 353.686 442.998C351.95 436.885 345.453 433.086 339.179 434.352C338.333 434.527 338.689 435.75 339.535 435.619Z" fill="black"/>
<path d="M349.28 423.479C354.665 422.65 359.916 426.361 360.939 431.601C361.117 432.431 362.408 432.082 362.23 431.252C361.073 425.27 355.021 421.252 348.924 422.213C348.079 422.344 348.435 423.61 349.28 423.479Z" fill="black"/>
<path d="M359.916 410.03C365.701 407.628 372.02 411.34 372.643 417.453C372.732 418.283 374.067 418.283 373.978 417.453C373.266 410.248 366.012 406.1 359.248 408.895C358.447 409.244 359.115 410.379 359.916 410.03Z" fill="black"/>
<path d="M368.282 398.939C371.486 397.934 374.601 397.541 377.315 399.899C379.362 401.69 380.252 404.266 380.653 406.886C380.786 407.716 382.077 407.366 381.943 406.537C381.498 403.436 380.252 400.38 377.582 398.458C374.556 396.231 371.352 396.624 367.926 397.672C367.08 397.934 367.436 399.201 368.282 398.939Z" fill="black"/>
<path d="M377.404 386.494C383.545 384.441 389.953 388.24 390.621 394.616C390.71 395.445 392.045 395.445 391.956 394.616C391.199 387.411 384.079 382.826 377.048 385.227C376.247 385.533 376.603 386.799 377.404 386.494Z" fill="black"/>
<path d="M388.129 373.394C394.181 371.865 399.921 375.664 400.856 381.69C400.989 382.52 402.28 382.171 402.146 381.341C401.123 374.573 394.492 370.424 387.773 372.127C386.927 372.346 387.283 373.612 388.129 373.394Z" fill="black"/>
<path d="M396.45 362.564C399.076 360.774 402.458 361.385 404.816 363.307C407.264 365.315 408.465 368.285 409.444 371.21C409.711 371.996 411.002 371.647 410.735 370.861C409.578 367.411 408.02 363.743 404.772 361.647C402.057 359.901 398.453 359.595 395.738 361.429C395.071 361.909 395.738 363.045 396.45 362.564Z" fill="black"/>
<path d="M405.573 352.128C408.02 350.643 411.046 351.735 413.405 352.914C415.986 354.224 417.588 356.407 418.166 359.158C418.344 359.988 419.635 359.639 419.457 358.809C418.745 355.49 416.609 352.958 413.494 351.517C410.779 350.25 407.62 349.333 404.861 350.993C404.193 351.429 404.861 352.565 405.573 352.128Z" fill="black"/>
<path d="M414.918 339.377C420.703 337.587 426.71 340.207 429.024 345.796C429.336 345.534 429.692 345.316 430.003 345.054C429.87 344.967 429.736 344.923 429.558 344.836C428.802 344.486 428.09 345.578 428.891 345.971C429.024 346.058 429.158 346.102 429.336 346.189C429.781 346.408 430.537 346.015 430.315 345.447C427.778 339.246 421.103 336.102 414.562 338.155C413.761 338.373 414.117 339.639 414.918 339.377Z" fill="black"/>
<path d="M424.53 326.758C430.938 325.491 436.723 330.033 436.99 336.408C437.034 337.238 438.369 337.238 438.325 336.408C438.013 329.116 431.472 324.094 424.174 325.491C423.328 325.666 423.684 326.932 424.53 326.758Z" fill="black"/>
<path d="M432.406 316.016C438.681 313.745 445.222 317.238 446.646 323.701C446.824 324.531 448.115 324.181 447.937 323.352C446.424 316.278 438.992 312.26 432.05 314.749C431.249 315.055 431.605 316.321 432.406 316.016Z" fill="black"/>
<path d="M440.728 306.846C446.913 304.793 453.143 308.287 454.434 314.575C454.612 315.404 455.902 315.055 455.724 314.225C454.3 307.282 447.18 303.309 440.372 305.579C439.571 305.885 439.882 307.151 440.728 306.846Z" fill="black"/>
<path d="M447.714 296.54C453.544 295.492 460.708 297.021 462.444 303.396C462.666 304.226 463.957 303.876 463.734 303.047C461.776 295.929 453.9 294.139 447.358 295.274C446.513 295.405 446.869 296.671 447.714 296.54Z" fill="black"/>
<path opacity="0.29" d="M462.8 291.693C447.18 312.391 431.472 333.002 415.63 353.525C390.665 385.882 365.389 418.021 339.891 449.941C333.082 439.854 326.051 433.61 320.934 429.724C320.311 429.287 311.544 422.693 310.432 423.829C309.586 424.702 313.458 429.593 316.662 433.435C320.934 443.915 325.072 454.876 329.033 466.229C330.679 470.989 332.281 475.748 333.794 480.421C338.956 470.465 344.074 460.509 349.236 450.596C358.091 439.199 371.441 422.038 380.341 410.641C410.913 371.429 441.484 332.26 472.145 293.134C469.03 292.698 465.915 292.174 462.8 291.693Z" fill="#828282"/>
<path d="M377.36 169.82C373.666 174.536 369.261 180.867 365.256 188.858C363.965 191.435 359.871 199.775 356.756 211.39C354.976 217.984 353.241 226.63 352.707 236.935C357.735 237.678 362.764 238.376 367.792 239.119C369.083 229.818 371.486 218.552 375.891 206.238C379.407 196.413 383.456 187.985 387.372 180.998C384.035 177.287 380.697 173.575 377.36 169.82Z" fill="white" stroke="black" stroke-width="3" stroke-miterlimit="10"/>
<path d="M353.997 231.608C358.18 228.639 364.099 229.206 367.525 233.005C368.104 233.617 369.038 232.7 368.46 232.088C364.633 227.896 357.958 227.154 353.33 230.473C352.662 230.953 353.33 232.088 353.997 231.608Z" fill="black"/>
<path d="M354.798 222.22C359.204 217.373 367.125 219.032 368.994 225.32C369.216 226.106 370.507 225.8 370.284 224.971C368.104 217.766 358.981 215.67 353.864 221.303C353.285 221.914 354.22 222.831 354.798 222.22Z" fill="black"/>
<path d="M356.845 213.268C361.251 208.159 369.439 209.862 371.219 216.368C371.441 217.198 372.732 216.849 372.509 216.019C370.507 208.596 360.984 206.412 355.911 212.307C355.332 212.962 356.267 213.923 356.845 213.268Z" fill="black"/>
<path d="M359.382 205.233C361.34 202.875 364.588 202.089 367.481 203.137C370.418 204.185 372.42 206.762 373.711 209.425C374.067 210.168 375.224 209.513 374.868 208.77C373.355 205.583 370.818 202.657 367.258 201.696C364.054 200.823 360.539 201.74 358.447 204.316C357.913 204.928 358.848 205.888 359.382 205.233Z" fill="black"/>
<path d="M362.675 195.845C365.567 194.011 368.682 193.662 371.53 195.889C373.622 197.548 375.535 199.731 376.336 202.264C376.603 203.05 377.894 202.701 377.627 201.915C376.603 198.771 374.022 195.714 371.174 194.011C368.193 192.221 364.855 192.919 362.052 194.71C361.295 195.19 361.963 196.325 362.675 195.845Z" fill="black"/>
<path d="M366.902 187.417C369.928 186.282 372.954 185.671 375.58 188.029C377.315 189.601 379.184 191.959 379.674 194.273C380.03 194.055 380.43 193.836 380.786 193.618C380.653 193.531 380.519 193.4 380.386 193.312C379.718 192.788 378.784 193.705 379.451 194.229C379.585 194.317 379.718 194.448 379.852 194.535C380.386 194.928 381.098 194.579 380.964 193.88C380.341 191.085 377.983 188.029 375.669 186.369C372.776 184.273 369.661 184.972 366.546 186.107C365.745 186.457 366.101 187.723 366.902 187.417Z" fill="black"/>
<path d="M372.02 178.247C378.517 176.282 382.477 183.356 382.833 188.684C382.878 189.513 384.213 189.513 384.168 188.684C383.723 182.527 379.051 174.754 371.664 176.981C370.863 177.199 371.219 178.466 372.02 178.247Z" fill="black"/>
<path d="M471.388 178.378C471.388 178.378 478.642 223.049 478.909 224.883C479.22 226.761 475.26 293.658 475.26 293.658L497.688 272.96C494.172 235.756 490.657 198.509 487.141 161.305C481.935 167.025 476.639 172.702 471.388 178.378Z" fill="black" stroke="black" stroke-width="3" stroke-miterlimit="10"/>
<path d="M376.826 167.942L408.154 157.506L487.186 161.305L471.388 178.378L376.826 167.942Z" fill="white" stroke="black" stroke-width="3" stroke-miterlimit="10"/>
<path d="M376.826 167.942L392.534 226.412C391.644 244.315 390.799 262.262 389.909 280.165C418.344 284.663 446.824 289.161 475.26 293.702C476.595 271.388 477.885 249.118 479.22 226.805L471.388 178.422L376.826 167.942Z" fill="white" stroke="black" stroke-width="3" stroke-miterlimit="10"/>
<path d="M439.704 187.243C439.393 190.649 439.704 193.967 440.728 197.242C440.995 198.028 442.285 197.723 442.018 196.893C441.039 193.705 440.728 190.518 441.039 187.243C441.128 186.413 439.793 186.413 439.704 187.243Z" fill="black"/>
<path d="M440.639 187.723C446.379 187.985 452.12 188.378 457.86 188.946C458.706 189.033 458.706 187.723 457.86 187.636C452.12 187.068 446.424 186.631 440.639 186.413C439.793 186.369 439.793 187.679 440.639 187.723Z" fill="black"/>
<path d="M441.618 198.247C447.002 198.945 452.431 199.251 457.86 199.164C458.706 199.164 458.706 197.854 457.86 197.854C452.431 197.941 447.002 197.635 441.618 196.937C440.772 196.806 440.772 198.116 441.618 198.247Z" fill="black"/>
<path d="M457.326 189.12C458.617 191.915 458.75 194.928 457.771 197.854C457.504 198.64 458.795 198.989 459.062 198.203C460.13 194.928 459.907 191.609 458.483 188.465C458.127 187.679 456.97 188.334 457.326 189.12Z" fill="black"/>
<path d="M459.151 191.478C460.085 191.435 460.975 192.09 461.242 193.007C461.42 193.705 460.842 195.146 459.952 194.491C459.284 193.967 458.617 195.103 459.284 195.627C460.797 196.718 462.622 195.059 462.666 193.531C462.711 191.697 461.02 190.168 459.195 190.212C458.305 190.212 458.261 191.522 459.151 191.478Z" fill="black"/>
<path d="M442.419 190.168C442.33 192.046 442.552 193.88 443.042 195.714C443.264 196.544 444.555 196.194 444.332 195.365C443.887 193.662 443.709 191.959 443.754 190.168C443.798 189.295 442.463 189.295 442.419 190.168Z" fill="black"/>
<path d="M443.309 190.299C444.377 190.343 445.445 190.43 446.513 190.561C446.335 190.343 446.201 190.125 446.023 189.95C445.89 191.828 445.934 193.705 446.112 195.627C446.201 196.456 447.536 196.456 447.447 195.627C447.225 193.749 447.225 191.871 447.358 189.95C447.358 189.688 447.136 189.339 446.869 189.339C445.667 189.164 444.51 189.033 443.309 188.989C442.463 188.989 442.463 190.299 443.309 190.299Z" fill="black"/>
<path d="M443.798 196.282C444.777 196.413 445.756 196.413 446.735 196.238C447.581 196.063 447.225 194.797 446.379 194.972C445.667 195.103 444.911 195.146 444.154 195.015C443.798 194.972 443.442 195.103 443.353 195.452C443.264 195.758 443.442 196.238 443.798 196.282Z" fill="black"/>
<path d="M448.293 189.863C447.981 191.915 448.07 193.967 448.56 196.02C448.782 196.85 450.073 196.5 449.85 195.671C449.405 193.88 449.272 192.046 449.583 190.212C449.717 189.382 448.426 189.033 448.293 189.863Z" fill="black"/>
<path d="M449.094 190.343C449.984 190.561 450.918 190.78 451.808 190.998C451.63 190.78 451.497 190.561 451.319 190.387C451.452 192.133 451.586 193.88 451.764 195.583C451.853 196.413 453.188 196.413 453.099 195.583C452.965 193.836 452.832 192.09 452.654 190.387C452.609 190.081 452.476 189.819 452.164 189.775C451.274 189.557 450.34 189.339 449.45 189.12C448.604 188.902 448.248 190.168 449.094 190.343Z" fill="black"/>
<path d="M449.405 196.369C450.473 196.893 451.675 196.849 452.654 196.238C453.41 195.801 452.698 194.666 451.986 195.103C451.408 195.452 450.696 195.496 450.073 195.234C449.316 194.884 448.649 196.02 449.405 196.369Z" fill="black"/>
<path d="M453.366 190.256C453.232 191.871 453.143 193.618 453.544 195.19C453.855 196.544 455.235 196.456 456.392 196.194C457.237 195.976 456.881 194.71 456.036 194.928C455.68 195.015 455.368 195.059 455.012 195.059C454.79 195.146 454.701 195.015 454.79 194.666C454.656 194.229 454.656 193.662 454.656 193.181C454.612 192.221 454.612 191.26 454.701 190.256C454.79 189.426 453.455 189.426 453.366 190.256Z" fill="black"/>
<path d="M454.167 190.649C454.612 190.736 455.146 190.78 455.591 190.911C455.591 190.911 455.991 191.042 455.902 190.954C456.036 191.085 455.902 191.828 455.902 192.002C455.902 193.181 455.947 194.36 455.947 195.496C455.947 196.325 457.282 196.325 457.282 195.496C457.282 194.666 457.237 193.836 457.237 193.007C457.237 192.264 457.326 191.391 457.193 190.649C456.97 189.47 455.502 189.513 454.523 189.339C453.677 189.208 453.321 190.474 454.167 190.649Z" fill="black"/>
<path d="M382.566 176.239C387.461 191.522 391.822 206.98 395.738 222.569C395.961 223.399 397.251 223.049 397.029 222.22C393.113 206.674 388.752 191.216 383.857 175.889C383.59 175.103 382.299 175.453 382.566 176.239Z" fill="black"/>
<path d="M396.762 227.241C395.916 243.092 394.759 258.9 393.202 274.707C393.113 275.537 394.448 275.537 394.537 274.707C396.05 258.9 397.251 243.092 398.097 227.241C398.141 226.412 396.806 226.412 396.762 227.241Z" fill="black"/>
<path d="M394.136 276.017C419.679 278.506 445.044 282.48 470.098 287.894C470.943 288.069 471.299 286.803 470.454 286.628C445.267 281.213 419.768 277.24 394.136 274.707C393.291 274.62 393.291 275.93 394.136 276.017Z" fill="black"/>
<path d="M383.412 176.326C401.434 179.252 419.501 181.653 437.657 183.531C438.503 183.618 438.503 182.308 437.657 182.221C419.635 180.343 401.657 177.985 383.768 175.06C382.922 174.929 382.566 176.195 383.412 176.326Z" fill="black"/>
<path d="M398.141 272.611C398.052 272.349 397.919 272.043 397.83 271.781C397.83 271.912 397.83 272 397.83 272.131C398.008 271.65 398.764 271.738 398.809 272.218C398.898 272.698 398.23 272.829 398.052 272.48C397.652 271.738 396.495 272.393 396.895 273.135C397.34 273.877 398.319 274.183 399.12 273.877C400.01 273.528 400.366 272.524 400.055 271.694C399.699 270.777 398.764 270.34 397.83 270.602C397.385 270.733 397.029 270.995 396.762 271.388C396.584 271.607 396.495 271.869 396.539 272.174C396.584 272.436 396.762 272.742 396.851 273.004C397.162 273.746 398.453 273.397 398.141 272.611Z" fill="black"/>
<path d="M387.951 180.693C387.995 180.736 387.995 180.605 387.951 180.693C387.951 180.605 387.951 180.649 387.951 180.605C387.995 180.518 388.04 180.474 388.084 180.474C388.084 180.474 388.173 180.431 388.129 180.474C388.129 180.474 388.129 180.474 388.084 180.474C388.173 180.518 388.173 180.518 388.129 180.474C388.218 180.518 388.262 180.562 388.307 180.649C388.262 180.562 388.351 180.736 388.351 180.78C388.351 180.736 388.307 180.824 388.351 180.78C388.396 180.693 388.262 180.867 388.351 180.78C388.262 180.867 388.351 180.78 388.262 180.824C388.351 180.78 388.173 180.824 388.173 180.824C388.307 180.824 388.084 180.824 388.084 180.824C388.173 180.824 388.04 180.78 388.04 180.824C387.995 180.78 387.995 180.78 388.04 180.824C387.995 180.78 387.995 180.78 387.951 180.736C387.728 180.474 387.239 180.518 387.016 180.736C386.749 180.998 386.794 181.391 387.016 181.653C387.461 182.221 388.396 182.308 389.019 181.915C389.731 181.479 389.864 180.605 389.464 179.907C389.019 179.208 388.129 178.946 387.417 179.383C386.705 179.819 386.482 180.693 386.838 181.391C387.016 181.697 387.461 181.784 387.773 181.61C388.04 181.391 388.129 180.998 387.951 180.693Z" fill="black"/>
<path d="M469.519 208.246C470.943 213.923 472.234 219.6 473.391 225.32C473.569 226.15 474.859 225.8 474.681 224.971C473.524 219.25 472.234 213.574 470.81 207.897C470.632 207.067 469.341 207.417 469.519 208.246Z" fill="black"/>
<path d="M473.791 225.582C473.613 232.001 473.168 238.464 472.456 244.839C472.367 245.669 473.702 245.669 473.791 244.839C474.459 238.42 474.904 232.001 475.126 225.582C475.126 224.752 473.791 224.752 473.791 225.582Z" fill="black"/>
<path d="M325.74 209.469C326.141 209.556 329.345 210.124 331.792 207.941C333.216 206.674 333.661 205.146 333.839 204.491C334.685 205.452 335.619 206.412 336.776 207.373C342.161 211.827 347.278 211.085 352.262 213.399C355.021 214.665 358.715 217.329 361.919 223.442C363.877 222.132 366.814 220.342 370.685 218.857C378.695 215.757 384.792 216.15 389.731 215.626C395.783 215.015 404.105 212.569 413.939 204.535C415.541 215.801 416.921 227.547 418.033 239.774C419.991 261.913 420.747 282.829 420.658 302.261C388.975 271.301 357.335 240.385 325.74 209.469Z" fill="white" stroke="black" stroke-width="3" stroke-miterlimit="10"/>
<path d="M325.74 209.469C329.701 235.582 333.706 261.738 337.666 287.851C344.964 297.326 352.218 306.846 359.516 316.321C360.673 317.107 362.408 318.024 364.633 318.505C370.374 319.684 375.002 316.845 376.159 316.103C394.226 312.129 412.293 308.156 430.359 304.226C426.621 272.611 422.884 240.953 419.146 209.338C402.458 214.927 385.726 220.517 369.039 226.15C368.683 226.412 365.123 228.944 360.895 227.634C358.003 226.761 356.534 224.621 356.134 223.966C345.988 219.076 335.842 214.272 325.74 209.469Z" fill="#5222D0"/>
<path d="M354.888 227.896C356.623 256.061 358.937 284.226 361.83 312.304C361.919 313.134 363.254 313.134 363.165 312.304C360.272 284.226 357.958 256.061 356.223 227.896C356.178 227.067 354.843 227.023 354.888 227.896Z" fill="#6A6A6A"/>
<path d="M367.659 241.52C368.86 259.991 369.617 278.506 369.973 297.021C369.973 297.85 371.308 297.85 371.308 297.021C370.952 278.506 370.195 259.991 368.994 241.52C368.949 240.691 367.614 240.691 367.659 241.52Z" fill="#6A6A6A"/>
<path d="M381.943 234.01C382.121 235.975 382.3 237.896 382.478 239.861C382.567 240.865 382.522 242.044 382.922 243.005C383.99 245.494 387.194 244.009 389.108 243.485C395.738 241.695 402.28 239.73 408.376 236.586C409.133 236.193 408.465 235.058 407.709 235.451C403.036 237.852 398.052 239.555 392.979 241.04C391.822 241.389 390.665 241.695 389.508 242.001C388.485 242.263 387.105 242.961 386.037 242.918C382.967 242.83 383.456 236.018 383.278 233.966C383.189 233.18 381.854 233.18 381.943 234.01Z" fill="#6A6A6A"/>
<path d="M383.234 233.966C387.194 232.787 391.155 231.608 395.071 230.429C398.987 229.25 403.081 227.591 407.22 227.416C406.997 227.198 406.775 226.979 406.552 226.761C406.508 230.123 406.908 233.442 407.754 236.717C407.976 237.547 409.267 237.197 409.044 236.368C408.199 233.224 407.843 230.036 407.887 226.761C407.887 226.412 407.576 226.106 407.22 226.106C403.214 226.281 399.343 227.809 395.56 228.901C391.333 230.167 387.105 231.433 382.878 232.7C382.077 232.962 382.388 234.228 383.234 233.966Z" fill="#6A6A6A"/>
<path d="M329.077 245.625C329.033 246.236 328.944 247.241 329.211 250.428C329.255 251.171 329.433 252.874 329.834 256.28C330.19 258.943 330.323 260.297 330.635 261.869C331.035 263.921 331.436 265.581 331.747 266.716C330.679 267.851 330.724 269.511 331.614 270.297C332.326 270.952 333.527 271.083 334.284 270.559C334.729 270.253 334.996 269.685 335.085 267.764C335.263 264.096 334.373 263.616 334.818 261.345C335.129 259.729 335.663 259.293 335.53 257.852C335.485 257.59 335.441 257.066 334.64 255.232C333.26 251.957 332.815 252 332.682 250.778C332.548 249.468 333.038 249.293 332.904 247.197C332.86 245.974 332.637 245.101 332.593 244.883C332.281 243.616 331.391 241.084 330.546 241.127C329.522 241.215 329.122 245.232 329.077 245.625Z" fill="white"/>
<path d="M329.389 240.822C328.41 242.699 328.054 244.839 328.632 246.935C328.988 248.332 330.012 250.21 331.792 249.904C333.305 249.642 333.616 247.939 333.572 246.717C333.483 244.664 332.548 242.787 331.124 241.258C330.546 240.647 329.611 241.564 330.19 242.175C330.946 242.961 331.525 243.878 331.881 244.883C332.059 245.45 332.192 246.105 332.237 246.717C332.281 247.634 332.459 247.896 331.302 247.896C330.234 247.852 330.234 247.546 329.923 246.586C329.789 246.062 329.7 245.494 329.7 244.926C329.656 243.704 329.967 242.568 330.546 241.477C330.946 240.734 329.789 240.079 329.389 240.822Z" fill="black"/>
<path d="M328.722 246.586C328.277 249.642 328.544 252.612 329.79 255.45C330.546 257.197 331.881 259.511 334.017 259.86C335.619 260.122 336.376 259.118 336.153 257.677C335.708 254.577 333.439 252.044 332.949 248.9C332.816 248.07 331.525 248.42 331.659 249.249C331.881 250.647 332.326 251.913 332.905 253.179C333.172 253.791 335.975 258.725 333.394 258.201C331.837 257.895 330.635 254.14 330.324 253.005C329.745 250.996 329.701 248.944 330.012 246.891C330.146 246.105 328.855 245.756 328.722 246.586Z" fill="black"/>
<path d="M328.988 253.572C328.988 256.367 329.478 261.039 331.97 262.873C332.771 263.485 333.839 263.441 334.64 262.786C335.663 261.913 335.619 260.559 335.485 259.336C335.396 258.507 334.061 258.507 334.15 259.336C334.195 259.686 334.239 260.035 334.239 260.384C333.127 261.651 332.37 261.782 332.014 260.821C331.48 260.384 331.258 259.205 331.08 258.55C330.546 256.935 330.323 255.275 330.368 253.572C330.323 252.699 328.988 252.699 328.988 253.572Z" fill="black"/>
<path d="M330.056 258.201C329.745 260.428 329.878 262.655 330.59 264.795C331.035 266.192 331.836 268.725 333.483 269.205C336.998 270.209 335.975 263.616 335.619 262.044C335.441 261.214 334.15 261.563 334.328 262.393C334.595 263.616 334.729 264.838 334.684 266.061C334.684 266.498 334.64 266.934 334.506 267.415C334.017 267.327 333.527 267.24 333.038 267.153C332.548 266.803 332.281 265.668 332.103 265.144C331.258 262.917 331.08 260.603 331.391 258.245C331.525 257.371 330.19 257.371 330.056 258.201Z" fill="black"/>
<path d="M331.169 266.498C330.991 267.982 330.991 270.428 332.549 271.301C334.151 272.174 335.174 270.69 335.397 269.336C335.53 268.506 334.24 268.157 334.106 268.987C334.062 269.292 334.017 269.816 333.795 270.035C333.305 270.515 332.816 269.86 332.682 269.38C332.371 268.463 332.371 267.415 332.504 266.454C332.593 265.668 331.258 265.668 331.169 266.498Z" fill="black"/>
<path d="M440.327 268.725C439.749 267.196 438.859 265.144 437.657 262.699C437.168 261.738 436.011 259.424 434.275 256.629C431.16 251.651 429.825 250.909 428.846 250.559C428.668 250.516 426.132 249.642 425.242 250.647C423.818 252.262 427.823 257.546 428.268 258.157C427.066 258.376 425.197 258.725 422.928 259.074C414.918 260.297 411.714 260.122 406.062 261.127C399.832 262.218 397.029 261.956 396.45 263.572C395.961 264.882 397.162 266.323 397.296 266.541C398.675 268.201 401.479 268.681 404.193 267.502C405.751 267.415 407.308 267.371 408.866 267.284C408.688 268.375 408.554 269.947 408.999 271.781C409.355 273.266 409.8 273.441 410.824 275.886C412.025 278.812 411.803 279.423 412.782 280.777C413.894 282.305 415.274 283.091 415.986 283.44C419.323 285.274 422.883 284.619 429.692 283.746C432.05 283.44 435.833 282.96 440.639 282.48C440.55 277.895 440.416 273.31 440.327 268.725Z" fill="white"/>
<path d="M480.867 176.413C478.954 180.518 481.624 185.234 483.27 188.64C483.448 188.989 485.807 200.168 490.524 222.613C491.948 229.294 493.906 239.031 496.042 251.127C492.081 253.485 487.72 255.756 482.87 257.939C466.939 265.013 451.987 267.808 440.283 268.812C439.705 269.947 438.414 272.873 438.904 276.628C439.527 281.432 442.553 284.357 443.398 285.1C448.16 283.746 454.968 281.781 463.112 279.336C500.625 268.07 508.724 264.009 511.216 256.935C512.195 254.096 511.483 253.136 509.347 242.219C504.764 218.726 505.52 209.993 499.424 188.684C496.086 177.025 493.683 172.09 489.723 171.348C486.519 170.693 482.38 173.138 480.867 176.413Z" fill="white" stroke="black" stroke-width="3" stroke-miterlimit="10"/>
<path d="M447.492 268.157C446.157 273.222 447.225 278.55 450.429 282.698C450.963 283.353 452.12 282.698 451.586 282.043C448.56 278.113 447.536 273.266 448.782 268.506C449.005 267.72 447.714 267.371 447.492 268.157Z" fill="black"/>
<path d="M440.95 268.55C439.526 264.882 437.835 261.345 435.833 257.939C434.186 255.144 432.317 252.306 429.647 250.297C428.268 249.293 425.998 247.765 424.841 249.861C423.551 252.262 426.443 256.498 427.734 258.463C428.179 259.162 429.336 258.507 428.891 257.808C428.357 256.978 424.263 250.254 427.111 250.254C428.045 250.254 429.38 251.738 430.048 252.306C431.027 253.223 431.872 254.227 432.629 255.319C435.61 259.467 437.835 264.183 439.704 268.899C439.971 269.685 441.262 269.336 440.95 268.55Z" fill="black"/>
<path d="M427.69 258.201C422.172 258.376 416.654 258.856 411.136 259.642C408.421 260.035 405.751 260.515 403.037 261.039C400.99 261.476 398.142 261.651 396.362 262.83C395.427 263.485 394.804 264.62 395.249 265.755C395.872 267.153 398.053 267.458 399.388 267.72C404.594 268.681 410.201 268.244 415.452 268.332C416.298 268.332 416.298 267.022 415.452 267.022C411.447 266.978 407.442 266.978 403.437 266.803C402.191 266.76 400.945 266.672 399.699 266.454C399.21 266.367 397.83 266.279 397.43 265.886C394.893 263.397 401.346 262.699 402.458 262.48C410.735 260.734 419.146 259.773 427.556 259.511C428.535 259.467 428.535 258.157 427.69 258.201Z" fill="black"/>
<path d="M407.798 268.244C407.086 270.384 408.243 272.48 410.157 273.572C413.005 275.144 416.832 274.314 419.902 274.096C420.748 274.008 420.748 272.698 419.902 272.786C417.944 272.917 415.942 273.222 413.984 273.135C411.492 273.048 408.065 271.694 409.044 268.594C409.356 267.764 408.065 267.415 407.798 268.244Z" fill="black"/>
<path d="M409.178 273.441C409.801 278.637 415.586 278.899 419.724 278.331C420.57 278.2 420.214 276.934 419.368 277.065C416.209 277.502 411.002 277.633 410.513 273.441C410.424 272.611 409.089 272.611 409.178 273.441Z" fill="black"/>
<path d="M411.135 277.589C411.402 282.218 415.763 284.75 420.124 285.056C423.462 285.318 426.844 284.707 430.092 284.314C433.608 283.921 437.168 283.528 440.683 283.091C441.529 283.004 441.529 281.694 440.683 281.781C435.477 282.392 430.27 283.047 425.064 283.571C420.391 284.052 412.871 283.702 412.47 277.545C412.381 276.759 411.046 276.759 411.135 277.589Z" fill="black"/>
<path d="M458.172 267.153C457.727 271.607 458.661 275.93 460.886 279.86C461.287 280.602 462.444 279.947 462.043 279.205C459.952 275.449 459.106 271.432 459.507 267.153C459.596 266.279 458.261 266.323 458.172 267.153Z" fill="black"/>
<path d="M469.119 263.048C469.164 267.677 470.232 272.131 472.234 276.323C472.59 277.065 473.747 276.41 473.391 275.668C471.478 271.65 470.543 267.458 470.454 263.048C470.41 262.175 469.075 262.175 469.119 263.048Z" fill="black"/>
<path d="M478.375 260.166C479.932 264.271 481.178 268.463 482.113 272.742C482.291 273.572 483.581 273.222 483.403 272.393C482.469 268.113 481.223 263.921 479.665 259.817C479.398 259.031 478.108 259.38 478.375 260.166Z" fill="black"/>
<path d="M488.61 255.756C491.191 259.86 492.615 264.445 492.793 269.292C492.838 270.122 494.173 270.122 494.128 269.292C493.95 264.227 492.481 259.424 489.767 255.101C489.277 254.402 488.12 255.057 488.61 255.756Z" fill="black"/>
<path d="M496.131 252.219C498.712 252.175 501.026 253.005 503.117 254.446C504.141 255.144 505.075 255.974 505.965 256.804C506.41 257.24 506.855 257.721 507.3 258.201C508.057 259.031 507.968 258.769 509.036 259.162C508.235 258.856 507.879 260.122 508.68 260.428C508.769 260.472 508.813 260.472 508.902 260.515C509.125 260.603 509.392 260.515 509.57 260.341C510.059 259.817 509.97 259.424 509.659 258.856C508.724 257.284 506.9 255.712 505.476 254.533C502.806 252.306 499.646 250.821 496.131 250.865C495.241 250.909 495.241 252.219 496.131 252.219Z" fill="black"/>
<path d="M495.997 244.795C498.623 241.826 503.829 238.202 508.101 239.599C508.902 239.861 509.258 238.595 508.457 238.333C503.74 236.761 498 240.516 495.063 243.835C494.484 244.533 495.419 245.45 495.997 244.795Z" fill="black"/>
<path d="M494.261 235.975C496.575 231.084 502.36 230.778 507.166 230.691C508.012 230.691 508.012 229.381 507.166 229.381C501.915 229.468 495.641 230.036 493.149 235.32C492.748 236.106 493.905 236.761 494.261 235.975Z" fill="black"/>
<path d="M492.036 225.014C493.727 220.211 499.957 217.984 504.674 217.94C505.52 217.94 505.52 216.63 504.674 216.63C499.29 216.674 492.615 219.25 490.746 224.665C490.479 225.451 491.769 225.8 492.036 225.014Z" fill="black"/>
<path d="M489.767 213.399C490.435 210.823 492.615 209.163 494.707 207.548C497.243 205.583 499.691 204.142 502.984 204.098C503.829 204.098 503.829 202.788 502.984 202.788C499.602 202.832 497.021 204.185 494.351 206.15C491.903 207.984 489.322 209.949 488.477 213.006C488.254 213.836 489.545 214.185 489.767 213.399Z" fill="black"/>
<path d="M487.319 202.133C489.989 197.461 494.795 194.36 500.269 193.924C501.114 193.836 501.114 192.526 500.269 192.614C494.35 193.094 489.099 196.325 486.162 201.434C485.762 202.22 486.919 202.875 487.319 202.133Z" fill="black"/>
<path d="M485.539 191.129C486.919 189.339 488.61 187.898 490.613 186.806C491.547 186.282 492.571 185.889 493.594 185.583C494.039 185.452 494.484 185.321 494.929 185.234C495.241 185.147 495.552 185.103 495.864 185.103C496.442 185.147 496.843 184.885 496.976 184.273C496.353 184.841 497.288 185.758 497.911 185.19C497.955 185.147 498 185.103 498.044 185.059C498.222 184.885 498.267 184.623 498.222 184.404C498.222 184.317 498.178 184.273 498.178 184.186C498.133 183.968 497.911 183.793 497.733 183.749C495.508 183.269 492.615 184.361 490.613 185.321C488.12 186.5 486.118 188.247 484.427 190.387C483.848 191.129 485.005 191.784 485.539 191.129Z" fill="black"/>
<path opacity="0.28" d="M489.856 171.304C491.058 175.54 492.615 181.435 494.173 188.509C496.887 200.867 496.62 203.312 499.913 226.455C502.628 245.188 503.696 249.861 500.18 255.013C498.623 257.328 495.063 259.336 488.121 263.354C478.731 268.725 472.056 272.567 462.044 275.755C456.704 277.458 449.183 279.336 439.883 280.165C438.147 280.427 435.922 280.689 433.297 280.908C428.491 281.301 424.441 281.257 421.415 281.17C418.923 281.082 415.941 280.864 412.515 280.427C413.449 281.475 415.007 282.96 417.232 283.964C421.103 285.755 424.841 285.274 431.338 284.401C433.697 284.052 436.901 283.528 440.639 282.567C441.574 283.44 442.508 284.314 443.487 285.143C449.405 283.397 458.172 280.82 468.941 277.633C526.836 260.472 482.247 273.048 489.723 270.908C492.66 270.078 498.623 268.375 504.986 264.183C508.368 261.956 510.504 259.86 511.35 256.978C512.017 254.664 511.528 252.786 510.949 250.254C509.926 245.625 509.57 240.909 508.368 236.324C506.41 228.77 507.612 229.381 504.808 212.919C501.56 193.618 500.892 198.465 499.023 186.937C498.756 185.321 498.222 181.828 495.953 178.073C493.995 174.71 491.592 172.571 489.856 171.304Z" fill="#828282"/>
<path d="M421.593 150.781C422.349 152.921 423.195 155.148 424.085 157.418C425.553 161.13 427.111 164.667 428.713 167.986C430.626 167.636 432.94 167.069 435.432 166.108C437.39 165.322 439.037 164.492 440.416 163.663C439.393 158.117 438.369 152.615 437.346 147.069C432.095 148.292 426.844 149.515 421.593 150.781Z" fill="white" stroke="black" stroke-width="2" stroke-miterlimit="10"/>
<path d="M426.933 163.925C432.05 165.715 436.99 163.226 440.105 159.252C440.639 158.597 439.704 157.68 439.17 158.335C436.322 161.96 432.006 164.361 427.289 162.702C426.443 162.353 426.132 163.619 426.933 163.925Z" fill="black"/>
<path d="M424.619 159.209C429.825 159.951 436.411 160.388 439.304 155.06C439.704 154.318 438.547 153.663 438.147 154.405C435.566 159.165 429.603 158.597 424.975 157.942C424.129 157.811 423.773 159.078 424.619 159.209Z" fill="black"/>
<path d="M422.35 154.143C427.734 155.672 433.519 154.624 437.969 151.305C438.637 150.781 437.969 149.646 437.302 150.17C433.074 153.314 427.779 154.318 422.706 152.877C421.905 152.659 421.549 153.925 422.35 154.143Z" fill="black"/>
<path d="M448.471 98.7303H470.632L475.349 139.733L453.544 150.781L448.471 98.7303Z" fill="black" stroke="black" stroke-width="3" stroke-miterlimit="10"/>
<path d="M373.622 106.896L380.875 150.781H453.544L448.471 98.7303L373.622 106.896Z" fill="white" stroke="black" stroke-width="3" stroke-miterlimit="10"/>
<path d="M376.826 110.171L383.367 148.205H448.471L443.887 103.053L376.826 110.171Z" fill="white" stroke="black" stroke-width="3" stroke-miterlimit="10"/>
<path d="M394.091 129.504C394.921 129.033 394.897 127.467 394.037 126.005C393.177 124.543 391.806 123.739 390.976 124.209C390.146 124.68 390.171 126.246 391.031 127.708C391.891 129.17 393.261 129.974 394.091 129.504Z" fill="black" stroke="black" stroke-width="3" stroke-miterlimit="10"/>
<path d="M424.66 127.395C425.49 126.925 425.466 125.358 424.606 123.896C423.745 122.434 422.375 121.631 421.545 122.101C420.715 122.571 420.74 124.137 421.6 125.599C422.46 127.061 423.83 127.865 424.66 127.395Z" fill="black" stroke="black" stroke-width="3" stroke-miterlimit="10"/>
<path d="M404.683 134.275C405.795 135.76 406.997 137.201 408.243 138.554C408.599 138.947 409.222 138.685 409.355 138.249C409.978 136.415 410.735 134.624 411.625 132.921C411.981 132.179 410.868 131.48 410.468 132.266C409.578 134.1 408.777 135.978 408.065 137.943C408.421 137.856 408.821 137.768 409.177 137.637C407.976 136.371 406.863 135.017 405.795 133.62C405.306 132.965 404.149 133.62 404.683 134.275Z" fill="black"/>
</svg>
