<svg width="717" height="621" viewBox="0 0 717 621" fill="none" xmlns="http://www.w3.org/2000/svg">
<path d="M674.376 550.361C608.442 550.361 542.457 550.361 476.524 550.361C410.902 550.361 345.332 550.361 279.71 550.361C242.775 550.361 205.84 550.361 168.853 550.361C167.868 550.361 167.868 548.809 168.853 548.809C234.787 548.809 300.772 548.809 366.705 548.809C432.327 548.809 497.897 548.809 563.519 548.809C600.454 548.809 637.389 548.809 674.376 548.809C675.413 548.809 675.413 550.361 674.376 550.361Z" fill="#C7C7C7"/>
<path d="M561.34 561.488C512.681 561.488 463.971 561.488 415.312 561.488C401.513 561.488 387.714 561.488 373.864 561.488C372.878 561.488 372.878 559.935 373.864 559.935C422.522 559.935 471.233 559.935 519.892 559.935C533.691 559.935 547.489 559.935 561.34 559.935C562.326 559.935 562.326 561.488 561.34 561.488Z" fill="#C7C7C7"/>
<path d="M397.934 572.562C351.09 572.562 304.247 572.562 257.456 572.562C244.124 572.562 230.844 572.562 217.512 572.562C216.527 572.562 216.527 571.01 217.512 571.01C264.355 571.01 311.199 571.01 357.99 571.01C371.322 571.01 384.602 571.01 397.934 571.01C398.919 571.01 398.919 572.562 397.934 572.562Z" fill="#C7C7C7"/>
<path d="M666.179 563.816C646.467 563.816 626.754 563.816 607.042 563.816C606.056 563.816 606.056 562.264 607.042 562.264C626.754 562.264 646.467 562.264 666.179 562.264C667.217 562.264 667.217 563.816 666.179 563.816Z" fill="#C7C7C7"/>
<path d="M625.302 502.441C623.175 517.914 619.647 533.181 614.719 547.981C614.408 548.913 612.904 548.499 613.215 547.567C618.143 532.715 621.67 517.5 623.797 502.027C623.953 501.044 625.457 501.458 625.302 502.441Z" fill="#C7C7C7"/>
<path d="M624.679 503.062C606.212 509.841 585.929 510.565 566.994 505.132C566.009 504.873 566.424 503.372 567.409 503.631C586.084 509.013 606.004 508.237 624.264 501.561C625.198 501.199 625.613 502.699 624.679 503.062Z" fill="#C7C7C7"/>
<path d="M567.98 504.666C569.173 519.725 571.248 534.629 574.309 549.43C574.516 550.413 573.012 550.827 572.804 549.844C569.692 534.94 567.565 519.881 566.424 504.666C566.32 503.683 567.876 503.683 567.98 504.666Z" fill="#C7C7C7"/>
<path d="M624.161 502.855C622.397 502.286 620.374 503.062 618.61 503.321C616.639 503.579 614.667 503.735 612.696 503.786C611.711 503.786 611.711 502.234 612.696 502.234C615.186 502.182 617.624 501.975 620.062 501.509C621.619 501.251 623.019 500.837 624.576 501.354C625.509 501.665 625.146 503.165 624.161 502.855Z" fill="#C7C7C7"/>
<path d="M582.505 504.925C577.421 505.028 572.337 505.235 567.305 505.546C566.32 505.597 566.32 504.045 567.305 503.993C572.389 503.683 577.421 503.476 582.505 503.372C583.49 503.32 583.49 504.873 582.505 504.925Z" fill="#C7C7C7"/>
<path d="M617.935 504.097C615.809 504.615 613.682 505.132 611.607 505.598C610.621 505.857 610.206 504.356 611.192 504.097C613.319 503.579 615.445 503.062 617.52 502.596C618.506 502.389 618.921 503.89 617.935 504.097Z" fill="#C7C7C7"/>
<path d="M582.557 503.942C583.75 504.2 584.113 505.805 582.92 506.374C581.779 506.891 579.444 506.27 578.251 506.219C576.436 506.115 574.62 505.96 572.804 505.856C571.819 505.805 571.819 504.252 572.804 504.304C574.464 504.407 576.176 504.511 577.836 504.666C578.614 504.718 579.392 504.77 580.17 504.821C580.534 504.873 580.949 504.873 581.312 504.925C581.986 504.718 582.245 504.925 582.09 505.494C581.156 505.235 581.571 503.735 582.557 503.942Z" fill="#C7C7C7"/>
<path d="M616.898 539.442C614.719 543.323 611.814 546.739 608.287 549.482C607.508 550.103 606.419 549.016 607.197 548.395C610.621 545.704 613.422 542.495 615.549 538.666C616.016 537.734 617.365 538.562 616.898 539.442Z" fill="#C7C7C7"/>
<path d="M622.552 517.707C615.03 529.713 605.693 540.425 594.747 549.482C593.969 550.103 592.88 549.016 593.658 548.395C604.5 539.442 613.785 528.885 621.255 516.931C621.722 516.051 623.071 516.827 622.552 517.707Z" fill="#C7C7C7"/>
<path d="M619.647 504.252C614.667 513.05 609.48 521.847 602.58 529.299C595.318 537.113 586.551 543.737 578.044 550.051C577.214 550.672 576.487 549.275 577.265 548.705C585.721 542.444 594.332 535.923 601.491 528.212C608.287 520.864 613.37 512.118 618.299 503.476C618.817 502.596 620.166 503.372 619.647 504.252Z" fill="#C7C7C7"/>
<path d="M604.396 507.771C596.304 520.553 585.306 531.266 572.234 538.976C571.352 539.494 570.574 538.148 571.456 537.631C584.269 530.024 595.11 519.518 603.047 506.943C603.618 506.167 604.967 506.943 604.396 507.771Z" fill="#C7C7C7"/>
<path d="M586.759 508.703C582.401 515.068 577.162 520.76 571.092 525.521C570.314 526.142 569.225 525.056 570.003 524.435C575.969 519.725 581.156 514.188 585.41 507.926C585.98 507.098 587.329 507.875 586.759 508.703Z" fill="#C7C7C7"/>
<path d="M575.45 507.409C573.479 510.203 571.248 512.687 568.758 514.964C568.032 515.637 566.89 514.55 567.669 513.878C570.107 511.704 572.234 509.272 574.153 506.633C574.672 505.856 576.072 506.633 575.45 507.409Z" fill="#C7C7C7"/>
<path d="M279.14 509.065C277.428 522.727 274.834 536.285 271.203 549.585C270.944 550.568 269.439 550.154 269.699 549.171C273.278 536.027 275.872 522.623 277.584 509.065C277.739 508.082 279.295 508.082 279.14 509.065Z" fill="#C7C7C7"/>
<path d="M278.258 509.427C264.252 513.257 249.519 513.308 235.513 509.582C234.527 509.324 234.942 507.823 235.928 508.082C249.675 511.756 264.096 511.704 277.843 507.926C278.829 507.668 279.192 509.117 278.258 509.427Z" fill="#C7C7C7"/>
<path d="M236.291 509.065C237.173 522.83 239.819 536.337 244.228 549.378C244.539 550.31 243.035 550.724 242.724 549.792C238.314 536.596 235.617 522.934 234.735 509.065C234.683 508.082 236.239 508.082 236.291 509.065Z" fill="#C7C7C7"/>
<path d="M265.341 510.462C268.038 506.891 270.165 502.958 271.462 498.663C272.085 496.593 272.552 494.523 272.863 492.35C273.122 490.383 274.264 486.295 271.307 486.398C270.84 486.398 270.373 485.881 270.58 485.415C271.255 483.345 271.67 481.379 271.774 479.205C271.981 479.464 272.137 479.723 272.344 479.93C270.84 479.412 270.217 478.222 269.958 476.721C269.439 473.72 269.699 470.408 269.647 467.354C269.439 460.316 269.283 453.278 269.076 446.189C269.491 446.396 269.854 446.654 270.269 446.861C265.704 449.966 263.577 456.28 261.813 461.3C259.998 466.578 258.753 472.064 257.975 477.549C256.367 488.831 256.522 500.267 257.093 511.652C257.145 512.636 255.588 512.636 255.537 511.652C254.966 499.543 254.81 487.33 256.782 475.376C257.767 469.424 259.22 463.525 261.45 457.936C263.266 453.382 265.289 448.414 269.491 445.568C270.01 445.205 270.632 445.671 270.684 446.24C270.84 451.622 270.943 457.004 271.099 462.335C271.151 465.026 271.255 467.717 271.307 470.408C271.359 472.115 270.632 477.704 272.811 478.481C273.122 478.584 273.382 478.895 273.382 479.205C273.278 481.482 272.863 483.656 272.137 485.829C271.877 485.519 271.618 485.156 271.41 484.846C272.967 484.794 274.575 485.156 274.834 486.812C275.197 489.452 274.575 492.66 274.056 495.299C272.863 501.095 270.321 506.529 266.794 511.29C266.119 512.066 264.77 511.29 265.341 510.462Z" fill="#C7C7C7"/>
<path d="M256.315 475.22C254.966 470.563 253.41 465.957 251.802 461.403C252.165 461.558 252.58 461.714 252.943 461.869C252.424 462.179 251.905 462.542 251.335 462.852C250.972 463.059 250.505 462.904 250.245 462.593C246.51 456.383 242.775 450.225 239.04 444.015C239.507 443.86 240.026 443.756 240.493 443.601C238.262 466.475 241.893 489.659 251.023 510.824C251.438 511.756 250.09 512.532 249.675 511.601C240.441 490.228 236.706 466.785 238.936 443.601C238.988 442.877 239.974 442.514 240.389 443.187C244.124 449.397 247.859 455.555 251.594 461.765C251.231 461.662 250.868 461.558 250.505 461.507C251.023 461.196 251.542 460.834 252.113 460.523C252.58 460.265 253.098 460.523 253.254 460.989C254.914 465.543 256.418 470.149 257.767 474.806C258.079 475.738 256.574 476.152 256.315 475.22Z" fill="#C7C7C7"/>
<path d="M277.532 509.479C274.575 509.582 271.67 509.738 268.713 509.841C267.728 509.893 267.728 508.34 268.713 508.289C271.67 508.185 274.575 508.03 277.532 507.926C278.518 507.875 278.518 509.427 277.532 509.479Z" fill="#C7C7C7"/>
<path d="M270.321 509.789C269.335 510.203 268.298 510.566 267.26 510.721C266.275 510.876 265.86 509.375 266.845 509.22C267.779 509.065 268.713 508.806 269.543 508.444C270.477 508.081 271.255 509.375 270.321 509.789Z" fill="#C7C7C7"/>
<path d="M248.897 510.358C244.591 509.737 240.337 509.323 235.98 509.065C234.994 509.013 234.994 507.461 235.98 507.512C240.441 507.771 244.902 508.185 249.312 508.858C250.297 509.013 249.882 510.514 248.897 510.358Z" fill="#C7C7C7"/>
<path d="M249.415 511.083C247.133 510.721 244.798 510.514 242.464 510.307C241.478 510.255 241.478 508.703 242.464 508.754C244.954 508.91 247.392 509.22 249.83 509.582C250.816 509.738 250.401 511.187 249.415 511.083Z" fill="#C7C7C7"/>
<path d="M276.961 516.983C273.538 516.879 270.736 518.897 267.416 519.363C263.733 519.881 261.451 516.827 257.975 516.879C254.499 516.931 251.491 519.208 247.963 519.208C246.407 519.208 244.851 518.897 243.45 518.276C241.375 517.448 239.456 515.792 237.121 516.724C236.187 517.086 235.773 515.585 236.706 515.223C239.923 513.981 242.516 516.62 245.525 517.345C249.779 518.38 253.151 515.844 257.197 515.378C260.984 514.964 263.629 518.328 267.313 517.811C270.633 517.293 273.486 515.327 276.961 515.482C277.999 515.482 277.999 517.034 276.961 516.983Z" fill="#C7C7C7"/>
<path d="M276.287 525.159C263.733 530.127 249.675 530.282 237.017 525.573C236.083 525.211 236.498 523.71 237.432 524.072C249.882 528.678 263.525 528.523 275.872 523.658C276.805 523.296 277.22 524.797 276.287 525.159Z" fill="#C7C7C7"/>
<path d="M291.797 281.831C284.898 283.797 277.428 284.004 270.373 284.78C262.384 285.66 254.395 286.488 246.407 287.368C230.585 289.076 214.815 290.732 198.993 292.439C198.007 292.543 198.007 290.99 198.993 290.887C214.452 289.231 229.91 287.575 245.369 285.919C252.995 285.091 260.672 284.263 268.298 283.487C275.924 282.659 284.016 282.503 291.382 280.382C292.316 280.071 292.731 281.572 291.797 281.831Z" fill="black"/>
<path d="M180.837 257.974C185.92 269.514 191.886 280.64 198.682 291.301C199.2 292.129 197.852 292.905 197.333 292.077C190.537 281.416 184.572 270.29 179.488 258.75C179.073 257.87 180.422 257.094 180.837 257.974Z" fill="black"/>
<path d="M290.864 281.313C280.281 273.706 270.01 265.633 260.205 257.094C259.427 256.421 260.568 255.335 261.295 256.007C271.047 264.443 281.163 272.464 291.642 279.968C292.42 280.537 291.642 281.934 290.864 281.313Z" fill="black"/>
<path d="M260.413 256.887C247.237 255.335 233.905 256.37 220.677 257.042C207.241 257.715 193.754 258.388 180.318 259.061C179.332 259.112 179.332 257.56 180.318 257.508C193.754 256.835 207.241 256.163 220.677 255.49C233.905 254.817 247.237 253.782 260.413 255.335C261.399 255.438 261.399 256.991 260.413 256.887Z" fill="black"/>
<path d="M243.502 266.72C244.332 268.117 245.214 269.462 246.044 270.86C246.355 271.325 245.94 272.05 245.369 272.05C243.502 271.998 241.634 271.998 239.767 272.257C238.729 272.36 236.965 273.085 235.876 272.723C234.216 272.153 233.075 269.1 232.4 267.755C231.934 266.875 233.282 266.099 233.749 266.978C234.216 267.858 234.683 268.996 235.305 269.773C236.395 271.066 237.432 271.066 238.989 270.808C241.115 270.497 243.242 270.446 245.369 270.497C245.162 270.911 244.902 271.274 244.695 271.688C243.865 270.29 242.983 268.945 242.153 267.548C241.634 266.668 242.983 265.892 243.502 266.72Z" fill="black"/>
<path d="M242.464 267.496C239.455 266.72 236.55 266.72 233.645 267.962C232.712 268.376 231.933 267.03 232.867 266.616C236.187 265.167 239.455 265.064 242.931 265.995C243.865 266.254 243.45 267.755 242.464 267.496Z" fill="black"/>
<path d="M266.431 268.686C263.681 268.583 261.036 268.841 258.39 269.514C257.404 269.773 256.989 268.272 257.975 268.013C260.776 267.341 263.577 267.03 266.431 267.134C267.416 267.185 267.416 268.738 266.431 268.686Z" fill="black"/>
<path d="M266.119 268.013C264.459 266.202 262.696 264.494 260.88 262.838C260.154 262.166 261.243 261.079 261.969 261.752C263.785 263.408 265.497 265.167 267.209 266.927C267.883 267.651 266.794 268.79 266.119 268.013Z" fill="black"/>
<path d="M261.917 262.89C259.635 264.029 256.678 263.718 254.136 263.77C253.15 263.822 253.15 262.269 254.136 262.217C256.263 262.166 259.168 262.528 261.139 261.545C262.021 261.131 262.799 262.424 261.917 262.89Z" fill="black"/>
<path d="M255.277 262.787C256.522 264.494 257.767 266.254 258.908 268.065C259.427 268.893 258.078 269.669 257.56 268.841C256.418 267.03 255.225 265.271 253.928 263.563C253.358 262.735 254.707 261.959 255.277 262.787Z" fill="black"/>
<path d="M284.587 328.664C280.719 328.664 277.584 325.536 277.584 321.678C277.584 317.819 280.719 314.692 284.587 314.692C288.455 314.692 291.59 317.819 291.59 321.678C291.59 325.536 288.455 328.664 284.587 328.664Z" fill="#FFD600"/>
<path d="M270.736 313.346C268.702 313.346 267.053 311.701 267.053 309.672C267.053 307.643 268.702 305.998 270.736 305.998C272.77 305.998 274.419 307.643 274.419 309.672C274.419 311.701 272.77 313.346 270.736 313.346Z" fill="#FFD600"/>
<path d="M345.903 69.3448C340.918 69.3448 336.877 65.3134 336.877 60.3403C336.877 55.3673 340.918 51.3358 345.903 51.3358C350.888 51.3358 354.929 55.3673 354.929 60.3403C354.929 65.3134 350.888 69.3448 345.903 69.3448Z" fill="#161616"/>
<path d="M619.492 293.836C616.77 293.836 614.564 291.635 614.564 288.92C614.564 286.205 616.77 284.004 619.492 284.004C622.213 284.004 624.42 286.205 624.42 288.92C624.42 291.635 622.213 293.836 619.492 293.836Z" fill="#161616"/>
<path d="M613.059 283.9C610.137 283.9 607.768 281.537 607.768 278.622C607.768 275.707 610.137 273.344 613.059 273.344C615.981 273.344 618.35 275.707 618.35 278.622C618.35 281.537 615.981 283.9 613.059 283.9Z" fill="#FFD600"/>
<path d="M354.566 67.0678C350.211 67.0678 346.681 63.5461 346.681 59.2018C346.681 54.8575 350.211 51.3358 354.566 51.3358C358.921 51.3358 362.451 54.8575 362.451 59.2018C362.451 63.5461 358.921 67.0678 354.566 67.0678Z" fill="#EC615B"/>
<path d="M327.072 178.434C326.968 177.347 326.45 176.881 325.568 176.933C325.101 176.83 324.582 176.778 324.115 176.881C323.545 176.881 322.974 176.985 322.455 176.881C321.625 176.726 320.899 176.467 320.328 175.846C319.758 175.174 319.654 174.346 319.498 173.518C319.032 170.775 317.06 171.706 315.245 172.172C313.222 172.69 311.562 172.224 310.213 170.62C309.487 169.74 309.02 168.653 308.501 167.618C307.878 166.376 304.87 162.547 303.832 165.652C303.521 166.583 302.017 166.169 302.328 165.238C303.158 162.805 306.115 162.547 307.93 164.099C309.538 165.496 309.953 167.67 311.198 169.274C313.325 172.12 315.556 169.74 318.253 169.843C319.343 169.895 320.173 170.464 320.64 171.448C321.366 172.948 320.588 173.621 322.248 174.656C323.752 175.639 324.167 175.07 325.775 175.277C327.85 175.588 330.029 178.175 327.798 179.728C327.072 180.349 326.294 179.003 327.072 178.434Z" fill="#FFD600"/>
<path d="M320.173 182.729C321.003 181.643 320.692 181.073 319.291 180.918C318.461 180.245 317.527 180.142 316.542 180.556C316.075 180.608 315.556 180.711 315.089 180.763C313.896 180.866 312.962 180.659 311.925 180.194C311.51 179.987 311.458 179.469 311.665 179.107C313.481 175.433 307.827 174.812 305.907 174.708C304.299 174.656 302.691 174.708 301.135 174.139C299.163 173.363 297.815 171.965 297.607 169.844C297.503 168.86 299.06 168.86 299.163 169.844C299.63 174.863 307.93 172.328 310.939 174.191C313.014 175.433 314.052 177.71 312.962 179.935C312.858 179.573 312.755 179.21 312.703 178.848C315.348 180.09 319.291 177.399 321.522 180.038C322.611 181.332 322.455 183.195 321.003 184.127C320.069 184.592 319.291 183.247 320.173 182.729Z" fill="#FFD600"/>
<path d="M509.569 83.6278C510.762 79.0738 505.211 75.2961 501.735 79.0221C498.26 82.7481 502.462 87.9748 506.923 86.4741C507.857 86.1636 508.272 87.6643 507.338 87.9748C501.32 89.9931 496.133 82.6963 500.646 77.9353C505.159 73.1226 512.681 77.9871 511.073 84.0418C510.814 85.0251 509.309 84.6111 509.569 83.6278Z" fill="#161616"/>
<path d="M508.427 458.97C504.277 465.957 496.444 470.097 488.3 469.527C487.314 469.476 487.314 467.923 488.3 467.975C495.925 468.492 503.188 464.715 507.078 458.194C507.597 457.315 508.946 458.091 508.427 458.97Z" fill="#161616"/>
<path d="M511.592 467.872C506.145 473.461 498.934 476.721 491.101 477.083C490.115 477.135 490.115 475.582 491.101 475.531C498.519 475.168 505.315 472.063 510.502 466.733C511.177 466.06 512.318 467.199 511.592 467.872Z" fill="#161616"/>
<path d="M594.851 60.1851C590.597 60.5991 586.966 63.1866 585.047 66.9644C584.58 67.8441 583.231 67.0679 583.698 66.1881C585.877 61.8929 590.027 59.0984 594.851 58.6326C595.837 58.5291 595.837 60.0816 594.851 60.1851Z" fill="#161616"/>
<path d="M594.436 45.1776C587.381 48.5413 581.83 54.2856 578.822 61.4788C578.459 62.4103 576.954 61.9963 577.317 61.0648C580.482 53.4576 586.24 47.3511 593.658 43.8321C594.54 43.4181 595.318 44.7636 594.436 45.1776Z" fill="#161616"/>
<path d="M577.68 43.3146C574.464 46.9371 572.856 51.3876 572.908 56.2521C572.908 57.2354 571.352 57.2354 571.352 56.2521C571.3 51.0254 573.115 46.1609 576.591 42.2279C577.213 41.4516 578.303 42.5384 577.68 43.3146Z" fill="#161616"/>
<path d="M340.871 479.05C341.545 474.444 336.358 470.149 332.467 473.875C328.888 477.29 333.297 482.827 337.292 480.24C338.122 479.671 338.9 481.016 338.07 481.585C332.83 485.001 326.761 478.015 330.911 473.254C335.735 467.665 343.257 473.15 342.375 479.515C342.22 480.447 340.715 480.033 340.871 479.05Z" fill="#FFD600"/>
<path d="M334.49 454.675C335.32 452.036 331.896 449.914 330.185 452.295C328.628 454.468 331.222 457.004 333.453 455.866C334.335 455.4 335.113 456.745 334.231 457.211C330.444 459.178 326.294 454.727 329.043 451.26C331.845 447.689 337.291 450.898 335.995 455.089C335.683 456.021 334.179 455.659 334.49 454.675Z" fill="#FFD600"/>
<path d="M417.698 475.065C419.358 475.168 420.551 475.996 422.885 477.652C425.583 479.567 428.851 482.362 431.963 486.398C430.77 491.625 428.955 497.628 426.101 503.89C418.268 521.174 406.648 532.352 398.815 538.562C397.726 537.269 396.221 535.199 395.547 532.404C394.613 528.523 395.651 525.314 396.221 523.658C398.141 517.5 399.438 511.135 401.098 504.873C404.573 491.884 402.81 490.435 406.285 484.432C407.375 482.62 412.043 474.651 417.698 475.065Z" fill="#161616"/>
<path d="M380.348 328.561C378.48 332.287 376.25 337.307 374.175 343.465C369.091 358.628 368.468 371.099 368.313 375.239C368.157 380.414 368.053 395.577 374.175 413.793C381.126 434.441 392.227 447.741 399.541 456.228C406.752 464.663 413.703 470.873 418.735 475.013C418.735 476.255 418.528 478.584 417.127 480.861C413.755 486.14 406.856 486.036 406.389 486.036C402.187 483.086 397 479.102 391.449 474.03C381.904 465.336 375.731 457.522 373.241 454.262C369.039 448.776 361.465 438.633 355.396 423.47C348.808 407.066 346.992 392.213 346.629 381.967C346.214 370.841 347.459 362.975 349.223 351.848C352.076 333.581 355.707 326.18 358.301 321.73C360.687 317.693 363.073 314.64 364.785 312.674C369.973 317.952 375.16 323.231 380.348 328.561Z" fill="white"/>
<path d="M380.815 330.683C370.388 350.503 366.601 373.687 370.284 395.784C373.656 415.967 383.149 434.7 395.806 450.639C402.81 459.437 410.746 467.406 419.358 474.599C420.136 475.22 418.995 476.359 418.268 475.686C402.395 462.335 388.544 446.292 379.206 427.766C369.454 408.359 365.408 386.676 368.261 365.096C369.869 352.832 373.656 340.877 379.414 329.906C379.933 329.027 381.281 329.803 380.815 330.683Z" fill="#161616"/>
<path d="M362.088 316.4C350.364 338.238 345.643 363.544 347.978 388.177C350.364 413.534 360.532 437.081 376.613 456.746C385.535 467.665 395.858 477.29 406.96 485.984C407.738 486.605 406.648 487.692 405.87 487.071C385.743 471.287 367.742 451.933 357.056 428.49C346.733 405.875 343.672 380.207 347.407 355.73C349.586 341.705 354.047 328.095 360.739 315.623C361.206 314.744 362.555 315.52 362.088 316.4Z" fill="#161616"/>
<path d="M419.773 475.013C418.891 482 413.133 489.555 405.3 486.554C404.366 486.191 404.781 484.691 405.715 485.053C412.562 487.692 417.438 481.068 418.216 475.013C418.32 474.03 419.876 474.03 419.773 475.013Z" fill="#161616"/>
<path d="M420.24 474.858C425.22 477.446 429.318 481.12 432.534 485.674C433.105 486.502 431.756 487.278 431.185 486.45C428.125 482.103 424.13 478.636 419.461 476.204C418.58 475.738 419.358 474.392 420.24 474.858Z" fill="#161616"/>
<path d="M432.378 487.071C427.606 507.357 416.141 525.832 399.645 538.718C398.867 539.339 397.778 538.252 398.556 537.631C414.845 524.9 426.153 506.736 430.874 486.657C431.133 485.674 432.638 486.088 432.378 487.071Z" fill="#161616"/>
<path d="M406.648 486.761C404.366 495.351 402.031 503.89 399.749 512.48C397.622 520.294 393.212 530.903 399.334 537.993C400.008 538.769 398.867 539.856 398.244 539.08C392.538 532.456 395.132 523.555 397.155 515.999C399.801 506.115 402.498 496.231 405.144 486.347C405.403 485.363 406.907 485.777 406.648 486.761Z" fill="#161616"/>
<path d="M374.382 341.498C370.336 334.719 362.866 330.683 354.981 330.993C353.995 331.045 353.995 329.492 354.981 329.441C363.436 329.13 371.425 333.477 375.731 340.722C376.249 341.55 374.901 342.326 374.382 341.498Z" fill="#161616"/>
<path d="M368.572 363.854C365.252 359.818 360.791 357.334 355.655 356.506C354.67 356.351 355.085 354.85 356.07 355.005C361.465 355.833 366.238 358.576 369.661 362.768C370.284 363.544 369.195 364.631 368.572 363.854Z" fill="#161616"/>
<path d="M366.082 348.226C361.932 344.759 356.797 343.051 351.453 343.258C350.468 343.31 350.468 341.757 351.453 341.705C357.263 341.498 362.762 343.413 367.223 347.139C367.95 347.76 366.86 348.847 366.082 348.226Z" fill="#161616"/>
<path d="M368.001 393.248C365.823 390.506 361.932 390.557 358.716 390.661C354.825 390.816 350.001 392.162 349.43 396.716C349.326 397.699 347.77 397.699 347.874 396.716C348.445 392.265 352.283 389.885 356.433 389.315C360.48 388.746 366.29 388.643 369.091 392.213C369.713 392.938 368.624 394.076 368.001 393.248Z" fill="#161616"/>
<path d="M409.657 466.785C409.294 472.788 406.337 480.602 399.438 481.379C398.452 481.482 398.452 479.93 399.438 479.826C405.351 479.153 407.79 471.857 408.101 466.785C408.153 465.802 409.709 465.802 409.657 466.785Z" fill="#161616"/>
<path d="M399.282 456.176C398.348 460.73 395.806 464.56 392.02 467.303C391.19 467.872 390.411 466.526 391.241 465.957C394.665 463.473 396.896 459.902 397.778 455.762C397.985 454.779 399.489 455.193 399.282 456.176Z" fill="#161616"/>
<path d="M390.463 455.659C388.025 458.764 385.276 461.921 381.23 462.697C380.244 462.904 379.829 461.403 380.815 461.196C384.601 460.472 387.091 457.418 389.374 454.52C389.996 453.744 391.086 454.883 390.463 455.659Z" fill="#161616"/>
<path d="M378.688 425.903C371.996 425.644 365.667 427.973 360.687 432.475C359.961 433.148 358.819 432.061 359.598 431.388C364.837 426.627 371.581 424.091 378.688 424.402C379.673 424.402 379.673 425.954 378.688 425.903Z" fill="#161616"/>
<path d="M368.728 411.671C364.837 411.309 361.154 412.344 358.041 414.776C357.263 415.397 356.174 414.311 356.952 413.69C360.324 410.999 364.422 409.757 368.728 410.119C369.713 410.171 369.713 411.723 368.728 411.671Z" fill="#161616"/>
<path opacity="0.13" d="M365.667 320.488C363.488 327.164 360.843 336.582 358.923 348.122C357.004 359.766 354.462 374.825 357.056 392.938C359.598 410.843 365.926 423.47 370.543 432.527C382.682 456.332 399.126 473.357 413.236 484.846C415.363 481.482 417.49 478.118 419.617 474.755C415.519 472.167 409.761 468.079 403.899 462.076C398.296 456.332 394.976 451.312 390.048 443.756C383.823 434.234 380.555 429.215 377.339 422.073C369.298 404.271 368.468 388.436 368.364 384.347C367.898 371.306 370.284 361.267 372.878 350.348C374.745 342.482 376.82 336.013 378.48 331.304C374.123 327.733 369.869 324.11 365.667 320.488Z" fill="#666666"/>
<path opacity="0.13" d="M369.765 330.993C368.676 333.839 367.223 337.928 366.03 342.947C364.059 351.124 363.229 359.3 363.385 369.081C363.696 387.556 364.007 404.582 370.855 422.487C382.526 452.864 407.011 469.942 418.787 477.032C413.288 471.184 405.715 462.749 397.466 451.985C387.403 438.995 382.423 432.475 378.376 424.35C364.474 396.405 368.157 368.822 369.402 361.215C371.218 350.037 374.538 341.136 377.287 335.081C374.745 333.736 372.255 332.339 369.765 330.993Z" fill="#666666"/>
<path d="M451.157 341.188C453.336 343.672 453.232 346.518 454.062 357.386C455.255 373.118 455.722 369.857 456.345 380.414C458.316 414.362 455.359 444.274 455.359 444.274C454.477 453.485 451.313 481.844 442.702 511.394C438.24 526.66 430.667 547.722 430.355 548.654C428.125 554.864 426.205 560.039 424.857 563.558C424.545 563.765 416.608 568.215 410.902 564.541C410.02 563.972 407.582 562.367 407.012 559.366C406.545 556.882 407.582 554.864 407.997 554.191C409.709 549.016 412.199 541.305 414.845 531.835C419.254 515.999 425.687 492.246 428.177 461.507C429.11 449.759 429.11 441.376 429.162 427.145C429.162 413.534 429.162 398.32 427.191 378.862C426.257 369.547 424.649 356.92 421.692 341.912C429.007 339.17 445.088 334.357 451.157 341.188Z" fill="white"/>
<path d="M425.012 564.592C424.234 566.611 423.352 569.405 423.093 572.821C422.833 575.46 422.989 577.789 423.248 579.6C418.891 582.032 415.208 583.378 412.562 584.102C410.902 584.568 409.138 584.982 406.078 585.706C402.55 586.534 399.853 587.104 398.815 587.311C387.922 589.588 382.423 590.726 375.99 591.192C373.397 591.399 369.506 591.554 364.682 591.347C363.748 589.846 361.88 586.379 363.073 583.119C364.007 580.531 366.342 579.289 370.543 577.168C379.31 572.665 383.72 570.44 383.823 570.388C389.218 568.267 396.844 564.385 406.337 556.675C407.115 558.072 409.242 561.229 413.288 563.299C418.528 565.99 423.612 564.903 425.012 564.592Z" fill="#161616"/>
<path d="M454.581 353.608C461.895 409.291 457.278 466.371 441.249 520.139C436.736 535.199 431.341 549.999 425.116 564.437C424.701 565.369 423.404 564.541 423.767 563.661C445.97 512.273 457.071 456.332 456.397 400.39C456.189 384.761 455.048 369.081 453.025 353.608C452.921 352.625 454.477 352.676 454.581 353.608Z" fill="#161616"/>
<path d="M426.257 358.99C431.756 410.378 431.704 462.956 420.499 513.619C417.335 527.85 413.289 541.823 408.361 555.485C407.997 556.416 406.493 556.002 406.856 555.071C424.545 506.426 429.837 454.21 427.917 402.719C427.399 388.125 426.257 373.532 424.701 358.99C424.597 357.955 426.154 357.955 426.257 358.99Z" fill="#161616"/>
<path d="M424.39 564.748C417.386 566.87 409.553 563.351 406.545 556.623C406.13 555.743 407.478 554.915 407.893 555.847C410.591 561.902 417.594 565.162 423.975 563.247C424.908 562.937 425.323 564.437 424.39 564.748Z" fill="#161616"/>
<path d="M425.427 564.592C424.234 568.836 423.663 573.183 423.767 577.582C423.767 578.565 422.211 578.565 422.211 577.582C422.107 573.028 422.678 568.577 423.923 564.178C424.182 563.195 425.687 563.609 425.427 564.592Z" fill="#161616"/>
<path d="M423.715 579.134C416.453 584.827 406.441 585.81 397.674 587.673C387.143 589.898 376.353 592.952 365.512 592.279C364.526 592.227 364.526 590.675 365.512 590.726C375.887 591.347 386.158 588.501 396.273 586.379C404.988 584.568 415.415 583.74 422.626 578.048C423.404 577.427 424.493 578.513 423.715 579.134Z" fill="#161616"/>
<path d="M406.648 556.985C399.801 563.195 391.708 567.594 383.46 571.682C379.258 573.752 375.057 575.719 370.907 577.841C368.832 578.876 366.601 579.962 365.097 581.774C362.762 584.62 364.059 588.191 365.356 591.244C365.719 592.175 364.422 592.952 364.007 592.02C362.399 588.191 360.998 583.895 364.163 580.48C367.379 576.909 372.93 575.098 377.183 573.028C387.143 568.215 397.259 563.351 405.559 555.899C406.285 555.226 407.375 556.313 406.648 556.985Z" fill="#161616"/>
<path d="M456.448 381.398C447.733 385.9 437.67 386.883 428.228 384.14C427.295 383.882 427.658 382.381 428.643 382.64C437.67 385.279 447.318 384.399 455.67 380.052C456.552 379.586 457.33 380.932 456.448 381.398Z" fill="#161616"/>
<path d="M457.071 397.285C451.624 399.717 445.866 400.649 439.9 399.924C438.915 399.821 438.915 398.268 439.9 398.372C445.503 399.096 451.105 398.268 456.293 395.939C457.175 395.526 457.953 396.871 457.071 397.285Z" fill="#161616"/>
<path d="M456.76 432.837C452.817 435.528 448.097 436.201 443.376 435.683C438.603 435.166 432.741 434.079 428.643 431.543C427.813 431.026 428.591 429.68 429.421 430.198C433.26 432.578 438.915 433.613 443.376 434.131C447.785 434.648 452.247 434.027 455.982 431.491C456.812 430.922 457.59 432.268 456.76 432.837Z" fill="#161616"/>
<path d="M453.907 455.4C445.399 458.815 435.75 458.039 427.866 453.33C426.984 452.812 427.762 451.467 428.644 451.984C436.217 456.487 445.347 457.159 453.492 453.899C454.425 453.537 454.789 455.038 453.907 455.4Z" fill="#161616"/>
<path d="M445.97 498.094C437.929 500.94 430.096 497.318 423.3 493.178C422.47 492.66 423.249 491.315 424.079 491.832C430.563 495.765 437.929 499.284 445.555 496.593C446.489 496.283 446.904 497.783 445.97 498.094Z" fill="#161616"/>
<path d="M419.462 518.949C422.055 521.795 425.272 523.71 428.955 524.641C429.94 524.9 429.525 526.401 428.54 526.142C424.545 525.159 421.07 523.089 418.32 520.087C417.698 519.311 418.787 518.224 419.462 518.949Z" fill="#161616"/>
<path d="M432.327 544.513C428.955 543.996 425.79 542.909 422.833 541.253C421.952 540.736 422.73 539.442 423.612 539.908C426.465 541.512 429.473 542.547 432.69 543.013C433.727 543.168 433.312 544.669 432.327 544.513Z" fill="#161616"/>
<path opacity="0.11" d="M434.557 348.536C436.581 355.574 439.071 365.821 440.523 378.396C442.598 396.301 441.509 409.705 440.16 425.074C435.387 478.015 432.897 504.873 427.036 522.209C421.433 538.769 414.897 551.603 410.176 559.935C410.384 560.194 414.845 565.524 420.655 564.437C422.73 564.023 424.234 562.988 425.168 562.212C429.266 552.949 434.661 539.701 439.797 523.348C444.051 509.789 456.916 466.216 457.382 406.807C457.486 392.161 456.916 372.652 454.011 349.675C447.526 349.261 441.042 348.898 434.557 348.536Z" fill="#666666"/>
<path opacity="0.11" d="M454.01 361.991C453.284 390.04 451.209 413.638 449.134 431.491C445.607 462.438 443.013 483.759 434.505 510.669C427.658 532.404 419.462 549.637 413.185 561.487C416.92 562.108 420.655 562.729 424.442 563.35C428.021 555.743 431.393 547.774 434.557 539.442C459.302 474.082 460.08 411.257 454.01 361.991Z" fill="#666666"/>
<path d="M349.742 197.375C350.779 198.047 352.076 199.807 351.402 205.965C350.416 214.659 346.733 221.128 346.473 221.542C332.727 245.554 335.943 242.811 331.689 248.193C326.605 254.558 319.447 263.563 306.789 269.1C301.342 271.481 293.976 274.741 285.832 272.567C278.88 270.756 273.485 266.823 273.485 266.823C271.462 265.322 269.335 263.408 265.445 261.493C263.214 260.354 261.243 259.682 259.894 259.216C258.96 259.733 257.56 260.354 255.796 260.458C253.098 260.613 252.269 259.475 249.415 259.216C249 259.164 245.629 258.957 242.412 260.665C239.092 262.424 238.47 264.908 237.069 264.546C235.565 264.184 235.046 261.027 234.994 259.423C234.942 257.042 235.876 255.283 236.447 254.3C237.795 251.816 239.767 250.367 240.96 249.59C241.167 248.762 241.738 247.055 243.242 245.502C245.058 243.587 247.133 243.018 247.963 242.811C248.118 241.983 248.482 240.793 249.415 239.758C251.905 236.963 256.263 237.74 257.456 237.895C261.606 238.619 264.096 241.466 264.874 242.397C265.393 242.087 266.793 241.362 268.557 241.569C270.84 241.88 272.137 243.587 272.655 244.26C274.73 246.951 274.212 250.16 274.108 250.832C277.532 251.195 280.073 252.126 281.733 252.902C284.898 254.403 285.935 255.852 288.944 256.991C290.448 257.56 293.042 258.491 296.155 258.026C298.852 257.612 300.772 256.37 301.913 255.542C310.991 249.073 316.49 240.793 316.49 240.793C332.104 217.35 330.548 220.61 332.104 217.609C337.188 207.932 340.715 198.047 346.473 196.909C346.94 196.857 348.497 196.547 349.742 197.375Z" fill="white"/>
<path d="M343.672 197.064C336.877 212.02 328.317 226.199 318.202 239.188C309.59 250.263 298.126 264.287 282.252 261.286C281.267 261.079 281.682 259.578 282.667 259.785C298.904 262.838 310.784 246.589 319.187 235.307C328.265 223.198 335.995 210.105 342.272 196.288C342.739 195.356 344.087 196.132 343.672 197.064Z" fill="#161616"/>
<path d="M298.8 257.974C296.57 258.491 294.287 259.009 292.005 258.647C289.774 258.284 287.855 257.094 285.935 256.007C280.748 253.109 275.093 251.557 269.128 251.453C268.142 251.453 268.142 249.901 269.128 249.901C273.797 250.004 278.413 250.884 282.771 252.695C284.898 253.575 286.817 254.817 288.84 255.852C292.057 257.508 294.962 257.301 298.385 256.473C299.371 256.266 299.786 257.715 298.8 257.974Z" fill="#161616"/>
<path d="M349.586 216.522C342.635 231.271 335.476 246.382 323.752 258.025C313.481 268.168 298.23 276.707 283.445 272.412C279.451 271.273 275.716 269.307 272.24 267.082C268.35 264.546 264.563 260.665 259.635 260.613C258.649 260.613 258.649 259.06 259.635 259.06C266.327 259.164 271.566 265.27 277.22 268.22C285.105 272.308 293.405 273.033 301.861 270.238C316.542 265.374 327.539 253.368 335.476 240.586C340.352 232.668 344.347 224.233 348.289 215.797C348.652 214.814 350.001 215.642 349.586 216.522Z" fill="#161616"/>
<path d="M269.387 250.987C264.719 251.194 257.923 253.575 259.272 259.578C259.479 260.561 257.975 260.975 257.767 259.992C256.159 252.902 263.629 249.694 269.387 249.435C270.373 249.383 270.373 250.936 269.387 250.987Z" fill="#161616"/>
<path d="M273.07 250.211C272.707 248.348 272.551 246.382 271.929 244.622C271.047 242.087 267.416 242.708 265.289 243.07C264.303 243.225 263.888 241.724 264.874 241.569C267.053 241.207 270.477 240.586 272.292 242.294C274.108 244.001 274.108 247.572 274.575 249.849C274.782 250.781 273.278 251.195 273.07 250.211Z" fill="#161616"/>
<path d="M267.935 245.968C265.134 244.26 262.54 242.345 259.946 240.379C258.027 238.93 256.056 237.895 253.566 238.464C251.231 239.033 249.519 240.638 248.274 242.552C247.704 243.38 246.355 242.604 246.926 241.776C249.053 238.619 252.424 236.135 256.471 236.86C258.546 237.222 260.102 238.516 261.71 239.758C263.992 241.517 266.327 243.122 268.765 244.622C269.543 245.14 268.765 246.485 267.935 245.968Z" fill="#161616"/>
<path d="M256.73 246.951C254.447 246.485 252.58 245.605 250.505 244.726C249.363 244.26 248.067 243.846 246.925 244.26C246.199 244.519 245.629 245.036 245.006 245.502C243.865 246.382 242.775 247.365 241.79 248.4C241.064 249.124 239.974 247.986 240.7 247.313C242.516 245.502 245.265 242.5 248.067 242.397C249.26 242.345 250.297 242.914 251.335 243.432C253.254 244.415 255.07 245.088 257.197 245.502C258.13 245.657 257.715 247.158 256.73 246.951Z" fill="#161616"/>
<path d="M253.098 251.66C250.608 251.453 248.17 251.039 245.68 250.47C243.813 250.056 241.945 249.59 240.233 250.729C238.781 251.66 237.899 253.213 237.017 254.662C236.499 255.49 235.15 254.714 235.669 253.886C237.121 251.557 238.885 248.969 241.842 248.452C243.294 248.193 244.747 248.659 246.147 248.969C248.482 249.487 250.764 249.901 253.15 250.108C254.084 250.16 254.084 251.712 253.098 251.66Z" fill="#161616"/>
<path d="M257.975 261.079C254.81 262.269 252.061 260.872 249 260.147C244.28 259.061 240.96 262.01 237.847 265.064C237.121 265.788 236.032 264.65 236.758 263.977C239.248 261.545 241.945 259.009 245.525 258.44C249.675 257.767 253.513 261.131 257.612 259.578C258.493 259.216 258.908 260.717 257.975 261.079Z" fill="#161616"/>
<path d="M246.303 255.024C243.709 254.972 240.856 255.283 238.522 256.525C235.461 258.181 234.942 261.907 237.64 264.132C238.418 264.753 237.329 265.84 236.55 265.219C234.112 263.201 233.438 259.63 235.409 257.042C237.744 253.937 242.672 253.316 246.303 253.42C247.289 253.472 247.289 255.024 246.303 255.024Z" fill="#161616"/>
<path d="M237.277 254.403C236.81 255.386 236.551 256.421 236.499 257.456C236.447 258.439 234.891 258.439 234.943 257.456C235.046 256.111 235.358 254.817 235.928 253.575C236.343 252.747 237.692 253.523 237.277 254.403Z" fill="#161616"/>
<path d="M342.531 228.424C341.286 223.508 337.032 219.834 331.948 219.42C330.963 219.316 330.963 217.764 331.948 217.867C337.758 218.333 342.635 222.37 344.035 228.01C344.243 228.994 342.738 229.408 342.531 228.424Z" fill="#161616"/>
<path d="M336.514 238.412C336.514 235.514 335.424 232.927 333.401 230.96C332.675 230.236 333.764 229.149 334.49 229.873C336.825 232.15 338.07 235.204 338.07 238.464C338.07 239.395 336.514 239.395 336.514 238.412Z" fill="#161616"/>
<path d="M332.104 245.036C331.586 239.499 327.85 234.738 322.559 232.927C321.625 232.616 322.04 231.115 322.974 231.426C328.94 233.496 333.09 238.774 333.661 245.036C333.764 246.019 332.208 246.019 332.104 245.036Z" fill="#161616"/>
<path d="M324.323 255.49C323.908 249.901 319.758 245.295 314.259 244.208C313.273 244.001 313.688 242.501 314.674 242.708C320.847 243.898 325.464 249.228 325.879 255.438C325.931 256.473 324.375 256.473 324.323 255.49Z" fill="#161616"/>
<path d="M312.962 265.581C312.443 260.872 309.642 256.835 305.544 254.558C304.662 254.092 305.44 252.747 306.322 253.213C310.991 255.8 313.948 260.302 314.518 265.581C314.622 266.564 313.066 266.564 312.962 265.581Z" fill="#161616"/>
<path d="M299.993 257.611C297.088 261.7 296.725 266.875 299.215 271.273C299.682 272.153 298.385 272.929 297.866 272.05C295.169 267.185 295.428 261.337 298.645 256.783C299.215 256.007 300.564 256.783 299.993 257.611Z" fill="#161616"/>
<path d="M282.045 253.006C281.889 253.782 281.526 253.989 280.8 254.248C279.347 254.817 277.998 254.921 276.65 255.8C273.797 257.715 272.136 260.924 272.188 264.287C272.188 265.271 270.632 265.271 270.632 264.287C270.58 261.493 271.514 258.854 273.33 256.68C274.211 255.645 275.249 254.765 276.39 254.093C276.909 253.782 280.488 252.799 280.54 252.54C280.748 251.609 282.252 252.023 282.045 253.006Z" fill="#161616"/>
<path opacity="0.11" d="M346.162 204.723C343.465 204.516 341.805 215.435 336.825 227.131C332.623 236.911 323.493 258.232 304.974 264.132C295.584 267.133 281.993 266.668 271.255 261.13C266.482 258.646 263.992 256.059 257.767 254.765C250.764 253.316 240.182 253.782 237.173 259.63C236.291 261.337 236.239 263.097 236.447 264.494C239.352 260.923 241.997 259.888 243.917 259.63C246.666 259.267 248.17 260.458 252.165 260.768C255.277 260.975 257.923 260.509 259.635 260.044C262.436 261.027 266.638 262.786 271.255 265.633C275.664 268.375 276.702 269.824 279.866 271.222C285.313 273.602 290.449 272.929 294.858 272.36C305.544 270.911 313.014 265.891 316.593 263.407C319.706 261.234 324.478 257.508 330.807 249.59C336.306 242.707 343.983 231.478 349.897 215.228C349.223 210.26 348.082 204.878 346.162 204.723Z" fill="#666666"/>
<path d="M467.705 217.454C467.083 220.61 466.305 224.957 465.527 230.132C465.06 233.444 463.244 246.434 463.089 264.908C462.933 284.573 464.645 301.444 466.616 314.278C468.224 324.99 470.195 333.891 471.752 340.463C467.654 344.345 461.014 349.727 451.728 353.97C442.857 358.007 434.817 359.559 429.266 360.18C409.398 329.078 394.354 306.101 385.172 292.232C364.422 260.717 349.949 239.447 344.087 206.741C342.998 200.79 342.479 195.822 342.22 192.458C349.171 190.699 359.339 188.784 371.685 189.198C373.812 189.25 379.051 189.509 389.53 191.372C400.579 193.286 414.793 196.547 431.185 202.136C441.197 205.499 453.699 210.416 467.705 217.454Z" fill="#161616"/>
<path d="M426.62 222.163C426.101 226.613 425.531 232.565 425.116 239.654C424.597 248.348 424.597 255.231 424.597 260.199C424.701 281.003 425.894 301.444 426.101 305.325C426.983 320.074 428.176 338.756 429.888 360.542C419.98 356.558 412.043 352.728 406.545 349.882C386.625 339.687 372.359 329.337 362.347 321.989C354.514 316.244 348.237 311.225 344.035 307.809C342.894 296.838 342.116 287.368 341.493 279.916C340.715 270.394 339.989 261.338 339.47 249.28C339.159 242.138 339.003 238.516 338.951 233.548C338.848 216.833 340.248 205.603 340.715 202.136C341.234 198.099 341.805 194.787 342.22 192.51C356.122 195.149 372.255 199.238 389.737 205.706C403.743 210.83 416.038 216.522 426.62 222.163Z" fill="white"/>
<path d="M467.342 217.712C437.462 202.653 405.559 193.856 372.411 189.716C371.425 189.612 371.425 188.06 372.411 188.163C389.218 190.285 405.87 193.286 422.159 198.099C437.981 202.808 453.388 208.915 468.12 216.367C469.054 216.833 468.276 218.178 467.342 217.712Z" fill="#161616"/>
<path d="M467.654 218.385C460.65 218.023 453.699 219.11 446.748 220.041C440.108 220.973 433.468 221.852 426.776 222.784C425.79 222.939 425.375 221.438 426.361 221.283C433.364 220.3 440.315 219.368 447.319 218.385C454.062 217.454 460.806 216.47 467.654 216.833C468.639 216.884 468.639 218.437 467.654 218.385Z" fill="#161616"/>
<path d="M373.241 190.026C362.71 189.353 352.232 190.44 342.012 193.131C341.027 193.39 340.612 191.889 341.597 191.63C351.92 188.888 362.555 187.801 373.241 188.474C374.227 188.577 374.227 190.13 373.241 190.026Z" fill="#161616"/>
<path d="M425.375 222.215C398.971 209.174 370.959 199.548 342.116 193.545C341.13 193.338 341.545 191.837 342.531 192.044C371.529 198.099 399.645 207.776 426.205 220.869C427.035 221.335 426.257 222.68 425.375 222.215Z" fill="#161616"/>
<path d="M428.021 222.059C423.508 257.456 425.738 293.215 428.021 328.664C428.695 339.118 429.37 349.571 430.874 359.921C431.03 360.905 429.525 361.319 429.37 360.335C426.776 342.637 426.102 324.628 425.116 306.774C424.13 288.817 423.456 270.859 424.027 252.902C424.39 242.604 425.116 232.254 426.465 222.059C426.62 221.076 428.177 221.076 428.021 222.059Z" fill="#161616"/>
<path d="M467.861 217.195C461.428 257.612 462.725 299.063 471.752 339.014C471.959 339.998 470.455 340.412 470.247 339.428C461.169 299.219 459.872 257.508 466.356 216.781C466.512 215.798 468.017 216.212 467.861 217.195Z" fill="#161616"/>
<path d="M471.959 340.205C460.754 351.383 446.177 358.731 430.511 361.008C429.525 361.163 429.11 359.663 430.096 359.507C445.503 357.23 459.82 350.089 470.87 339.066C471.596 338.445 472.685 339.532 471.959 340.205Z" fill="#161616"/>
<path d="M343.205 193.442C336.513 231.271 340.871 269.773 345.228 307.654C345.332 308.637 343.776 308.637 343.672 307.654C339.315 269.67 334.957 231.064 341.701 193.028C341.857 192.045 343.361 192.459 343.205 193.442Z" fill="#161616"/>
<path d="M345.177 307.551C371.01 329.182 399.905 346.984 430.822 360.387C431.756 360.801 430.926 362.147 430.044 361.733C399.023 348.278 370.025 330.372 344.087 308.689C343.309 308.016 344.398 306.93 345.177 307.551Z" fill="#161616"/>
<path d="M421.174 227.597C422.055 226.872 422.47 225.527 421.796 224.543C421.174 223.56 419.617 223.198 418.632 223.871C417.698 224.492 417.387 225.941 417.957 226.924C418.735 228.166 420.499 228.269 421.537 227.338C422.107 226.82 422.937 227.648 422.367 228.166C420.914 229.46 418.632 229.511 417.335 228.011C416.09 226.613 416.297 224.285 417.75 223.094C419.15 221.956 421.329 222.215 422.522 223.508C423.767 224.957 423.456 227.234 422.004 228.425C421.381 228.89 420.551 228.062 421.174 227.597Z" fill="#161616"/>
<path d="M419.877 235.98C419.617 241.88 419.358 247.779 419.098 253.679C419.047 254.403 417.905 254.455 417.905 253.679C418.165 247.779 418.424 241.88 418.683 235.98C418.735 235.256 419.928 235.256 419.877 235.98Z" fill="#161616"/>
<path d="M419.254 236.239C402.602 229.046 385.38 223.146 367.846 218.54C367.12 218.333 367.431 217.247 368.157 217.402C385.795 222.059 403.069 228.011 419.825 235.204C420.551 235.566 419.929 236.549 419.254 236.239Z" fill="#161616"/>
<path d="M418.113 253.834C404.574 246.641 390.36 240.845 375.679 236.549C374.953 236.342 375.264 235.204 375.99 235.411C390.775 239.758 405.092 245.606 418.684 252.851C419.358 253.161 418.787 254.144 418.113 253.834Z" fill="#161616"/>
<path d="M368.572 218.126C371.01 224.026 373.5 229.925 375.938 235.825C376.25 236.498 375.108 236.808 374.797 236.135C372.359 230.236 369.869 224.336 367.431 218.437C367.172 217.764 368.313 217.454 368.572 218.126Z" fill="#161616"/>
<path d="M365.823 217.868C368.105 223.56 370.44 229.253 372.878 234.893C373.189 235.566 372.152 236.187 371.892 235.463C369.454 229.718 367.016 223.974 364.733 218.178C364.37 217.505 365.512 217.195 365.823 217.868Z" fill="#161616"/>
<path d="M371.944 235.928C367.12 233.858 362.347 231.788 357.523 229.718C356.849 229.408 357.419 228.425 358.094 228.735C362.918 230.805 367.69 232.875 372.515 234.945C373.189 235.204 372.618 236.239 371.944 235.928Z" fill="#161616"/>
<path d="M364.526 218.282C361.621 217.091 358.612 216.16 355.5 215.539C354.773 215.384 355.085 214.245 355.811 214.4C358.923 215.021 361.932 215.901 364.837 217.143C365.512 217.402 365.252 218.54 364.526 218.282Z" fill="#161616"/>
<path d="M355.967 215.435C357.004 219.731 357.834 224.078 358.509 228.476C358.612 229.201 357.471 229.511 357.367 228.787C356.693 224.388 355.863 220.041 354.825 215.746C354.67 215.021 355.811 214.711 355.967 215.435Z" fill="#161616"/>
<path d="M351.765 305.636C364.37 312.777 376.976 319.919 389.633 327.06C390.308 327.422 389.685 328.457 389.063 328.043C376.457 320.902 363.852 313.76 351.194 306.619C350.52 306.257 351.142 305.273 351.765 305.636Z" fill="#161616"/>
<path d="M388.337 301.651C387.973 305.791 388.596 310.086 388.907 314.278C389.219 318.728 389.53 323.179 389.893 327.629C389.945 328.354 388.804 328.354 388.7 327.629C388.389 323.179 388.077 318.728 387.714 314.278C387.403 310.138 386.78 305.843 387.144 301.651C387.247 300.926 388.44 300.926 388.337 301.651Z" fill="#161616"/>
<path d="M387.61 301.651C375.316 294.768 362.399 289.024 349.015 284.573C348.289 284.315 348.6 283.228 349.327 283.435C362.814 287.937 375.835 293.681 388.233 300.616C388.855 300.978 388.233 302.013 387.61 301.651Z" fill="#161616"/>
<path d="M349.275 284.418C349.897 291.611 350.935 298.753 352.491 305.791C352.647 306.516 351.505 306.826 351.35 306.101C349.793 298.96 348.704 291.715 348.082 284.418C348.03 283.694 349.171 283.694 349.275 284.418Z" fill="#161616"/>
<path d="M466.097 217.92C457.123 218.541 448.304 219.99 439.589 222.111C438.604 222.37 438.189 220.869 439.174 220.611C448.045 218.437 457.019 216.988 466.097 216.367C467.083 216.264 467.083 217.816 466.097 217.92Z" fill="white"/>
<path opacity="0.1" d="M377.91 202.291C380.452 206.897 384.394 214.297 388.7 223.509C400.32 248.4 429.214 310.293 409.969 329.027C406.441 332.442 398.608 337.048 379.155 333.011C395.91 342.223 412.666 351.486 429.422 360.698C426.932 337.565 425.739 317.745 425.116 302.22C424.701 291.87 424.182 278.364 424.494 260.355C424.753 245.399 425.531 232.565 426.361 222.525C420.603 219.42 414.326 216.315 407.53 213.314C397.052 208.708 387.092 205.086 377.91 202.291Z" fill="#666666"/>
<path d="M582.09 93.7709C583.023 95.0647 581.83 97.3417 581.26 98.4802C580.222 100.447 577.577 104.483 570.573 107.485C573.167 108.054 574.205 109.089 574.672 109.969C575.605 111.676 574.464 112.867 574.464 116.955C574.464 119.956 575.138 120.422 574.879 122.906C574.672 125.028 573.997 126.736 573.427 127.822C573.323 128.806 573.167 130.203 572.804 131.911C572.545 133.153 572.389 133.774 572.182 134.188C571.092 136.154 568.032 137.189 565.386 136.672C562.066 135.947 560.613 132.946 560.458 132.583C559.057 134.653 557.708 135.274 556.775 135.43C555.063 135.74 553.922 134.757 550.602 133.981C548.942 133.567 547.593 133.411 546.711 133.36C546.815 135.274 546.97 138.121 547.126 141.588C547.593 153.025 547.852 159.028 547.333 166.221C547.178 168.498 546.607 175.277 544.636 183.868C543.443 189.146 541.575 197.116 537.218 206.224C534.52 211.864 530.318 220.714 521.396 229.201C517.35 233.03 507.649 242.035 491.983 245.398C480.311 247.882 470.558 246.175 465.06 244.777C460.806 242.5 456.552 240.275 452.298 237.998C451.676 237.118 450.638 235.255 450.638 232.875C450.638 229.304 452.869 225.94 456.397 224.077C459.094 224.75 462.829 225.526 467.29 225.94C471.648 226.303 480.259 226.975 490.323 223.87C494.628 222.577 506.041 218.902 514.808 208.294C518.958 203.274 520.773 198.772 523.834 191.061C527.465 182.005 528.918 174.863 530.422 167.463C533.587 151.524 535.195 143.503 533.69 135.688C532.912 131.652 531.46 126.839 532.445 120.112C533.431 113.539 535.973 110.176 536.751 109.244C538.878 106.605 541.472 105.052 542.924 104.121C545.57 102.465 545.051 103.396 549.512 101.068C550.29 100.654 551.172 100.188 552.365 100.24C553.766 100.343 554.855 101.119 555.426 101.689C558.694 100.757 561.443 99.8774 563.467 99.2047C568.083 97.7039 570.418 96.9794 571.507 96.3584C574.257 94.8059 575.242 93.4604 577.888 93.0982C578.718 92.8394 581.156 92.4772 582.09 93.7709Z" fill="white"/>
<path d="M533.223 122.803C534.935 134.136 534.728 145.573 533.172 156.906C531.615 168.343 529.022 179.935 525.027 190.751C521.655 199.91 516.779 208.501 509.153 214.814C502.513 220.3 494.525 223.922 486.121 225.682C476.524 227.7 466.46 227.234 457.071 224.44C456.137 224.129 456.5 222.629 457.486 222.939C473.775 227.804 492.45 225.371 506.248 215.177C514.133 209.329 519.425 201.101 522.9 192.044C526.687 182.367 529.073 172.017 530.837 161.822C533.016 149.04 533.638 135.999 531.719 123.165C531.563 122.234 533.068 121.82 533.223 122.803Z" fill="#161616"/>
<path d="M547.645 133.463C549.564 158.976 548.734 185.731 536.803 208.966C526.791 228.476 509.153 244.156 486.795 246.847C474.657 248.296 462.103 245.761 452.039 238.671C451.209 238.102 451.987 236.756 452.817 237.325C470.922 250.108 496.081 247.365 513.459 234.686C531.823 221.231 541.731 199.289 545.155 177.347C547.437 162.857 547.178 148.057 546.089 133.463C545.985 132.48 547.541 132.48 547.645 133.463Z" fill="#161616"/>
<path d="M457.538 224.388C452.091 226.562 450.327 232.823 453.543 237.636C454.114 238.464 452.765 239.24 452.195 238.412C448.356 232.72 450.794 225.423 457.123 222.887C458.057 222.525 458.472 224.026 457.538 224.388Z" fill="#161616"/>
<path d="M543.08 115.765C541.264 112.401 546.348 112.763 548.008 112.246C550.186 111.521 552.625 109.607 554.181 107.951C556.515 105.467 556.723 100.343 551.846 101.275C542.146 103.19 531.823 112.039 533.327 122.648C533.483 123.631 531.978 124.045 531.823 123.062C530.163 111.159 541.16 102.051 551.898 99.6706C555.841 98.7909 558.383 102.517 557.19 106.139C556.463 108.313 554.544 109.917 552.78 111.211C551.691 112.039 550.498 112.867 549.253 113.436C548.682 113.643 544.273 114.523 544.532 114.989C544.895 115.868 543.546 116.645 543.08 115.765Z" fill="#161616"/>
<path d="M556.878 100.292C563.052 98.8425 569.069 96.7208 574.723 93.8228C577.317 92.4773 582.66 90.045 582.764 95.1683C582.816 99.2565 579.133 103.397 576.072 105.674C571.455 109.141 565.697 110.435 560.147 111.263C559.161 111.418 558.746 109.917 559.732 109.762C567.772 108.52 578.303 105.725 580.897 96.7725C581.104 96.255 581.208 95.7375 581.208 95.1683C580.222 93.5123 579.133 93.15 577.784 93.978C576.85 94.392 576.02 94.9095 575.087 95.3753C573.375 96.2033 571.663 97.0313 569.899 97.7558C565.801 99.4635 561.599 100.809 557.293 101.792C556.308 102.051 555.893 100.55 556.878 100.292Z" fill="#161616"/>
<path d="M571.922 106.864C574.827 107.692 576.02 111.263 575.917 114.005C575.761 117.524 573.478 120.474 570.522 122.234C567.824 123.89 563.726 125.183 560.873 123.062C558.798 121.509 558.331 118.559 560.146 116.645C560.821 115.92 561.91 117.007 561.236 117.731C559.991 119.025 560.613 120.992 561.91 121.871C563.051 122.648 564.608 122.596 565.905 122.389C567.928 122.027 569.899 120.94 571.455 119.594C572.96 118.249 573.997 116.541 574.257 114.575C574.568 112.453 573.945 109.037 571.507 108.313C570.522 108.106 570.937 106.605 571.922 106.864Z" fill="#161616"/>
<path d="M574.983 117.214C576.695 121.509 575.553 126.788 571.87 129.789C570.21 131.135 567.928 131.963 565.801 131.6C563.674 131.186 562.429 129.686 561.184 128.03C560.613 127.202 561.962 126.425 562.533 127.253C563.882 129.065 565.438 130.462 567.824 129.996C569.795 129.634 571.455 128.34 572.545 126.736C574.36 124.045 574.62 120.681 573.427 117.68C573.115 116.696 574.62 116.282 574.983 117.214Z" fill="#161616"/>
<path d="M574.464 127.719C574.308 131.962 572.648 136.879 567.876 137.81C562.792 138.793 560.043 133.618 558.746 129.582C558.435 128.65 559.939 128.236 560.25 129.168C561.288 132.376 563.415 137.137 567.668 136.206C571.611 135.378 572.804 131.186 572.908 127.719C572.908 126.736 574.464 126.684 574.464 127.719Z" fill="#161616"/>
<path d="M560.925 132.48C560.406 134.757 558.072 135.585 555.945 135.896C552.573 136.413 550.083 134.705 546.815 134.343C545.829 134.24 545.829 132.687 546.815 132.791C548.423 132.998 549.823 133.619 551.432 134.033C553.455 134.602 558.746 135.068 559.42 132.066C559.628 131.083 561.132 131.497 560.925 132.48Z" fill="#161616"/>
<path d="M546.763 134.033C541.575 136.051 535.713 134.136 532.601 129.582C532.03 128.754 533.379 127.978 533.95 128.806C536.699 132.842 541.886 134.291 546.348 132.532C547.281 132.17 547.645 133.67 546.763 134.033Z" fill="#161616"/>
<path d="M488.04 225.941C486.017 227.907 486.484 233.03 486.64 235.618C486.847 238.982 487.833 242.19 490.219 244.674C490.893 245.399 489.804 246.485 489.13 245.761C486.484 242.966 485.343 239.396 485.135 235.618C484.928 232.513 484.513 227.234 486.951 224.802C487.677 224.129 488.767 225.216 488.04 225.941Z" fill="#161616"/>
<path d="M472.633 226.924C469.469 232.772 469.417 239.706 472.478 245.606C472.945 246.485 471.596 247.262 471.129 246.382C467.809 239.965 467.861 232.513 471.285 226.148C471.752 225.216 473.1 226.044 472.633 226.924Z" fill="#161616"/>
<path d="M546.763 165.445C541.575 167.204 536.077 166.635 531.304 163.892C530.422 163.375 531.2 162.029 532.082 162.547C536.492 165.083 541.472 165.548 546.348 163.944C547.282 163.634 547.697 165.134 546.763 165.445Z" fill="#161616"/>
<path d="M541.99 195.77C535.402 197.167 528.71 194.735 524.612 189.405C523.99 188.629 525.338 187.852 525.961 188.629C529.644 193.338 535.713 195.563 541.575 194.269C542.561 194.062 542.976 195.563 541.99 195.77Z" fill="#161616"/>
<path d="M513.614 210.623C513.407 213.521 514.393 216.16 516.416 218.23C517.142 218.954 516.001 220.041 515.326 219.317C512.992 216.988 511.851 213.883 512.058 210.571C512.11 209.639 513.666 209.639 513.614 210.623Z" fill="#161616"/>
<path d="M545.881 180.349C543.598 181.384 541.16 181.591 538.774 180.866C537.788 180.607 538.203 179.107 539.189 179.365C541.16 179.935 543.183 179.831 545.103 179.003C545.985 178.589 546.815 179.935 545.881 180.349Z" fill="#161616"/>
<path d="M547.074 143.969C542.613 145.055 538.255 144.59 534.053 142.727C533.12 142.313 533.95 140.967 534.831 141.381C538.618 143.089 542.613 143.399 546.659 142.468C547.645 142.209 548.06 143.71 547.074 143.969Z" fill="#161616"/>
<path d="M532.964 215.435C525.546 217.143 518.439 213.262 515.897 206.12C515.586 205.189 517.038 204.775 517.402 205.706C519.632 212.02 526.013 215.435 532.549 213.934C533.535 213.676 533.95 215.176 532.964 215.435Z" fill="#161616"/>
<path d="M501.268 220.662C499.038 227.234 505.834 233.858 510.969 236.653C511.851 237.119 511.073 238.464 510.191 237.998C504.433 234.893 497.274 227.493 499.764 220.3C500.075 219.317 501.58 219.731 501.268 220.662Z" fill="#161616"/>
<path opacity="0.13" d="M569.121 109.762C567.253 111.677 569.484 114.885 567.876 116.955C566.994 118.042 565.023 118.87 560.198 117.938C560.198 118.766 560.146 120.008 559.68 121.406C559.68 121.406 558.642 124.718 555.737 126.839C552.365 129.323 547.333 129.375 542.82 127.098C542.613 130.203 542.25 134.602 541.835 139.984C539.396 170.723 538.463 176.261 537.114 181.539C535.558 187.749 533.586 195.46 528.451 204.05C525.235 209.381 514.445 226.769 492.242 233.703C473.411 239.603 457.226 234.531 451.572 232.461C451.883 234.583 452.246 236.756 452.558 238.878C455.048 240.379 458.627 242.294 463.192 243.846C463.763 244.053 474.034 247.365 485.498 246.33C507.13 244.364 522.174 227.907 525.909 223.819C539.396 209.018 543.235 192.821 544.999 185.472C547.593 174.449 547.8 164.306 547.956 157.01C548.163 147.746 547.593 139.932 546.97 134.24C547.904 134.705 550.29 135.689 553.403 135.223C556.93 134.705 559.161 132.687 559.835 132.014C559.991 132.428 560.821 134.964 563.57 136.206C563.726 136.31 566.683 137.552 569.276 136.206C571.611 135.016 572.233 132.428 573.478 127.305C574.256 124.2 574.412 121.975 574.723 118.404C575.346 110.59 574.516 109.658 573.997 109.244C572.752 108.261 570.314 108.52 569.121 109.762Z" fill="#666666"/>
<path opacity="0.15" d="M536.906 205.706C535.35 207.518 532.964 210.157 529.955 213.107C524.664 218.333 512.629 230.288 499.193 235.877C480.466 243.639 461.117 238.257 452.35 235.152C452.661 236.239 453.025 237.274 453.336 238.361C455.93 239.758 480.518 252.488 506.611 240.068C528.399 229.77 535.661 209.432 536.906 205.706Z" fill="#666666"/>
<path d="M419.513 175.226C420.032 178.124 420.24 180.659 420.291 182.522C420.343 183.661 420.499 187.904 419.669 193.493C419.306 196.081 418.787 198.254 418.372 199.859C416.245 200.428 413.185 200.997 409.45 200.79C404.521 200.531 400.735 199.031 398.452 197.944C398.556 196.547 398.66 194.321 398.919 191.579C399.49 185.42 399.956 183.247 400.008 179.21C400.06 177.503 400.008 174.915 399.697 171.758C401.876 171.189 406.181 170.361 411.317 171.603C415.104 172.431 417.853 174.035 419.513 175.226Z" fill="white"/>
<path d="M420.188 174.656C421.952 182.833 420.81 191.061 419.513 199.238C419.358 200.221 417.853 199.807 418.009 198.824C419.254 190.958 420.395 182.936 418.683 175.07C418.476 174.087 419.98 173.673 420.188 174.656Z" fill="#161616"/>
<path d="M419.15 175.743C416.816 173.673 413.392 172.948 410.435 172.327C407.063 171.655 403.743 171.551 400.371 172.172C399.386 172.379 398.971 170.878 399.956 170.671C403.588 169.947 407.219 170.102 410.85 170.827C414.17 171.499 417.698 172.327 420.291 174.656C420.966 175.329 419.876 176.416 419.15 175.743Z" fill="#161616"/>
<path d="M400.527 171.655C401.15 180.349 400.683 189.043 399.23 197.633C399.075 198.617 397.57 198.203 397.726 197.219C399.178 188.732 399.593 180.194 398.971 171.655C398.919 170.672 400.475 170.672 400.527 171.655Z" fill="#161616"/>
<path d="M419.202 199.755C416.66 201.773 412.355 201.515 409.242 201.411C405.351 201.308 401.565 200.48 398.193 198.513C397.311 197.996 398.089 196.65 398.971 197.168C401.876 198.875 405.04 199.652 408.36 199.859C411.006 200.014 415.882 200.376 418.061 198.668C418.891 198.047 419.98 199.134 419.202 199.755Z" fill="#161616"/>
<path d="M419.462 184.282C417.542 181.591 414.326 180.711 411.213 180.038C407.738 179.262 404.158 178.537 400.942 180.504C400.06 181.021 399.282 179.676 400.164 179.158C403.743 176.985 407.738 177.658 411.628 178.537C415.156 179.365 418.58 180.452 420.81 183.505C421.381 184.282 420.032 185.058 419.462 184.282Z" fill="#161616"/>
<path d="M419.15 193.131C413.859 188.836 406.96 187.128 400.216 188.474C399.23 188.681 398.815 187.18 399.801 186.973C407.115 185.524 414.43 187.335 420.24 192.044C421.018 192.665 419.928 193.752 419.15 193.131Z" fill="#161616"/>
<path d="M410.487 195.253C408.723 194.476 406.908 194.218 404.936 194.218C403.588 194.218 400.579 194.062 399.645 195.149C398.971 195.925 397.881 194.787 398.556 194.062C399.749 192.665 402.446 192.82 404.106 192.717C406.596 192.613 408.931 192.976 411.265 193.959C412.199 194.321 411.421 195.615 410.487 195.253Z" fill="#161616"/>
<path d="M468.38 169.481C463.97 171.965 457.071 175.277 448.2 177.088C438.655 179.055 431.237 178.434 422.885 177.709C419.565 177.399 408.516 176.312 393.783 172.017C384.653 169.326 372.411 164.927 358.768 157.423C357.73 152.3 356.796 146.401 356.381 139.828C355.915 132.739 356.07 126.322 356.537 120.784C359.442 117.576 362.97 114.109 367.171 110.641C371.01 107.433 374.745 104.845 378.169 102.724C408.256 124.976 438.292 147.229 468.38 169.481Z" fill="#161616"/>
<path d="M378.325 102.672C377.598 105.259 376.665 108.934 375.938 113.488C375.472 116.334 374.019 126.684 375.783 140.294C376.25 144.124 377.132 149.195 378.792 155.043C380.659 156.181 383.253 157.682 386.417 159.338C396.896 164.772 405.715 167.359 408.827 168.239C411.058 168.86 421.692 171.758 436.373 172.379C444.465 172.69 455.67 172.431 468.847 169.688C467.913 153.904 466.927 138.172 465.993 122.389C463.037 120.94 458.938 119.025 453.907 117.007C450.69 115.713 435.802 109.813 414.43 106.036C404.885 104.328 392.694 102.827 378.325 102.672Z" fill="white"/>
<path d="M466.46 122.337C467.55 138.069 468.639 153.853 469.676 169.585C469.728 170.568 468.172 170.568 468.12 169.585C467.031 153.853 465.941 138.069 464.904 122.337C464.852 121.302 466.408 121.302 466.46 122.337Z" fill="#161616"/>
<path d="M464.852 122.544C438.033 110.228 408.723 103.759 379.207 103.604C378.221 103.604 378.221 102.051 379.207 102.051C409.035 102.206 438.552 108.727 465.63 121.199C466.512 121.613 465.734 122.958 464.852 122.544Z" fill="#161616"/>
<path d="M469.106 170.05C438.292 177.554 405.403 172.483 378.428 155.819C377.598 155.302 378.377 153.956 379.207 154.474C405.87 170.878 438.292 175.95 468.691 168.55C469.677 168.291 470.092 169.792 469.106 170.05Z" fill="#161616"/>
<path d="M379.466 102.931C374.59 120.164 374.745 138.38 379.881 155.561C380.192 156.544 378.688 156.906 378.376 155.975C373.137 138.587 372.981 120.008 377.961 102.517C378.221 101.534 379.725 101.948 379.466 102.931Z" fill="#161616"/>
<path d="M378.584 103.138C370.44 108.365 363.281 114.833 357.263 122.389C356.641 123.165 355.551 122.078 356.174 121.302C362.295 113.643 369.558 107.123 377.806 101.844C378.636 101.223 379.414 102.569 378.584 103.138Z" fill="#161616"/>
<path d="M357.575 121.923C356.485 133.981 357.16 146.038 359.598 157.941C359.805 158.924 358.301 159.338 358.094 158.355C355.604 146.349 354.929 134.136 356.019 121.975C356.122 120.94 357.679 120.94 357.575 121.923Z" fill="#161616"/>
<path d="M469.002 170.516C464.696 172.276 460.391 173.984 456.085 175.743C452.869 177.037 449.549 177.554 446.177 177.968C438.24 179.055 430.148 179.314 422.159 178.589C408.723 177.451 395.443 173.621 382.838 169.016C374.33 165.911 366.082 162.185 358.145 157.889C357.263 157.424 358.042 156.078 358.923 156.544C371.581 163.375 384.913 168.498 398.711 172.431C413.236 176.571 428.073 178.382 443.168 176.726C446.8 176.312 450.846 176.054 454.27 174.76C459.094 172.949 463.866 170.879 468.639 168.964C469.521 168.653 469.936 170.154 469.002 170.516Z" fill="#161616"/>
<path d="M379.518 157.061C372.566 158.407 365.563 158.666 358.508 157.838C357.523 157.734 357.523 156.182 358.508 156.285C365.408 157.113 372.255 156.854 379.103 155.561C380.088 155.405 380.503 156.854 379.518 157.061Z" fill="#161616"/>
<path d="M450.586 133.618C451.935 132.997 451.728 131.083 451.78 129.892C451.831 129.271 451.883 128.65 451.831 127.978C451.831 127.253 451.728 126.632 451.416 125.959C451.053 125.131 450.483 125.028 449.808 125.545C448.615 125.959 448.771 126.27 448.771 127.408C448.771 128.081 448.823 128.702 448.875 129.375C448.926 130.048 448.926 130.772 448.978 131.445C448.978 131.652 449.549 135.223 450.535 133.774C451.105 132.946 452.454 133.722 451.883 134.55C450.379 136.775 447.993 135.016 447.578 132.997C447.215 131.186 447.215 129.064 447.215 127.201C447.215 126.011 447.422 124.666 448.46 123.941C450.794 122.285 453.076 125.028 453.336 127.201C453.595 129.427 453.855 133.877 451.365 135.016C450.483 135.378 449.705 134.032 450.586 133.618Z" fill="#161616"/>
<path d="M451.313 124.925C452.195 128.133 451.987 131.393 450.742 134.498C450.431 135.275 449.186 135.223 449.238 134.291C449.29 131.29 449.134 128.34 448.771 125.39C449.29 125.39 449.808 125.39 450.327 125.39C450.171 126.632 450.068 127.823 450.068 129.065C450.068 129.582 450.016 130.255 450.12 130.721C450.171 131.083 450.638 132.377 450.431 131.135C450.275 130.151 451.831 130.151 451.987 131.135C452.195 132.635 450.742 134.912 449.134 133.36C448.511 132.739 448.563 131.549 448.511 130.721C448.408 128.909 448.511 127.15 448.719 125.39C448.823 124.407 450.12 124.407 450.275 125.39C450.69 128.34 450.846 131.29 450.742 134.291C450.223 134.24 449.705 134.136 449.238 134.084C450.379 131.238 450.586 128.34 449.808 125.339C449.549 124.407 451.053 123.993 451.313 124.925Z" fill="#161616"/>
<path d="M451.883 126.218C452.298 127.253 452.35 128.34 452.195 129.427C452.143 129.841 451.624 130.048 451.261 129.944C450.794 129.841 450.638 129.427 450.742 129.013C450.846 128.185 450.69 127.408 450.431 126.632C450.016 125.701 451.52 125.287 451.883 126.218Z" fill="#161616"/>
<path d="M407.53 125.753C408.879 125.132 408.672 123.217 408.723 122.027C408.775 121.406 408.827 120.836 408.775 120.215C408.775 119.853 408.775 119.491 408.671 119.18C408.62 117.99 407.634 117.628 405.818 118.145C405.3 118.922 405.766 121.095 405.818 121.923C405.87 122.492 405.87 123.062 405.922 123.631C405.922 123.838 406.493 127.409 407.478 125.96C408.049 125.132 409.398 125.908 408.827 126.736C407.323 128.961 404.936 127.202 404.521 125.183C404.158 123.424 404.21 121.406 404.158 119.646C404.158 118.456 404.262 117.059 405.248 116.231C407.478 114.316 409.917 116.903 410.28 119.077C410.643 121.302 410.85 125.96 408.36 127.15C407.375 127.512 406.596 126.218 407.53 125.753Z" fill="#161616"/>
<path d="M408.205 117.11C409.087 120.319 408.879 123.579 407.634 126.684C407.323 127.46 406.078 127.409 406.13 126.477C406.182 123.476 406.026 120.526 405.663 117.576C406.182 117.576 406.7 117.576 407.219 117.576C407.063 118.818 406.96 120.008 406.96 121.25C406.96 121.768 406.908 122.441 407.012 122.906C407.063 123.269 407.53 124.562 407.323 123.32C407.167 122.337 408.724 122.337 408.879 123.32C409.087 124.821 407.634 127.098 406.026 125.546C405.403 124.925 405.455 123.734 405.403 122.906C405.3 121.095 405.403 119.336 405.611 117.576C405.715 116.593 407.012 116.593 407.167 117.576C407.582 120.526 407.738 123.476 407.634 126.477C407.115 126.425 406.597 126.322 406.13 126.27C407.271 123.424 407.478 120.526 406.7 117.524C406.441 116.541 407.945 116.127 408.205 117.11Z" fill="#161616"/>
<path d="M408.775 118.352C409.19 119.387 409.242 120.474 409.087 121.561C409.035 121.975 408.516 122.182 408.153 122.078C407.686 121.975 407.53 121.561 407.634 121.147C407.738 120.319 407.582 119.542 407.323 118.766C406.908 117.835 408.412 117.472 408.775 118.352Z" fill="#161616"/>
<path d="M438.033 141.795C433.468 142.416 427.398 141.847 423.352 139.466C422.47 138.949 423.248 137.603 424.13 138.121C427.813 140.243 433.468 140.864 437.618 140.294C438.551 140.191 439.018 141.692 438.033 141.795Z" fill="#161616"/>
<path d="M438.759 141.899C437.358 145.004 433.935 149.351 429.992 148.833C426.101 148.367 423.767 142.882 422.937 139.622C422.678 138.638 424.182 138.224 424.441 139.208C425.012 141.536 426.672 145.883 429.162 146.918C432.793 148.419 436.113 143.865 437.358 141.071C437.825 140.243 439.174 141.019 438.759 141.899Z" fill="#161616"/>
<path d="M437.462 142.52C433.468 144.383 427.502 143.399 424.13 140.708C424.493 140.346 424.857 139.984 425.22 139.622C427.191 141.226 429.629 142.157 432.223 142.106C433.623 142.106 434.765 141.381 435.906 142.313C436.113 142.52 436.165 142.83 436.113 143.089C435.854 144.486 433.935 145.159 432.742 145.366C430.252 145.78 427.969 144.59 425.998 143.141C426.309 142.727 426.62 142.313 426.932 141.899C428.695 143.917 433.208 145.004 435.128 142.571C435.698 141.847 436.736 142.778 436.373 143.503C435.283 145.469 433.623 147.436 431.133 147.281C428.54 147.177 426.932 144.952 425.635 142.985C425.116 142.209 426.205 141.536 426.88 142.054C428.073 142.985 428.903 143.141 430.2 143.606C431.03 143.917 431.652 143.762 431.341 144.797C431.082 145.625 430.2 145.883 429.474 145.883C427.243 145.78 424.96 142.571 423.975 140.864C423.56 140.139 424.597 139.259 425.22 139.932C427.191 142.054 428.332 145.469 431.497 145.935C432.482 146.09 432.067 147.591 431.082 147.436C427.502 146.867 426.309 143.348 424.13 141.019C424.545 140.708 424.96 140.398 425.375 140.087C426.102 141.278 427.347 143.244 428.747 143.813C429.837 144.227 429.681 143.969 430.511 143.089C430.719 142.83 430.874 142.52 431.133 142.364C432.067 141.795 433.001 142.313 433.312 143.244C433.416 143.503 433.312 143.813 433.105 144.02C430.874 146.453 427.969 144.797 425.842 143.192C426.257 142.882 426.672 142.571 427.087 142.261C428.125 143.813 429.059 145.314 431.03 145.573C433.053 145.883 434.194 144.383 435.076 142.727C435.491 143.037 435.906 143.348 436.321 143.658C433.883 146.711 428.28 145.625 425.946 142.985C425.375 142.364 426.154 141.226 426.88 141.743C428.54 142.985 430.563 144.176 432.69 143.71C433.416 143.658 434.09 143.296 434.661 142.778C434.505 143.244 434.194 143.451 433.831 143.503C433.26 143.762 432.223 143.658 431.6 143.606C428.851 143.451 426.361 142.364 424.234 140.657C423.456 140.036 424.545 138.949 425.324 139.57C428.021 141.692 433.52 142.675 436.788 141.122C437.618 140.76 438.396 142.106 437.462 142.52Z" fill="#161616"/>
<path d="M431.912 146.246C430.718 145.366 429.577 144.434 428.592 143.348C429.007 143.037 429.421 142.727 429.836 142.416C430.303 143.296 430.978 144.176 431.341 145.107C431.497 145.573 431.548 146.09 431.133 146.504C430.77 146.867 430.2 146.867 429.733 146.66C428.851 146.246 428.073 145.521 427.295 144.952C427.658 144.59 428.021 144.227 428.384 143.865C428.695 144.641 429.733 146.142 428.851 146.867C427.865 147.695 426.983 146.246 426.465 145.625C425.842 144.848 426.931 143.762 427.554 144.538C427.761 144.745 428.176 145.521 428.488 145.573C428.228 145.625 427.969 145.728 427.71 145.78C427.761 145.728 427.813 145.676 427.813 145.625C427.761 145.832 427.658 145.987 427.606 146.194C427.606 145.728 427.191 145.107 427.035 144.693C426.776 144.072 427.398 143.141 428.125 143.606C428.436 143.813 430.148 145.314 430.407 145.211C430.252 145.314 430.096 145.469 429.94 145.573C429.992 145.521 429.992 145.418 430.044 145.366C429.992 145.573 429.992 145.78 429.94 145.987C429.785 145.055 428.955 144.02 428.488 143.192C428.073 142.416 429.11 141.588 429.733 142.261C430.667 143.244 431.652 144.124 432.742 144.9C433.52 145.469 432.742 146.815 431.912 146.246Z" fill="#161616"/>
<path d="M462.206 124.976C463.4 138.897 464.23 152.869 464.748 166.842C464.8 167.825 463.244 167.825 463.192 166.842C462.673 152.869 461.843 138.897 460.65 124.976C460.546 123.993 462.103 123.993 462.206 124.976Z" fill="#161616"/>
<path d="M382.423 108.572C378.48 123.269 380.97 138.431 384.446 152.921C384.705 153.905 383.201 154.319 382.942 153.335C379.362 138.587 376.872 123.113 380.918 108.158C381.178 107.226 382.682 107.64 382.423 108.572Z" fill="#161616"/>
<path d="M377.287 155.716C372.722 156.544 368.105 157.372 363.54 158.2C362.555 158.355 362.14 156.906 363.125 156.699C367.69 155.871 372.307 155.043 376.872 154.215C377.858 154.06 378.273 155.561 377.287 155.716Z" fill="white"/>
<path d="M371.373 123.734C371.788 124.407 372.255 125.39 372.567 126.529C373.033 128.392 372.93 129.996 372.826 130.979C375.938 134.136 383.979 141.433 396.377 143.192C401.305 143.917 405.611 143.554 408.827 142.933C409.19 144.279 409.45 145.987 408.568 146.711C407.997 147.229 407.167 147.022 405.767 146.97C403.432 146.866 402.187 147.332 401.046 147.436C397.83 147.798 389.322 146.297 380.088 141.122C377.598 139.725 374.175 137.551 370.44 134.291C370.18 134.653 368.313 136.879 365.512 136.879C361.621 136.827 359.805 132.583 359.65 132.169C358.716 129.892 358.664 126.736 360.583 124.407C362.347 122.233 364.837 121.871 365.512 121.819C368.728 121.509 371.01 123.372 371.373 123.734Z" fill="white" stroke="black" stroke-width="2" stroke-miterlimit="10"/>
<path d="M368.572 124.769C370.958 128.495 369.506 133.929 364.474 133.826C363.955 133.826 363.955 133.049 364.474 133.049C368.935 133.153 369.921 128.288 367.898 125.131C367.587 124.717 368.261 124.355 368.572 124.769Z" fill="black"/>
<path d="M365.045 129.789C365.719 129.272 366.082 128.392 365.875 127.564C365.667 126.788 364.682 126.011 363.852 126.425C362.97 126.839 362.659 128.237 363.074 129.065C363.437 129.893 364.682 130.255 365.304 129.427C365.615 129.013 366.29 129.427 365.978 129.841C365.252 130.824 363.748 130.928 362.814 130.048C361.777 129.013 361.88 127.098 362.918 126.063C363.903 125.08 365.512 125.494 366.238 126.581C367.068 127.771 366.705 129.427 365.563 130.307C365.2 130.617 364.682 130.1 365.045 129.789Z" fill="black"/>
<path d="M397.882 143.451C397.052 144.486 396.844 145.883 397.415 147.074C397.622 147.539 396.948 147.902 396.74 147.488C396.066 146.038 396.222 144.382 397.207 143.089C397.518 142.675 398.193 143.037 397.882 143.451Z" fill="black"/>
<path d="M406.7 143.555C406.233 144.434 406.182 145.469 406.648 146.401C406.856 146.867 406.182 147.229 405.974 146.815C405.403 145.625 405.455 144.331 406.026 143.192C406.285 142.727 406.96 143.089 406.7 143.555Z" fill="black"/>
<path d="M404.418 144.124C403.847 144.693 403.795 145.676 404.314 146.297C404.625 146.659 404.055 147.229 403.743 146.866C402.965 145.883 402.965 144.486 403.847 143.606C404.21 143.192 404.729 143.761 404.418 144.124Z" fill="black"/>
<path d="M401.876 144.176C400.994 144.797 401.046 146.142 401.824 146.763C402.187 147.074 401.668 147.643 401.253 147.332C400.06 146.349 400.216 144.383 401.461 143.503C401.876 143.244 402.239 143.917 401.876 144.176Z" fill="black"/>
<path d="M389.426 109.296C390.515 108.882 390.152 107.537 389.426 107.019C388.7 106.502 387.766 106.657 387.299 107.433C386.313 109.141 388.648 110.538 389.841 109.141C390.308 108.572 391.138 109.4 390.671 109.969C389.685 111.107 387.818 111.211 386.677 110.228C385.535 109.193 385.639 107.33 386.677 106.295C387.766 105.156 389.582 105.415 390.619 106.553C391.708 107.847 391.345 109.865 389.737 110.435C389.011 110.642 388.752 109.555 389.426 109.296Z" fill="black"/>
<path opacity="0.16" d="M387.351 102.879C386.988 109.296 386.313 116.231 385.12 123.683C384.342 128.651 383.408 133.412 382.371 137.81C383.512 138.535 384.705 139.259 385.95 139.984C392.071 143.451 397.985 145.676 403.328 147.125C400.579 147.229 397.155 147.074 393.213 146.349C388.492 145.469 384.653 143.969 381.852 142.623C386.002 147.177 391.501 152.456 398.556 157.475C408.671 164.72 418.424 168.912 425.79 171.448C420.136 173.414 414.481 175.381 408.879 177.347C408.464 185.006 408.049 192.665 407.634 200.376C404.781 199.652 401.928 198.927 399.023 198.151C399.438 193.338 399.801 188.37 400.008 183.195C400.112 180.297 400.216 177.451 400.268 174.605C395.34 173.259 391.293 171.965 388.233 170.93C376.924 167.101 368.883 163.22 366.653 162.133C362.918 160.322 359.909 158.666 357.834 157.475C357.263 153.905 356.745 150.179 356.382 146.194C355.5 136.982 355.448 128.547 355.915 120.992C358.353 117.99 361.517 114.626 365.46 111.211C369.662 107.588 373.76 104.897 377.235 102.879C380.659 102.879 384.031 102.879 387.351 102.879Z" fill="#666666"/>
<path opacity="0.6" d="M579.185 298.856C578.77 317.952 578.407 337.048 577.992 356.143C557.242 361.939 532.964 367.218 505.626 370.478C466.72 375.084 432.379 374.308 404.574 371.668C403.795 352.159 402.965 332.701 402.187 313.191C426.05 312.259 450.587 310.862 475.746 308.999C511.592 306.308 546.089 302.893 579.185 298.856Z" fill="#5222D0"/>
<g opacity="0.3">
<g opacity="0.3">
<path opacity="0.3" d="M572.7 307.964C543.599 314.278 513.978 317.9 484.202 318.78C483.216 318.832 483.216 317.279 484.202 317.227C513.822 316.348 543.339 312.777 572.285 306.463C573.271 306.256 573.686 307.757 572.7 307.964Z" fill="#FFD600"/>
</g>
</g>
<g opacity="0.3">
<g opacity="0.3">
<path opacity="0.3" d="M571.404 318.573C558.072 322.557 544.429 325.197 530.578 326.542C529.592 326.646 529.592 325.093 530.578 324.99C544.273 323.644 557.812 321.005 570.989 317.072C571.974 316.761 572.389 318.262 571.404 318.573Z" fill="#FFD600"/>
</g>
</g>
<g opacity="0.3">
<g opacity="0.3">
<path opacity="0.3" d="M531.2 359.611C494.784 365.148 457.797 370.633 420.914 366.442C419.929 366.338 419.929 364.786 420.914 364.889C457.694 369.081 494.473 363.647 530.785 358.11C531.771 357.955 532.186 359.455 531.2 359.611Z" fill="#FFD600"/>
</g>
</g>
<g opacity="0.3">
<g opacity="0.3">
<path opacity="0.3" d="M474.501 357.023C455.826 360.387 436.84 361.215 417.957 359.404C416.972 359.3 416.972 357.748 417.957 357.851C436.684 359.611 455.567 358.835 474.086 355.523C475.072 355.367 475.487 356.816 474.501 357.023Z" fill="#FFD600"/>
</g>
</g>
<g opacity="0.3">
<g opacity="0.3">
<path opacity="0.3" d="M437.099 320.229C436.217 327.267 436.684 334.305 438.448 341.188C438.604 341.705 438.189 342.119 437.722 342.171C433.261 342.533 428.851 342.895 424.39 343.258C422.471 343.413 418.165 344.758 416.972 342.637C416.349 341.55 416.505 339.687 416.401 338.497C416.297 336.634 416.246 334.771 416.142 332.908C415.934 328.664 415.571 324.472 414.222 320.384C414.067 319.918 414.482 319.349 414.949 319.401C421.692 319.918 428.384 319.608 435.024 318.469C435.647 318.366 436.062 318.832 435.958 319.401C435.854 320.022 435.854 320.022 435.491 320.539C434.921 321.367 433.572 320.591 434.142 319.763C434.246 319.504 434.35 319.246 434.454 318.987C434.765 319.297 435.076 319.608 435.387 319.918C428.592 321.109 421.796 321.419 414.897 320.902C415.156 320.591 415.416 320.229 415.623 319.918C417.698 326.077 417.491 332.494 417.906 338.859C417.957 339.428 417.906 341.136 418.165 341.498C418.736 342.274 420.032 341.964 420.759 341.912C422.626 341.757 424.494 341.602 426.413 341.446C430.148 341.136 433.935 340.825 437.67 340.515C437.411 340.825 437.151 341.188 436.944 341.498C435.128 334.512 434.609 327.319 435.543 320.125C435.647 319.246 437.203 319.246 437.099 320.229Z" fill="#FFD600"/>
</g>
</g>
<path opacity="0.38" d="M659.176 83.1622C658.709 108.83 658.242 134.55 657.776 160.218C622.086 164.72 586.447 169.171 550.757 173.673C549.824 142.778 548.89 111.935 547.904 81.0404C584.995 81.7649 622.086 82.4894 659.176 83.1622Z" fill="#161616"/>
<path d="M566.009 165.341C565.49 164.358 564.297 162.805 564.141 161.667C564.037 160.839 564.815 160.011 565.23 159.338C566.942 156.492 568.654 153.594 570.314 150.748C571.144 149.35 572.182 147.901 572.856 146.452C573.686 144.693 572.908 144.124 572.026 142.623C570.625 140.242 569.432 137.758 568.447 135.223C564.919 125.908 564.349 115.195 568.55 105.984C575.398 90.9247 591.946 87.5092 606.938 87.1987C622.449 86.8364 638.115 92.6324 647.349 105.57C658.035 120.526 651.654 141.484 637.181 151.42C622.085 161.822 600.972 161.356 585.202 152.921C584.32 152.455 585.099 151.11 585.98 151.576C598.742 158.407 613.63 159.493 627.273 154.681C641.383 149.713 652.225 135.792 651.187 120.422C649.994 103.138 632.979 92.0114 617.261 89.4239C612.489 88.6477 607.716 88.6477 602.892 88.9064C596.304 89.2687 589.664 90.2002 583.646 92.9947C575.139 96.9277 569.38 104.535 567.669 113.746C565.645 124.614 569.069 135.792 575.139 144.745C575.294 144.952 575.294 145.314 575.139 145.521C573.271 148.678 571.404 151.834 569.536 154.991C568.706 156.44 567.824 157.837 566.994 159.286C566.475 160.166 565.801 160.891 565.905 161.977C565.957 162.754 566.89 163.892 567.254 164.617C567.824 165.445 566.475 166.273 566.009 165.341Z" fill="#161616"/>
<path d="M585.721 153.646C580.015 158.355 573.738 162.081 566.839 164.824C565.905 165.186 565.49 163.685 566.424 163.323C573.012 160.684 579.133 157.061 584.632 152.559C585.41 151.886 586.499 152.973 585.721 153.646Z" fill="#161616"/>
<path d="M632.046 127.46C629.983 127.46 628.311 125.027 628.311 122.026C628.311 119.025 629.983 116.593 632.046 116.593C634.108 116.593 635.781 119.025 635.781 122.026C635.781 125.027 634.108 127.46 632.046 127.46Z" fill="#161616" stroke="#161616" stroke-miterlimit="10"/>
<path d="M610.673 126.787C608.61 126.787 606.938 124.355 606.938 121.354C606.938 118.353 608.61 115.92 610.673 115.92C612.736 115.92 614.408 118.353 614.408 121.354C614.408 124.355 612.736 126.787 610.673 126.787Z" fill="#161616" stroke="#161616" stroke-miterlimit="10"/>
<path d="M589.871 126.166C587.809 126.166 586.136 123.734 586.136 120.733C586.136 117.732 587.809 115.299 589.871 115.299C591.934 115.299 593.606 117.732 593.606 120.733C593.606 123.734 591.934 126.166 589.871 126.166Z" fill="#161616" stroke="#161616" stroke-miterlimit="10"/>
</svg>
