 <svg
        version="1.1"
        id="Layer_1"
        xmlns="http://www.w3.org/2000/svg"
        xmlns:xlink="http://www.w3.org/1999/xlink"
        x="0px"
        y="0px"
        viewBox="0 0 1440 235.9"
        style="enable-background: new 0 0 1440 235.9"
        xml:space="preserve"
      >
        <style type="text/css">
          .st0_robot {
            fill: #009051;
          }
          .st1_footer {
            fill: #ffffff;
          }
          .st2_robot {
            fill: #161616;
          }
          .st3_robot {
            opacity: 0.12;
            fill: #606060;
            enable-background: new;
          }
          .st4_robot {
            opacity: 0.14;
            fill: #606060;
            enable-background: new;
          }
          .st5_robot {
            opacity: 0.1;
            fill: #606060;
            enable-background: new;
          }
          .st6_robot {
            opacity: 0.13;
            fill: #606060;
            enable-background: new;
          }
          .st7_robot {
            opacity: 0.16;
            fill: #606060;
            enable-background: new;
          }
          .st8_robot {
            opacity: 0.15;
            fill: #606060;
            enable-background: new;
          }
        </style>
        <path
          class="st0_robot"
          d="M1525,190.4c0,0-304-149.4-780-21.4c-379,101.9-745,0-745,0v81h1525V190.4z"
        />
        <path
          class="st1_footer"
          d="M1135,52.4c0.2,0.5,0.5,1.3,0.4,2.3c-0.1,1.6-0.8,2.7-1.1,3.1c-2.5,1.2-4.7,1.7-6.3,2c-1.7,0.3-5,0.9-8.8,0
c-2.3-0.5-1.8-0.9-5.3-1.8c-3-0.8-4.4-0.8-5.6-2.2c-0.8-0.9-1.1-1.8-1.4-2.8c-0.3-1.1-0.8-2.5-0.2-4c0.1-0.3,0.7-1.8,1.9-2.2
c0.7-0.2,0.8,0.1,2.3,0.3c2.1,0.3,2.9-0.2,3.6,0.5c0.6,0.6,0.5,1.6,0.5,1.7c-0.1,1.1-1,1.2-1.4,2.3c-0.4,1-0.2,2.1,0.2,2.7
c0.6,1,2,1.3,5.4,1.5c5.3,0.3,7.9,0.4,10.4-0.4C1130.8,55,1132.8,54.1,1135,52.4z"
        />
        <path
          class="st2_robot"
          d="M1135.2,53c-6.5,4.3-14.8,5.8-21.7,1.7c-0.7-0.4-0.1-1.4,0.6-1c6.6,3.9,14.4,2.3,20.6-1.7
C1135.2,51.5,1135.8,52.5,1135.2,53z"
        />
        <path
          class="st2_robot"
          d="M1135,58.1c-7.4,3.5-16,3.4-23.2-0.4c-0.7-0.4-0.1-1.4,0.6-1c6.8,3.6,15,3.7,22,0.4
C1135.1,56.7,1135.7,57.7,1135,58.1z"
        />
        <path
          class="st2_robot"
          d="M1113.2,54.4c-0.4-1-0.4-1.8,0.1-2.8c0.3-0.6,0.7-1.1,1-1.7c0.1-0.3,0.5-1.3,0.2-1.6c-0.8-0.7-1.3,0.6-1.5,1
c-0.3,0.7-1.4,0.1-1-0.6c0.6-1.2,2.1-2.7,3.3-1.3c1.8,2.1-1.9,4.3-1,6.4C1114.5,54.5,1113.5,55.1,1113.2,54.4z"
        />
        <path
          class="st2_robot"
          d="M1110.2,52.8c0-0.4-0.1-0.9-0.4-1.2c-0.3-0.3-0.6-0.2-0.8,0.2c-0.3,0.7,0.5,1.4,1,1.8c0.6,0.5-0.3,1.4-0.8,0.8
c-1-1-2.1-2.5-0.8-3.8c0.5-0.5,1.3-0.6,1.9-0.2c0.8,0.4,1,1.3,1.1,2.1C1111.5,53.2,1110.3,53.5,1110.2,52.8z"
        />
        <path
          class="st2_robot"
          d="M1112.3,48.1c0.2-0.8-0.9-0.5-1.2-0.2c-0.4,0.4-0.7,1-0.9,1.5c-0.3,0.7-1.3,0.1-1-0.6c0.5-1.1,1.2-2.3,2.5-2.4
c1.1,0,2.1,0.9,1.8,2C1113.2,49.1,1112.1,48.8,1112.3,48.1z"
        />
        <path
          class="st2_robot"
          d="M1109.7,47.2c-0.4,0.3,0,0.1-0.1,0.1c0,0-0.1,0-0.1,0c-0.2,0.1-0.4,0.2-0.6,0.4c-0.3,0.4-0.4,0.9-0.3,1.4
c0.1,0.8-1.1,0.8-1.2,0c-0.1-1.2,0.6-2.8,1.9-3c1.2-0.2,2,1.3,1,2.1C1109.7,48.7,1109.1,47.7,1109.7,47.2z"
        />
        <path
          class="st2_robot"
          d="M1107.5,48.9c-0.4-0.2,0,2.1,0,2.4c0.1,0.6-0.1,1.2,0,1.8c0.2,2.2,3.5,3.1,5.3,3.9c0.7,0.4,0.1,1.4-0.6,1
c-2.2-1.1-6-2.1-5.8-5.1c0.1-1.3-0.6-3.3,0-4.5c0.3-0.6,0.9-0.9,1.6-0.7C1108.5,48,1108.2,49.2,1107.5,48.9z"
        />
        <path
          class="st2_robot"
          d="M1129.2,55c1,1.2,1.3,3.5,0.2,4.7c-0.5,0.6-1.4-0.3-0.8-0.8c0.6-0.7,0.3-2.4-0.2-3
C1127.9,55.3,1128.7,54.4,1129.2,55z"
        />
        <path
          class="st2_robot"
          d="M1123.9,56.4c0.9,1,1.1,2.5,0.4,3.7c-0.4,0.7-1.4,0.1-1-0.6c0.4-0.7,0.4-1.6-0.2-2.2
C1122.6,56.7,1123.4,55.8,1123.9,56.4z"
        />
        <path
          class="st2_robot"
          d="M1118.3,55.9c0.3,1.2,0.1,2.3-0.6,3.3c-0.5,0.6-1.5,0-1-0.6c0.6-0.7,0.7-1.5,0.5-2.4
C1117,55.5,1118.1,55.2,1118.3,55.9z"
        />
        <path
          class="st3_robot"
          d="M1135.3,54.7c-0.8-0.6-2.7,1.9-6,3c-4.3,1.4-8,0.6-9.7,0.2c-3-0.7-7.2-1.6-9.1-4.9c-1.4-2.6-0.8-5.4-1.8-5.6
c-0.8-0.2-1.7,1.1-2.1,2.1c-0.5,1.3-0.1,2.4,0.4,4.3c0.4,1.2,0.6,1.8,1.2,2.5c0.8,0.7,1.7,0.8,2.3,1c3,0.6,2.6,1.3,6.2,2.1
c2.2,0.6,3.9,0.7,6,0.8c3,0.2,5.1,0.3,7.8-0.4c2-0.5,3.6-1.4,4.5-1.9C1135.6,56.5,1135.9,55.1,1135.3,54.7z"
        />
        <path
          class="st1_footer"
          d="M1161.1,54.1c-0.3,3-0.6,6.1-0.8,9.3c-0.3,4.6-0.6,9.1-0.7,13.4c-2.1,0.4-4.3,0.8-6.4,1.2
c-6.7-1.5-13.3-3.1-20-4.6c0.8-7.7,1.5-15.3,2.2-23c2.1-0.5,4.3-1,6.4-1.4c3.2,0.2,7.2,0.9,11.5,2.2
C1156.3,52,1158.9,53.1,1161.1,54.1z"
        />
        <path
          d="M1139.5,48.9c4.1,0.2,9.2,0.8,14.9,2.7c2.4,0.8,4.6,1.7,6.5,2.7c-0.5,3.9-0.8,8.1-1,12.6c-0.1,3.3-0.2,6.4-0.1,9.4
c-2.1,0.4-4.3,0.8-6.5,1.2c0.6-7.7,1.3-15.3,1.9-23c-2.1-1-4.8-2.1-8-3c-4.1-1.1-7.7-1.5-10.5-1.6
C1137.6,49.6,1138.6,49.2,1139.5,48.9z"
        />
        <path
          class="st2_robot"
          d="M1156.5,54.5c-1.2,7.6-2,15.2-2.5,22.9c0,0.8-1.2,0.8-1.2,0c0.4-7.8,1.3-15.5,2.5-23.2
C1155.5,53.4,1156.6,53.7,1156.5,54.5z"
        />
        <path
          class="st2_robot"
          d="M1136.1,50.3c-1.1,7.5-1.9,15-2.3,22.6c0,0.8-1.2,0.8-1.2,0c0.4-7.7,1.2-15.3,2.3-22.9
C1135.1,49.2,1136.2,49.5,1136.1,50.3z"
        />
        <path
          class="st2_robot"
          d="M1152.8,78.6c-3.5-0.7-7.1-1.5-10.6-2.3c-1.7-0.4-3.4-0.9-5.1-1.3c-1.5-0.4-3.1-0.6-4.4-1.6
c-0.6-0.4,0-1.5,0.6-1c1.4,1,3.5,1.3,5.2,1.7c1.6,0.4,3.1,0.8,4.7,1.2c3.3,0.8,6.6,1.5,9.9,2.2C1153.9,77.6,1153.6,78.8,1152.8,78.6
z"
        />
        <path
          class="st2_robot"
          d="M1162,55c-1,1.5-0.8,3.5-1,5.2c-0.2,1.8-0.3,3.5-0.4,5.3c-0.2,3.5-0.3,7.1-0.3,10.7c0,0.8-1.2,0.8-1.2,0
c0-4.1,0.1-8.1,0.4-12.2c0.2-2,0.3-4.1,0.5-6.1c0.1-1.3,0.2-2.5,1-3.6C1161.3,53.7,1162.4,54.3,1162,55z"
        />
        <path
          class="st2_robot"
          d="M1159.8,77.2c-2.2,0.6-4.4,0.9-6.6,1.2c-0.8,0.1-0.8-1.1,0-1.2c2.1-0.2,4.2-0.6,6.3-1.1
C1160.2,75.9,1160.5,77,1159.8,77.2z"
        />
        <path
          class="st2_robot"
          d="M1161.5,54.9c-1.9,0-3.7,0-5.6,0c-0.8,0-0.8-1.2,0-1.2c1.9,0,3.7,0,5.6,0C1162.2,53.7,1162.2,54.9,1161.5,54.9z
"
        />
        <path
          class="st2_robot"
          d="M1155.5,54.7c-6.4-1.7-13.1-4.1-19.8-4.3c-0.8,0-0.8-1.2,0-1.2c6.8,0.1,13.6,2.6,20.1,4.3
C1156.6,53.8,1156.2,54.9,1155.5,54.7z"
        />
        <path
          class="st2_robot"
          d="M1161,54.5c-3.8-1.9-8.1-2.6-12.3-3.6c-4.2-1-8.4-2.1-12.6-0.7c-0.7,0.2-1-0.9-0.3-1.2
c4.1-1.4,8.4-0.4,12.5,0.5c4.5,1.1,9.2,1.8,13.3,3.9C1162.3,53.8,1161.7,54.9,1161,54.5z"
        />
        <path
          class="st2_robot"
          d="M1139.1,66.1c0.8-0.8,1.6-1.6,2.5-2.3c0.6-0.5-0.3-1.4-0.8-0.8c-0.8,0.8-1.6,1.6-2.5,2.3
C1137.8,65.8,1138.6,66.6,1139.1,66.1z"
        />
        <path
          class="st2_robot"
          d="M1140.8,63.8c0.6,0.9,1.1,1.7,1.6,2.6c0.4,0.6,1.4,0,1-0.6c-0.6-0.9-1.1-1.7-1.6-2.6
C1141.4,62.5,1140.4,63.1,1140.8,63.8z"
        />
        <path
          class="st2_robot"
          d="M1143.6,66.2c1.4-3.5,2.8-7.1,4.3-10.7c0.3-0.7-0.9-1-1.2-0.3c-1.4,3.5-2.8,7.1-4.3,10.7
C1142.2,66.6,1143.3,66.9,1143.6,66.2z"
        />
        <path
          class="st2_robot"
          d="M1146.7,55.9c0.4,2.3,0.8,4.5,1.1,6.8c0.1,0.8,1.3,0.4,1.2-0.3c-0.4-2.3-0.8-4.5-1.1-6.8
C1147.7,54.8,1146.6,55.1,1146.7,55.9z"
        />
        <path
          class="st2_robot"
          d="M1138.1,65.8c1.4,1.9,2.7,3.9,4.1,5.9c0.4,0.6,1.5,0,1-0.6c-1.4-1.9-2.7-3.9-4.1-5.9
C1138.7,64.6,1137.7,65.2,1138.1,65.8z"
        />
        <path
          class="st2_robot"
          d="M1143.2,71.8c1.8-2.9,3.6-5.8,5.4-8.7c0.4-0.6-0.6-1.3-1-0.6c-1.8,2.9-3.6,5.8-5.4,8.7
C1141.8,71.8,1142.8,72.4,1143.2,71.8z"
        />
        <path
          class="st4_robot"
          d="M1146.2,51.4c0.6,0.8,1.3,1.9,1.9,3.3c0,0,1.4,3,1.7,5.8c0.4,4-3.6,10-10.7,14.5c4.5,0.9,9.1,1.8,13.6,2.7
c2.3-0.3,4.7-0.6,7-0.9c0.4-7.6,0.8-15.2,1.3-22.7C1156.1,53.2,1151.2,52.3,1146.2,51.4z"
        />
        <path
          class="st1_footer"
          d="M1150.2,11.1c2.9,4.2,5.8,8.9,8.7,14.3c4.1,7.6,7,14.8,9.3,21.2c-1.7,0.4-3.4,0.8-5.1,1.2
c-3.7-0.4-7.3-0.7-11-1.1c-0.2,1.6-0.4,3.2-0.6,4.8c-0.7,0.1-1.6,0.2-2.6,0c-0.7-0.1-1.2-0.2-1.7-0.4c0.2-1.7,0.4-3.4,0.5-5.1
c-5.7-1.5-11.3-3-17-4.5c2.1-4.7,4.2-9.5,6.2-14.3c2.3-5.6,4.5-11.1,6.6-16.4C1145.7,10.9,1147.9,11,1150.2,11.1z"
        />
        <path
          class="st2_robot"
          d="M1152.2,46.7c-0.1,0.9-0.2,1.7-0.2,2.6c-0.1,0.6,0,1.5-0.2,2.1c-0.4,1-1.5,0.6-2.2,0.5c-0.9-0.1-2.3,0-2.5-1.1
c-0.1-0.7,0-1.6,0.1-2.3c0-0.8,0.1-1.7,0.1-2.5c0-0.8,1.2-0.8,1.2,0c0,1-0.1,1.9-0.1,2.9c0,0.4-0.2,1.1-0.1,1.4c0,0.2,0,0.2-0.1,0.2
c0.3,0,0.5,0.1,0.8,0.1c0.4,0,0.8,0.2,1.2,0.2c0.3,0.2,0.5,0.1,0.6-0.2c0-0.3,0-0.6,0.1-0.9c0.1-1,0.2-2,0.3-3
C1151.1,45.9,1152.3,45.9,1152.2,46.7z"
        />
        <path
          class="st2_robot"
          d="M1151.6,47.2c-1.2-0.4-2.5-0.6-3.8-0.7c-0.8,0-0.8-1.2,0-1.2c1.4,0.1,2.8,0.4,4.1,0.8
C1152.6,46.2,1152.3,47.4,1151.6,47.2z"
        />
        <path
          class="st2_robot"
          d="M1151.2,48.8c-1.1,0.2-2.1,0.1-3.1-0.4c-0.7-0.3-0.1-1.4,0.6-1c0.7,0.3,1.5,0.4,2.2,0.2
C1151.6,47.5,1151.9,48.6,1151.2,48.8z"
        />
        <path
          class="st2_robot"
          d="M1162.3,48.2c-10.7-1.2-21.3-3.2-31.7-6.1c-0.8-0.2-0.4-1.4,0.3-1.2c10.3,2.9,20.7,4.9,31.4,6.1
C1163.1,47.1,1163.1,48.3,1162.3,48.2z"
        />
        <path
          class="st2_robot"
          d="M1144.2,10.1c4.1,5.3,7,11.4,9.9,17.4c3.2,6.4,6.3,12.7,9.1,19.2c0.3,0.7-0.7,1.3-1,0.6
c-2.8-6.5-6-12.9-9.1-19.2c-3-6-5.8-12.1-9.9-17.4C1142.7,10.1,1143.7,9.5,1144.2,10.1z"
        />
        <path
          class="st2_robot"
          d="M1144,10.7c-4.3,10.2-8.5,20.4-12.7,30.5c-0.3,0.7-1.4,0.4-1.2-0.3c4.3-10.2,8.5-20.4,12.7-30.5
C1143.1,9.7,1144.3,10.1,1144,10.7z"
        />
        <path
          class="st2_robot"
          d="M1150.2,29.1c-0.1,0-0.1,0.1-0.1,0.1c0,0-0.2-0.2-0.2-0.2c0,0-0.1,0-0.2,0c0,0,0,0,0,0c0,0,0,0,0,0
c0.1,0-0.1-0.1-0.1-0.1c0,0,0.1,0,0.1,0c0,0,0,0.2,0,0.2c0-0.1-0.2,0,0,0c0.3-0.1,0,0,0-0.1c-0.3,0.2,0.3,0,0,0c0,0,0.1,0,0.1,0
c0-0.1,0.1-0.1,0-0.3c0,0-0.1-0.1-0.1-0.1c0,0,0.1-0.1,0.1,0l0,0.2c0,0.2,0,0.3,0.1,0.4c0.1,0.1,0.1-0.1,0,0.1
c0.1-0.2-0.4-0.8-0.4-0.4c0,0.3,0.2,0.4,0.5,0.3c0.3-0.2,0.1-0.5-0.1-0.6c-0.7-0.3-0.1-1.4,0.6-1c1.2,0.6,1.1,2.3-0.2,2.7
c-1.2,0.4-2.3-0.7-2-1.9c0.2-0.6,0.8-1,1.5-0.9c0.6,0.1,1.1,0.7,1.2,1.2c0.2,0.7-0.1,1.4-0.8,1.6c-0.6,0.2-1.2-0.1-1.5-0.6
c-0.3-0.5-0.3-1.2,0-1.7c0.3-0.7,1.1-0.8,1.7-0.4c0.5,0.4,0.8,1,0.6,1.6c-0.2,0.6-0.9,1-1.5,0.9c-1.3-0.3-1.2-2.3,0.2-2.3
c0.6,0,1.1,0.4,1.2,1s-0.3,1.1-0.8,1.2c-0.6,0.2-1.2-0.2-1.4-0.8c-0.2-0.8,0.4-1.4,1.1-1.5c0.7-0.1,1.5,0.5,1.6,1.2
c0.1,0.8-0.6,1.4-1.4,1.2C1149.2,30.1,1149.5,28.9,1150.2,29.1z"
        />
        <path
          class="st2_robot"
          d="M1141,27.3c-0.2,0-0.1,0.1-0.2,0.1c0,0-0.1,0-0.2,0l0,0c0,0,0,0.1,0,0.1c0,0,0,0,0,0l0,0c0,0.1,0,0.1,0,0.2
c0,0,0,0,0,0c-0.2,0,0.1,0-0.1,0c0,0,0,0,0,0l0-0.1c0.1-0.1-0.2,0,0,0c0,0,0,0,0,0c0,0-0.1,0-0.1,0l0,0c0,0,0,0,0,0c0-0.1,0,0,0-0.1
c0-0.1,0-0.1,0,0c0,0,0-0.1,0,0c0,0-0.1,0,0,0c0.1,0,0,0-0.1,0c0,0-0.1,0-0.1,0.2c0,0.1,0.1,0.1,0.2,0.1c0.1,0,0-0.2,0.1,0
c0-0.3,0.1-0.6,0.4-0.7c0.3-0.1,0.7,0.1,0.7,0.4c0.2,0.9-0.7,1.8-1.6,1.5c-0.8-0.2-1.2-1.3-0.7-2c0.4-0.6,1.4-0.8,2-0.2
s0.5,1.6-0.2,2c-0.8,0.4-1.7-0.1-1.8-1c0-0.8,0.7-1.3,1.5-1.1c0.9,0.2,1.1,1.3,0.4,1.9c-0.7,0.6-1.8,0.2-2-0.7
c-0.2-1.1,1.1-1.9,2-1.3c0.4,0.3,0.7,0.8,0.5,1.3c-0.2,0.6-0.7,0.8-1.3,0.7c-0.3,0-0.5-0.4-0.4-0.7
C1140.4,27.4,1140.7,27.3,1141,27.3z"
        />
        <path
          class="st2_robot"
          d="M1146.9,34.6c-1.4-0.3-2.7-0.5-4-0.6c-0.8,0-0.8-1.2,0-1.2c1.5,0.1,2.9,0.3,4.3,0.6
C1147.9,33.6,1147.6,34.7,1146.9,34.6z"
        />
        <path
          class="st2_robot"
          d="M1147.3,34.5c-0.8,1.2-1.7,2.2-2.7,3.2c-0.4,0.3-0.8,0.2-1-0.3c-0.4-1.3-0.8-2.5-1.2-3.8
c-0.2-0.8,1-1.1,1.2-0.3c0.3,1.3,0.7,2.6,1.2,3.8c-0.3-0.1-0.7-0.2-1-0.3c1-0.9,1.8-1.9,2.6-2.9
C1146.7,33.2,1147.7,33.8,1147.3,34.5z"
        />
        <path
          class="st2_robot"
          d="M1146.1,34.9c-0.4,0.2-0.7,0.5-0.7,0.9c-0.1,0.8-1.2,0.8-1.2,0c0-0.6-0.1-1.1-0.3-1.6c0.4,0,0.7-0.1,1.1-0.2
c-0.1,0.4-0.2,0.7-0.2,1c0,0.8-1.2,0.8-1.2,0c0-0.5,0.1-0.9,0.3-1.4c0.2-0.4,0.8-0.6,1.1-0.2c0.4,0.7,0.6,1.4,0.5,2.2
c-0.4,0-0.8,0-1.2,0c0.1-0.8,0.6-1.6,1.3-1.9c0.3-0.1,0.6-0.1,0.8,0.2C1146.5,34.4,1146.4,34.8,1146.1,34.9z"
        />
        <path
          class="st2_robot"
          d="M1151.4,11.3c4.7,6.9,8.7,14.2,12.2,21.9c1.6,3.5,3,7.1,4.3,10.8c0.3,0.9,1.3,2.4,0.4,3.3
c-0.3,0.3-0.9,0.3-1.3,0.4c-1.2,0.3-2.5,0.5-3.7,0.7c-0.8,0.1-1.1-1-0.3-1.2c1-0.2,2-0.3,2.9-0.5c0.5-0.1,1-0.2,1.5-0.3
c-0.1-0.5-0.2-0.9-0.4-1.4c-0.5-1.6-1.1-3.1-1.7-4.7c-1.3-3.4-2.8-6.7-4.3-10c-3.1-6.4-6.6-12.4-10.5-18.3
C1149.9,11.2,1151,10.6,1151.4,11.3z"
        />
        <path
          class="st2_robot"
          d="M1150.6,11.9c-2-0.5-4-0.8-6.1-0.8c-0.8,0-0.8-1.2,0-1.2c2.1,0,4.3,0.3,6.4,0.8
C1151.6,10.9,1151.3,12.1,1150.6,11.9z"
        />
        <path
          class="st2_robot"
          d="M1166.5,43.5c-1.5,0.3-3.1,0.6-4.6,0.8c-0.8,0.2-1.1-1-0.3-1.2c1.5-0.3,3.1-0.6,4.6-0.8
C1167,42.2,1167.3,43.4,1166.5,43.5z"
        />
        <path
          class="st2_robot"
          d="M1164.6,38.5c-1.7,0.1-3.3,0.5-4.9,1.1c-0.7,0.2-1-0.9-0.3-1.2c1.7-0.6,3.4-1,5.2-1.1
C1165.4,37.3,1165.4,38.4,1164.6,38.5z"
        />
        <path
          class="st2_robot"
          d="M1162.6,32.9c-1.7,0.3-3.3,0.6-5,1c-0.8,0.2-1.1-1-0.3-1.2c1.7-0.4,3.3-0.8,5-1
C1163.1,31.6,1163.4,32.8,1162.6,32.9z"
        />
        <path
          class="st2_robot"
          d="M1159.9,27.7c-1.6,0-3.3,0.2-4.8,0.6c-0.8,0.2-1.1-1-0.3-1.2c1.7-0.5,3.4-0.7,5.1-0.6
C1160.7,26.5,1160.7,27.7,1159.9,27.7z"
        />
        <path
          class="st2_robot"
          d="M1156.6,23.2c-1.5,0.1-3,0.4-4.5,0.9c-0.7,0.2-1-0.9-0.3-1.2c1.6-0.6,3.1-0.8,4.8-0.9
C1157.4,22,1157.4,23.1,1156.6,23.2z"
        />
        <path
          class="st2_robot"
          d="M1155.1,19.4c-1.7,0-3.4,0.2-5,0.7c-0.8,0.2-1-0.9-0.3-1.2c1.7-0.5,3.5-0.8,5.3-0.8
C1155.8,18.2,1155.8,19.4,1155.1,19.4z"
        />
        <path
          class="st2_robot"
          d="M1152.6,15.6c-1.6-0.1-3.2,0-4.7,0.3c-0.8,0.2-1.1-1-0.3-1.2c1.7-0.3,3.3-0.4,5-0.4
C1153.4,14.4,1153.4,15.6,1152.6,15.6z"
        />
        <path
          class="st5_robot"
          d="M1143.5,10.9c-0.4,0.9,0.8,2.3,1.9,3.7c0,0,1.7,2.2,5.4,11.5c1.2,2.9,3,9.1,1.5,20.1c3.5,0.6,6.9,1.1,10.3,1.6
c1.9-0.3,3.8-0.6,5.7-1c-1.8-5.2-4.1-11.1-7-17.2c-3.5-7.2-7.1-13.4-10.6-18.6C1147.7,10.3,1144.2,9.7,1143.5,10.9z"
        />
        <path
          class="st4_robot"
          d="M1150.2,11.6c-1.8-0.2-3.7-0.3-5.5-0.4c0.7,1,1.6,2.4,2.7,4.1c2.9,4.5,5.1,8.6,6,10.3
c3.7,7.4,4.3,17.1,4.5,21.7c3.3-0.2,6.7-0.3,10-0.4c-1.6-4.6-3.5-9.6-6-14.9C1158.2,23.9,1154.1,17.1,1150.2,11.6z"
        />
        <path
          class="st1_footer"
          d="M1143.6,76.6c0.8,2.5,1.6,5.1,2.4,7.8c2.9,10,4.8,19.6,6.2,28.6c0.6,1.3,1.2,2.6,1.8,4c0.2,0.5,0.4,1,0.6,1.4
c-1.5,0.2-2.7,0.2-3.6,0.2c-4.3,0-6.2-0.8-10.3-0.5c-0.9,0.1-1.6,0.2-2,0.2c0.8-0.7,1.7-1.5,2.8-2.2c2.5-1.6,4.8-2.4,6.6-2.8
c-0.5-2.5-1.3-6-2.3-10.2c-1.7-7.1-3.3-12.6-4.6-17.2c-0.8-2.7-1.8-6.3-3.1-10.6C1139.9,75.7,1141.7,76.1,1143.6,76.6z"
        />
        <path
          class="st2_robot"
          d="M1144.2,76.2c2.9,12.4,5.9,24.7,8.8,37c0.2,0.8-1,1.1-1.2,0.3c-2.9-12.4-5.9-24.7-8.8-37
C1142.9,75.7,1144,75.4,1144.2,76.2z"
        />
        <path
          class="st2_robot"
          d="M1138.6,75.2c3.7,12.2,7.1,24.5,10.3,36.9c0.2,0.8-1,1.1-1.2,0.3c-3.2-12.4-6.6-24.6-10.3-36.9
C1137.2,74.8,1138.3,74.5,1138.6,75.2z"
        />
        <path
          class="st2_robot"
          d="M1152.5,114.6c-1.9,0.4-3.9-0.4-4.7-2.1c-0.4-0.7,0.7-1.3,1-0.6c0.6,1.2,2,1.9,3.4,1.6
C1152.9,113.3,1153.2,114.5,1152.5,114.6z"
        />
        <path
          class="st2_robot"
          d="M1153.1,113.8c0.6,1,2.1,3.1,1.9,4.3c-0.2,1.2-1.7,0.9-2.5,0.9c-4.7,0-9.5-0.6-14.2,0c-0.6,0.1-0.7-0.7-0.4-1
c2.5-2.7,6.6-4,9.9-5.6c0.7-0.3,1.3,0.7,0.6,1c-3.1,1.5-7.3,2.7-9.7,5.4c-0.2-0.4-0.3-0.7-0.4-1c3.2-0.4,6.5-0.3,9.7-0.2
c1.5,0.1,3,0.1,4.5,0.2c0.4,0,0.9,0,1.3,0.1c-0.2-0.4-0.3-0.8-0.4-1.1c-0.4-0.8-0.8-1.6-1.3-2.4
C1151.8,113.7,1152.8,113.1,1153.1,113.8z"
        />
        <path
          class="st2_robot"
          d="M1151.4,109.9c-1.4,0.8-3,0.7-4.3-0.2c-0.6-0.4,0-1.5,0.6-1c1,0.6,2.1,0.7,3.1,0.2
C1151.5,108.5,1152.1,109.6,1151.4,109.9z"
        />
        <path
          class="st2_robot"
          d="M1150.5,105.7c-1.3,0.8-2.9,0.8-4.1-0.1c-0.6-0.4,0-1.5,0.6-1c0.9,0.7,2,0.7,2.9,0.1
C1150.5,104.2,1151.1,105.2,1150.5,105.7z"
        />
        <path
          class="st2_robot"
          d="M1149.2,99.4c-1,0.8-2.2,1-3.4,0.8c-0.8-0.1-0.4-1.3,0.3-1.2c0.9,0.1,1.7-0.2,2.5-0.7
C1149.2,97.9,1149.8,98.9,1149.2,99.4z"
        />
        <path
          class="st2_robot"
          d="M1145.2,83.6c-1.3,0.7-2.8,0.9-4.2,0.4c-0.7-0.2-0.4-1.4,0.3-1.2c1.1,0.4,2.2,0.3,3.3-0.3
C1145.2,82.2,1145.8,83.2,1145.2,83.6z"
        />
        <path
          class="st2_robot"
          d="M1147.8,91.9c-1.2,1.3-3.1,1.6-4.7,0.7c-0.7-0.4-0.1-1.4,0.6-1c1.1,0.6,2.4,0.4,3.3-0.5
C1147.5,90.5,1148.3,91.4,1147.8,91.9z"
        />
        <path
          class="st2_robot"
          d="M1143.9,78.8c-1.4,0.6-2.8,0.6-4.2,0.1c-0.7-0.3-0.4-1.4,0.3-1.2c1.2,0.4,2.4,0.4,3.6-0.1
C1144.3,77.4,1144.6,78.6,1143.9,78.8z"
        />
        <path
          class="st4_robot"
          d="M1141,76c0.4,1.7,0.8,3.5,1.2,5.2c2.7,11.2,5.6,22.2,8.7,32.8c-4,1.4-8,2.9-12.1,4.3c5.2,0.1,10.4,0.2,15.6,0.3
c-0.8-2.1-1.9-5.2-3.1-9.2c-1.7-5.8-2.4-10-2.9-12.7c-0.9-4.8-2.5-11.9-5.2-20.9C1142.5,75.9,1141.7,76,1141,76z"
        />
        <path
          class="st4_robot"
          d="M1143.7,78.6c0.3,1.3,0.6,2.5,0.9,3.8c2.5,10.3,4.8,20.5,7,30.7c-1.6-4.5-3.2-9.5-4.6-15
C1145.4,91,1144.3,84.4,1143.7,78.6z"
        />
        <path
          class="st1_footer"
          d="M1159.9,55.4c0.1,0.1,0.1,0.2,0.2,0.3c0.2,0.4,1.2,0.4,1.4,0.4c0.8,0,1.7,0.5,3.5,1.6c3.8,2.4,7,6.4,7,6.4
c2.3,2.9,3.7,4.6,4.2,7.2c0.7,3.4-0.4,6.4-1,7.8c0.3,0.7,0.6,1.7,0.9,2.9c0.5,2.1,0.3,2.6,0.1,2.8c-0.5,0.7-1.7,1-2.4,0.6
c-0.6-0.4-0.5-1.1-0.9-1.2c-0.6-0.2-1.2,1.2-1.8,1.1c-0.4,0-0.8-0.6-1-2.5c-0.5,0.8-1.5,0.9-2.1,0.4c-0.6-0.4-0.8-1.4-0.4-2
c-0.9,0.1-1.7-0.4-1.9-1.1c-0.2-0.9,0.4-1.9,1.6-2.1c-0.7-0.5-1-1.3-0.8-1.9c0.4-0.8,1.7-0.8,2.1-0.8c1.1,0,1.9,0.7,2.1,0.9
c0.7-1,0.9-1.9,0.9-2.3c0.1-1.1-0.3-1.9-1-3.6c-0.5-1.1-1-1.9-1-2c-1.1-1.9-2.6-4.3-5.3-6.7c-1.2-1-3.1-2.3-5.7-3.5
c-0.1-0.3-0.2-1.4,0.4-2.2C1159.1,55.7,1159.7,55.3,1159.9,55.4z"
        />
        <path
          class="st2_robot"
          d="M1160,54.9c5.5,1.4,9.9,5.1,13.3,9.6c3.3,4.3,5.8,10.2,2.5,15.2c-0.4,0.6-1.5,0-1-0.6c3.3-5,0.2-10.8-3.1-14.9
c-3.1-3.8-7-7-11.9-8.1C1158.9,55.9,1159.2,54.7,1160,54.9z"
        />
        <path
          class="st2_robot"
          d="M1159,57.5c4.1,2.2,7.6,5.2,10.2,9c1.8,2.5,5,7.6,1.5,9.9c-0.6,0.4-1.2-0.6-0.6-1c3.4-2.3-2.1-8.8-3.8-10.7
c-2.3-2.5-4.9-4.6-7.9-6.2C1157.7,58.2,1158.3,57.2,1159,57.5z"
        />
        <path
          class="st2_robot"
          d="M1175.5,79.7c0.8,1.6,2.1,4.7,0.2,6c-1.5,1-3.6-0.3-2.9-2.1c0.3-0.7,1.4-0.4,1.2,0.3c-0.3,0.9,0.7,1.4,1.3,0.7
c0.4-0.4,0.3-1.2,0.2-1.7c-0.2-0.9-0.5-1.7-0.9-2.5C1174.1,79.7,1175.2,79.1,1175.5,79.7z"
        />
        <path
          class="st2_robot"
          d="M1169.6,76.7c-0.6-0.5-1.4-1-2.2-0.7c-0.2,0.1-0.6,0.4-0.6,0.6c0,0.4,0.4,0.8,0.7,0.6c0.7-0.3,1.3,0.7,0.6,1
c-1.5,0.7-3.1-1-2.3-2.4c1-1.8,3.3-1.1,4.6,0C1171,76.4,1170.1,77.2,1169.6,76.7z"
        />
        <path
          class="st2_robot"
          d="M1173.5,83.4c-0.1,1.7-1.7,3.1-3.4,2.4c-1.5-0.6-1.7-2.8-0.2-3.6c0.7-0.4,1.3,0.7,0.6,1
c-0.7,0.4-0.5,1.3,0.2,1.5c0.9,0.2,1.5-0.6,1.6-1.4C1172.4,82.6,1173.6,82.6,1173.5,83.4z"
        />
        <path
          class="st2_robot"
          d="M1170.6,82.6c-0.4,0.6-0.9,1.2-1.6,1.4c-0.7,0.2-1.5,0-2-0.5c-0.4-0.5-0.6-1.2-0.4-1.8c0.1-0.3,0.3-0.6,0.5-0.8
c0.2-0.2,0.6-0.4,0.6-0.7c0.2-0.8,1.4-0.4,1.2,0.3c-0.1,0.4-0.3,0.6-0.6,0.9c-0.2,0.2-0.6,0.4-0.6,0.8c0,0.4,0.4,0.6,0.8,0.6
c0.5,0,0.8-0.4,1.1-0.8C1170,81.4,1171,82,1170.6,82.6z"
        />
        <path
          class="st2_robot"
          d="M1168.5,80.5c-0.4,1.6-2.7,1.6-3.3,0.2c-0.8-1.8,1.1-3.1,2.7-3.3c0.8,0,0.8,1.2,0,1.2c-0.8,0-1.7,0.4-1.7,1.4
c0,0.6,1,1,1.1,0.3C1167.5,79.5,1168.6,79.8,1168.5,80.5z"
        />
        <path
          class="st2_robot"
          d="M1174.4,80.2c-0.7-1.6-1.9-2.8-3.7-3.3c-0.8-0.2-0.4-1.4,0.3-1.2c2,0.6,3.5,1.9,4.4,3.9
C1175.7,80.3,1174.7,80.9,1174.4,80.2z"
        />
        <path
          class="st2_robot"
          d="M1176.1,74.1c-1-1-2.4-1.4-3.8-0.9c-0.7,0.3-1.3-0.7-0.6-1c1.8-0.8,3.9-0.4,5.2,1.1
C1177.5,73.8,1176.6,74.6,1176.1,74.1z"
        />
        <path
          class="st2_robot"
          d="M1173.3,66.6c-1-0.4-2.3,0.1-2.7,1.2c-0.2,0.7-1.4,0.4-1.2-0.3c0.6-1.7,2.5-2.6,4.2-2
C1174.4,65.8,1174.1,66.9,1173.3,66.6z"
        />
        <path
          class="st2_robot"
          d="M1169.6,61.9c-1,0.1-1.9,1-1.9,2c0,0.8-1.2,0.8-1.2,0c0-1.7,1.4-3.1,3.1-3.2
C1170.4,60.7,1170.4,61.9,1169.6,61.9z"
        />
        <path
          class="st2_robot"
          d="M1165.1,58.6c-0.9,0.2-1.5,1.1-1.2,2c0.2,0.7-0.9,1-1.2,0.3c-0.5-1.5,0.5-3.2,2-3.5
C1165.5,57.2,1165.9,58.4,1165.1,58.6z"
        />
        <path
          class="st2_robot"
          d="M1159.9,56.3c-0.6,0.2-1,0.9-0.7,1.4c0.3,0.7-0.7,1.3-1,0.6c-0.6-1.3,0.1-2.8,1.4-3.2
C1160.3,54.9,1160.6,56.1,1159.9,56.3z"
        />
        <path
          class="st4_robot"
          d="M1160.1,55.5c-0.1,0.2,3.4,1.5,7.2,5.1c0.9,0.9,3.5,3.5,5.3,7.8c1.3,3,1.2,4.7,1.1,5.6
c-0.2,1.5-0.7,2.6-1.1,3.3c0.4,1,0.6,1.8,0.7,2.4c0.3,1.5,0.6,2.4,0.4,3.7c-0.1,1.3-0.4,1.8-0.1,2.1c0.4,0.4,1.6,0,2.2-0.7
c0.7-0.9,0.4-2.1,0.2-3.1c-0.2-0.9-0.6-1.6-0.8-2c0.4-0.8,1-2.1,1.2-3.7c0.6-3.2-0.4-5.8-0.8-6.9c-0.8-2.2-2-3.7-3.5-5.4
c-2.1-2.5-4.1-4.1-4.7-4.5C1163.9,56.5,1160.2,55.3,1160.1,55.5z"
        />
        <path
          class="st6_robot"
          d="M1161.7,55.7c-0.2,0.3,1.7,1.8,4.9,5.9c2.5,3.2,4.3,5.5,5.7,8.8c2.1,4.9,1.9,9.1,2.8,9.1c0.6,0,1-1.8,1.1-2.5
c0.2-0.9,0.8-3.9-0.8-8c-0.2-0.6-1.4-3.5-4.6-7C1166.8,57.9,1162,55.3,1161.7,55.7z"
        />
        <path
          class="st1_footer"
          d="M1157,78c-0.7,0.9-1.9,2.4-3.4,4.3c-13.1,16.2-16.7,20.2-18.8,22.3c-1.7,1.7-4.3,4.5-7.8,7.7
c-1.8,1-3.7,2-5.4,3c-2-3.4-4.3-8.4-4.7-14.7c-0.1-1.4-0.1-2.7,0-3.9c1.4,1.2,3.2,3.1,4.8,5.8c1.4,2.3,2.1,4.4,2.5,6
c1.2-1.2,2.5-2.5,3.7-3.9c1.8-1.9,3.5-3.9,5.1-5.8c3.2-3.6,6.4-7.3,9.5-11.2c2.6-3.1,5.1-6.1,7.5-9.1c0.9-0.2,1.9-0.5,3.2-0.6
C1154.8,77.7,1156,77.8,1157,78z"
        />
        <path
          class="st2_robot"
          d="M1158,77.7c-9.5,12.2-19.7,23.8-30.5,34.9c-0.5,0.6-1.4-0.3-0.8-0.8c10.8-11.1,20.9-22.7,30.5-34.9
C1157.6,76.2,1158.4,77.1,1158,77.7z"
        />
        <path
          class="st2_robot"
          d="M1150.8,78.7c-8.2,10.4-16.9,20.6-26.2,29.9c-0.6,0.6-1.4-0.3-0.8-0.8c9.3-9.4,18-19.6,26.2-29.9
C1150.4,77.3,1151.3,78.1,1150.8,78.7z"
        />
        <path
          class="st2_robot"
          d="M1123.2,108c-1.3-4.4-3.6-8.3-6.8-11.5c0.3-0.2,0.7-0.4,1-0.6c1.3,6.2,2.7,12.3,4.3,18.5c0.2,0.8-1,1.1-1.2,0.3
c-1.6-6.1-3-12.3-4.3-18.5c-0.1-0.6,0.6-1,1-0.6c3.3,3.4,5.8,7.5,7.1,12C1124.6,108.4,1123.4,108.7,1123.2,108z"
        />
        <path
          class="st2_robot"
          d="M1127.5,112.7c-1.1,0.7-2.3,1.4-3.5,1.9c-1,0.5-1.8,0.9-2.9,0.8c-0.8-0.1-0.4-1.3,0.3-1.2
c1,0.2,2.3-0.8,3.1-1.2c0.8-0.4,1.6-0.9,2.3-1.4C1127.6,111.3,1128.2,112.3,1127.5,112.7z"
        />
        <path
          class="st2_robot"
          d="M1117.1,96.4c0.1,6.2,1.6,12.3,4.5,17.8c0.4,0.7-0.7,1.3-1,0.6c-2.9-5.8-4.5-12-4.6-18.4
C1115.9,95.6,1117.1,95.6,1117.1,96.4z"
        />
        <path
          class="st2_robot"
          d="M1124.8,107.8c1.5,0.9,2.5,2.3,2.6,4.1c0.1,0.8-1.1,0.8-1.2,0c-0.1-1.3-0.9-2.4-2-3.1
C1123.5,108.5,1124.1,107.5,1124.8,107.8z"
        />
        <path
          class="st2_robot"
          d="M1150,86c-0.8-1.2-2-1.9-3.4-1.9c-0.8,0-0.8-1.2,0-1.2c1.8,0,3.5,1,4.4,2.5C1151.5,86,1150.4,86.6,1150,86z"
        />
        <path
          class="st2_robot"
          d="M1145.7,90.6c-0.8-1-1.9-1.5-3.2-1.4c-0.8,0-0.8-1.2,0-1.2c1.7-0.1,3.3,0.7,4.3,2
C1147.1,90.6,1146.1,91.2,1145.7,90.6z"
        />
        <path
          class="st2_robot"
          d="M1141.3,96.5c-0.8-1.2-2-1.8-3.3-2c-0.8-0.1-0.4-1.3,0.3-1.2c1.7,0.2,3.1,1.2,4.1,2.6
C1142.8,96.5,1141.7,97.1,1141.3,96.5z"
        />
        <path
          class="st2_robot"
          d="M1135.7,102.8c-0.6-1.4-1.7-2.3-3.2-2.7c-0.8-0.2-0.4-1.3,0.3-1.2c1.7,0.4,3.2,1.6,3.9,3.2
C1137,102.8,1136,103.4,1135.7,102.8z"
        />
        <path
          class="st7_robot"
          d="M1154.6,77.5c-1.5,1.6-2.9,3.2-4.4,4.8c-8.2,9.1-16.3,18.2-24.5,27.3c-1.2-0.8-2.4-1.6-3.6-2.4
c-1.5-3.3-3-6.6-4.6-9.9c-0.3,0.3-0.7,0.7-0.9,1.3c-0.8,2,0.4,4.3,0.9,5.2c1.1,2.1,2.3,5.4,3.3,10.8c1.6-0.5,3.2-1,4.8-1.5
c1.9-1.8,3.9-3.7,5.8-5.6c10.1-9.9,18.5-20,25.7-29.9C1156.3,77.7,1155.5,77.6,1154.6,77.5z"
        />
        <path
          class="st8_robot"
          d="M1156.4,77.6c-0.2-0.2-4.1,4.2-7.2,7.6c-5.5,6-7.6,9-12.1,14c-2.4,2.7-6.1,6.7-11,11.2c0.3,0.6,0.6,1.1,0.9,1.7
c2.8-2.8,6.8-6.8,11.2-11.8C1148.3,89.2,1156.8,77.9,1156.4,77.6z"
        />
      </svg>