<?xml version="1.0" encoding="utf-8"?>
<!-- Generator: Adobe Illustrator 24.2.1, SVG Export Plug-In . SVG Version: 6.00 Build 0)  -->
<svg version="1.1" id="Layer_1" xmlns="http://www.w3.org/2000/svg" xmlns:xlink="http://www.w3.org/1999/xlink" x="0px" y="0px"
	 viewBox="0 0 1449 239" style="enable-background:new 0 0 1449 239;" xml:space="preserve">
<style type="text/css">
	.st0{display:none;}
	.st1{display:inline;fill:#57B68C;}
	.st2{display:inline;fill:#009051;}
	.st3{fill:#EC615B;}
	.st4{fill:#FFD600;stroke:#FFD600;}
	.st5{fill:#5222D0;}
</style>
<g class="st0">
	<path class="st1" d="M745.4-70.5C534.3,129.2-54-72.6-54-72.6l0,278.6h1690v-912.3c0,0-609.1-226-828,0
		C624.1-516.3,938.8-253.4,745.4-70.5z"/>
</g>
<g class="st0">
	<path class="st2" d="M778.8-39.6C570.2,160.1-30.7-47.2-30.7-47.2L-37.2,237H1639l-0.1-912.4c0,0-582.1-226.1-798.3,0
		C658.9-485.4,969.8-222.5,778.8-39.6z"/>
</g>
<g>
	<path class="st3" d="M-624.8,163.8c-101.6,65.8-199,69.7-405.3,80.2c0,0,102.8,16.7,168.8,16.5c56.2-0.2,88.3,4.9,144-12.8
		c49.5-15.7,74-63.6,124-65.5c52.1-1.9,77.5,48,129.1,61.3l2.2,0.6c59.3,15.3,95.2,24.6,154.7,1.3c67.7-26.5,92.6-134.7,161.4-142.9
		c70.9-8.5,100.6,105.3,171.4,110.7c39.2,3,60.9-17.2,100.2-22.3c59.7-7.7,93.4-1.6,153.1,1.8c105.1,6.1,163.6,59,268.5,37.6
		c72.4-14.7,109.4-77.8,182.1-81.1c74.1-3.3,111.9,77.1,185.9,67.4c40.2-5.3,61.1-34.8,101.3-40.4c53.4-7.5,82.6,24.3,136,27
		c109.3,5.4,278.2-70.9,278.2-70.9S1203.3-42.4,1060.3,41C917.4,124.4,922,204.1,871.7,199.8c-50.4-4.2-114.4-119-161.1-114.2
		c-46.7,4.9-79.7,64.6-133.5,72.6c-63.3,9.5-96.6-51.3-160-49c-54.4,2-83.5,37.2-137.8,45.4c-49.9,7.5-78-7.1-127.9-1.5
		C95.1,159.5,63.8,202.5,8,189.5C-63.7,172.7-97.4,28.9-158.2,35.4C-219,41.9-260.1,203.6-383.6,221S-523.1,98-624.8,163.8z"/>
	<path class="st4" d="M95.8,206l-93.3-7.6v38.1l107,1l63.7-1l69,1l50-1h35l45,1l46-1l57,1l59-1l65,1l96-1l103.5,1l95-2l73.5,1l44-1
		l48.2,1l75.3-1l97,1l93-1l58.5,1h66.2v-96.4c0,0-13.6-43.2-70.4-31c-56.8,12.3-82.3,26.6-82.3,26.6l-105.4,12.3l-86.8-13.5
		l-45.2,29.9h-39.1L943.5,124l-104.9,49.5l-91.8-18.1l-116.5,0.1L558,170.1l-57.2-57.6l-33.1,0L411,170.2l-74.8,24.1l-80.8-38.3
		l-29.6,7.7L95.8,206z"/>
	<path class="st5" d="M219.4,153.8c-54.2,36-106.4,38.7-217.2,45.7c0,0,55.3,8.3,90.8,7.8c30.2-0.5,47.5,2.1,77.2-7.8
		c26.5-8.8,39.4-34.7,66.2-36c28-1.4,42,25.3,69.7,32.1l1.2,0.3c31.9,7.8,51.3,12.6,83.1-0.3c36.2-14.7,48.9-72.9,85.8-77.8
		c38-5,54.7,55.9,92.8,58.3c21.1,1.4,32.6-9.7,53.7-12.6c32-4.5,50.1-1.5,82.2,0c56.5,2.6,88.3,30.6,144.4,18.5
		c38.8-8.4,58.3-42.5,97.3-44.7c39.8-2.3,60.6,40.7,100.3,35c21.6-3.1,32.6-19.1,54.2-22.4c28.6-4.4,44.5,12.5,73.2,13.6
		c58.7,2.2,149-39.9,149-39.9S1199.8,31.3,1123.6,77c-76.2,45.7-73.2,88.5-100.3,86.5c-27.1-1.9-62.2-63.2-87.3-60.3
		c-25.1,2.9-42.4,35.2-71.2,39.9c-34,5.5-52.2-26.9-86.3-25.3c-29.2,1.4-44.6,20.5-73.7,25.3c-26.7,4.4-41.9-3.3-68.7,0
		c-30.2,3.8-46.7,27-76.7,20.4c-38.7-8.5-57.7-85.6-90.3-81.7c-32.6,3.9-53.7,91-119.9,101.1C283,193.1,273.5,117.9,219.4,153.8z"/>
</g>
</svg>
