<?xml version="1.0" encoding="utf-8"?>
<!-- Generator: Adobe Illustrator 24.2.1, SVG Export Plug-In . SVG Version: 6.00 Build 0)  -->
<svg version="1.1" id="Layer_1" xmlns="http://www.w3.org/2000/svg" xmlns:xlink="http://www.w3.org/1999/xlink" x="0px" y="0px"
	 viewBox="0 0 1811 2037.3" style="enable-background:new 0 0 1811 2037.3;" xml:space="preserve">
<style type="text/css">
	.st0{fill:#57B68C;}
	.st1{fill:#009051;}
</style>
<g>
	<path class="st0" d="M1786.7,1224.6C2365.3,1012.6,1894.1-68,1894.1-68s-533.3-193.7-763.1-32.9c-183,233.6,160.7,638.1-253.9,666
		C462.5,592.9,161.4,842.2,5.5,1106.9s29.4,538.9,29.4,538.9S270.7,1964,934.7,1964C1615.8,1964,1362.3,1380.2,1786.7,1224.6z"/>
</g>
<g>
	<path class="st1" d="M1705.7,1095.2C2284.3,883.2,1813-197.4,1813-197.4s-533.3-193.7-763.1-32.9C867,3.3,1210.7,407.8,796.1,435.6
		S80.3,712.8-75.6,977.5s29.4,538.9,29.4,538.9s235.8,318.2,899.9,318.2C1534.8,1834.6,1281.3,1250.8,1705.7,1095.2z"/>
</g>
</svg>
