<svg width="24" height="24" viewBox="0 0 24 24" fill="none" xmlns="http://www.w3.org/2000/svg">
<path d="M23.3662 3.23185L20.7638 0.638516C19.8741 -0.241484 18.4291 -0.241484 17.546 0.638516L2.7211 15.4052C2.69434 15.4318 2.67427 15.4518 2.6542 15.4785C2.64751 15.4852 2.64751 15.4918 2.64082 15.4985C2.62744 15.5185 2.60737 15.5385 2.59399 15.5652C2.5873 15.5718 2.5873 15.5785 2.58061 15.5852C2.56723 15.6052 2.55385 15.6252 2.54716 15.6518C2.54047 15.6585 2.54047 15.6718 2.53378 15.6785C2.52709 15.6985 2.51371 15.7185 2.50702 15.7452C2.50702 15.7518 2.50033 15.7518 2.50033 15.7585L0.0183714 22.7052C-0.102047 23.0452 -0.0150786 23.4252 0.239139 23.6785C0.419767 23.8585 0.660604 23.9518 0.901442 23.9518C1.00848 23.9518 1.11552 23.9318 1.21587 23.8985L8.19346 21.4318C8.20015 21.4318 8.20015 21.4252 8.20684 21.4252C8.22691 21.4185 8.24698 21.4052 8.27374 21.3985C8.28043 21.3918 8.29381 21.3918 8.3005 21.3852C8.32057 21.3718 8.34064 21.3652 8.3674 21.3518C8.37409 21.3452 8.38078 21.3452 8.38747 21.3385C8.40754 21.3252 8.42761 21.3118 8.44768 21.2918C8.45437 21.2852 8.46106 21.2852 8.46775 21.2785C8.49451 21.2585 8.52127 21.2385 8.54134 21.2118L20.8909 8.90518L23.3662 6.43852C24.256 5.55185 24.256 4.11852 23.3662 3.23185ZM2.44682 21.4852L3.77142 17.7785L6.16642 20.1652L2.44682 21.4852ZM7.87904 19.2252L4.70801 16.0718L15.733 5.09852L18.904 8.25852L7.87904 19.2252ZM22.0416 5.10518L20.2286 6.91852L17.0576 3.75852L18.8706 1.95852C19.0245 1.80518 19.2787 1.80518 19.4392 1.95852L22.0416 4.55185C22.142 4.65185 22.162 4.77185 22.162 4.83185C22.162 4.89185 22.1487 5.00518 22.0416 5.10518Z" fill="#009051"/>
</svg>
