<?xml version="1.0" encoding="utf-8"?>
<!-- Generator: Adobe Illustrator 24.2.1, SVG Export Plug-In . SVG Version: 6.00 Build 0)  -->
<svg version="1.1" id="Layer_1" xmlns="http://www.w3.org/2000/svg" xmlns:xlink="http://www.w3.org/1999/xlink" x="0px" y="0px"
	 viewBox="0 0 119 122" style="enable-background:new 0 0 119 122;" xml:space="preserve">
<style type="text/css">
	.st0{fill:#FF8A00;}
	.st1{display:none;}
	.st2{display:inline;fill:#57B68C;}
	.st3{display:inline;fill:#009051;}
	.st4{fill:#FFFFFF;}
</style>
<g>
	<path class="st0" d="M9.5,5h100c3.3,0,6,2.7,6,6v101c0,3.3-2.7,6-6,6H9.5c-3.3,0-6-2.7-6-6V11C3.5,7.7,6.2,5,9.5,5z"/>
</g>
<g class="st1">
	<path class="st2" d="M81.4-127.5C-129.7,72.2-718-129.6-718-129.6l0,278.6H972v-912.3c0,0-609.1-226-828,0
		C-39.9-573.3,274.8-310.4,81.4-127.5z"/>
</g>
<g class="st1">
	<path class="st3" d="M114.8-96.6c-208.6,199.7-809.5-7.5-809.5-7.5l-6.5,284.2H975l-0.1-912.4c0,0-582.1-226.1-798.3,0
		C-5.1-542.4,305.8-279.5,114.8-96.6z"/>
</g>
<g>
	<path class="st4" d="M34.9,69.9C34.9,69.9,34.9,70,34.9,69.9c1.6,1.9,3.4,3.6,5.4,5l-2.6,4.7c-0.9-0.6-1.8-1.3-2.6-2
		c-0.2-0.1-0.4-0.3-0.6-0.3c-0.2-0.1-0.5-0.1-0.7-0.1s-0.5,0.1-0.7,0.2c-0.2,0.1-0.4,0.3-0.5,0.4c-0.1,0.2-0.3,0.4-0.3,0.6
		c-0.1,0.2-0.1,0.5-0.1,0.7c0,0.2,0.1,0.5,0.2,0.7c0.1,0.2,0.3,0.4,0.4,0.5c1,0.8,2,1.6,3.1,2.3l-1.7,3.1c-0.1,0.2-0.2,0.4-0.2,0.7
		c0,0.2,0,0.5,0,0.7c0.1,0.2,0.2,0.4,0.3,0.6c0.1,0.2,0.3,0.3,0.5,0.5c0.3,0.2,0.6,0.2,0.9,0.2c0.3,0,0.6-0.1,0.9-0.2
		c0.3-0.2,0.5-0.4,0.6-0.7l1.8-3.1c4.4,2.3,9.3,3.7,14.2,3.9v4.1l-10,2.6C42,95.4,41,96,40.2,97c-0.7,0.9-1.1,2.1-1.1,3.3v0.9
		c0,0.4,0,0.7,0.1,1.1c0.6,2.6,2.8,4.3,5.2,4.3h21.5c2.4,0,4.5-1.6,5.2-4.3c0.1-0.3,0.1-0.7,0.1-1.1v-0.9c0-1.2-0.4-2.4-1.1-3.3
		c-0.7-0.9-1.7-1.6-2.9-1.9l-10-2.6v-4.1c7.4-0.4,14.5-3.1,20.2-7.9c5.8-4.8,9.9-11.3,11.8-18.7c1.9-7.3,1.5-15.1-1.1-22.2
		c-2.7-7.1-7.4-13.2-13.6-17.3l1.7-3.1c0.1-0.2,0.2-0.4,0.2-0.7c0-0.2,0-0.5,0-0.7c-0.1-0.2-0.2-0.4-0.3-0.6
		c-0.1-0.2-0.3-0.3-0.5-0.5c-0.2-0.1-0.4-0.2-0.6-0.2c-0.2,0-0.5,0-0.7,0c-0.2,0.1-0.4,0.2-0.6,0.3c-0.2,0.1-0.3,0.3-0.5,0.5
		l-1.7,3.1c-1-0.5-2-1-3.1-1.5c-0.2-0.1-0.4-0.1-0.7-0.1c-0.2,0-0.5,0.1-0.7,0.1c-0.2,0.1-0.4,0.2-0.6,0.4c-0.2,0.2-0.3,0.4-0.4,0.6
		c-0.1,0.2-0.1,0.5-0.1,0.7c0,0.2,0.1,0.5,0.1,0.7c0.1,0.2,0.2,0.4,0.4,0.6c0.2,0.2,0.4,0.3,0.6,0.4c0.9,0.4,1.8,0.8,2.6,1.2
		L67,28.3c-3.6-1.8-7.6-2.8-11.6-2.8h-0.5l0,0c-6.6,0-13,2.6-17.9,7.3c-4.9,4.7-7.8,11-8.3,17.9l0,0l0,0c0,0.6-0.1,1.2-0.1,1.9
		C28.6,58.9,30.8,65.1,34.9,69.9z M73.4,38.2c-0.4,0.9-1.1,1.7-1.8,2.3c-2,0-2.9,1.7-3.4,2.8c-0.1,0.3-0.3,0.5-0.4,0.8
		c-1.4,0-2.3-0.1-3.5-2.6c-0.7-1.6-1.9-2.8-3.5-3.5c-0.4-0.2-0.8-0.4-1.1-0.7c-0.3-0.3-0.6-0.7-0.8-1.1c-0.9-2-1.4-4.1-1.5-6.3
		c3.1,0.3,6.1,1.1,8.9,2.6C69,33.8,71.4,35.8,73.4,38.2z M53.7,29.8c0.2,2.7,0.8,5.4,1.9,7.9c0.7,1.6,1.9,2.8,3.5,3.5
		c0.4,0.2,0.8,0.4,1.1,0.7c0.3,0.3,0.6,0.7,0.7,1.1c2.1,4.2,4.5,4.6,7,4.6c2,0,2.9-1.7,3.4-2.8c0.1-0.3,0.3-0.5,0.4-0.8
		c0.8-0.2,1.5-0.5,2.2-0.9c0.7-0.5,1.2-1,1.6-1.7c2.8,4.9,3.8,10.6,2.7,16.1c-1.1,5.5-4.1,10.5-8.6,13.9c-4.4,3.5-10,5.2-15.6,4.9
		c-5.6-0.3-11-2.6-15-6.5c0.5-0.3,0.9-0.7,1.3-1.1c0.9-0.9,1.3-1.3,2.4-1.3c1.5,0,3.1-0.3,4.4-1.1c0.8-0.5,1.8-0.7,2.8-0.7
		c4.7,0,7.2-2.7,7.2-5.4c0-2.7-2.5-5.4-7.2-5.4c-1,0-2,0.1-3,0.2c-3,0.3-6.2,0.6-8.3-1.5c-1.8-1.8-4-3.1-6.4-3.8
		c0.8-5.3,3.3-10.1,7.2-13.7C43.4,32.4,48.4,30.2,53.7,29.8z M53.6,60.2c0,0.9-1.3,1.8-3.6,1.8c-1.5,0-3.1,0.3-4.4,1.1
		c-0.8,0.5-1.8,0.7-2.8,0.7c-0.9,0-1.8,0.2-2.7,0.6c-0.8,0.4-1.6,1-2.2,1.7c-0.3,0.4-0.7,0.7-1.2,1c-3-3.9-4.6-8.7-4.7-13.6
		c1.6,0.6,3,1.5,4.1,2.7c3.4,3.3,7.9,2.9,11.2,2.5c1-0.1,1.9-0.2,2.6-0.2C52.4,58.4,53.6,59.3,53.6,60.2z M68.1,100.9v0.8
		c0,0.5-0.2,0.9-0.5,1.3c-0.3,0.3-0.8,0.5-1.3,0.5H44.9c-0.5,0-0.9-0.2-1.3-0.5s-0.5-0.8-0.5-1.3v-0.8c0-0.4,0.1-0.8,0.4-1.1
		c0.2-0.3,0.6-0.5,1-0.6l11.1-2.8l11.1,2.8c0.4,0.1,0.7,0.3,1,0.6C68,100.1,68.1,100.5,68.1,100.9L68.1,100.9z M73.2,26.1
		c6.9,4.5,11.9,11.5,13.8,19.5c1.9,8,0.7,16.5-3.5,23.6c-4.1,7.1-10.9,12.4-18.8,14.8c-7.9,2.3-16.5,1.6-23.8-2.2l2.7-4.7
		c5.4,2.7,11.6,3.5,17.5,2.2c5.9-1.3,11.3-4.5,15.1-9.1c3.9-4.6,6-10.5,6.2-16.5S80.6,41.7,77,36.9c0,0,0,0,0-0.1
		c-1.8-2.4-4-4.5-6.5-6.1L73.2,26.1z"/>
	<path class="st4" d="M48.2,47.6C49.6,47.6,51,47,52,46c1-1,1.6-2.3,1.7-3.7c0-6.6-1.4-9-5.4-9c-5.4,0-5.4,3.8-5.4,7.2
		C42.9,46.4,45.8,47.6,48.2,47.6z M50,42.3c-0.1,0.5-0.3,0.9-0.6,1.2c-0.3,0.3-0.7,0.5-1.2,0.6c-0.8,0-1.8,0-1.8-3.6
		c0-3.6,0-3.6,1.8-3.6C49.2,36.9,50,36.9,50,42.3z"/>
	<path class="st4" d="M59.8,64.3c-0.9,1.6-2.3,4.1-0.3,6.1c0.4,0.4,0.8,0.7,1.3,0.9c0.5,0.2,1.1,0.3,1.6,0.3
		c2.4-0.3,4.6-1.3,6.5-2.8l-1-1.5l-1-1.5c-1,0.7-4.2,2.8-4.9,2.1c0.2-0.7,0.5-1.3,0.9-1.9c0.8-1.2,1.3-2.6,1.4-4.1
		c0-0.5,0.1-1,0.3-1.4c0.2-0.4,0.6-0.8,1.1-1c0.2-0.1,0.3-0.1,0.5-0.1c0.1,0,0.2,0,0.2,0c0.1,0,0.2,0.1,0.2,0.1
		c0.6,0.6,2.3,2.3,2.2,3.8c-0.1,0.5-0.4,1-0.7,1.4c-0.3,0.4-0.7,0.7-1.2,1l1,1.5l1,1.5c0.9-0.5,1.7-1.2,2.3-2.1
		c0.6-0.9,1-1.9,1.2-2.9c0.3-3.2-2.2-5.7-3.2-6.7c-0.6-0.6-1.4-1-2.3-1.2c-0.9-0.2-1.8,0-2.6,0.3c-1.1,0.5-2,1.3-2.7,2.3
		c-0.6,1-1,2.2-0.9,3.4C60.6,62.8,60.3,63.6,59.8,64.3z"/>
</g>
</svg>
