<svg width="52" height="47" viewBox="0 0 52 47" fill="none" xmlns="http://www.w3.org/2000/svg">
<path fill-rule="evenodd" clip-rule="evenodd" d="M26.8995 7.90413C26.3924 7.45476 25.5704 7.45615 25.0669 7.90413L16.9629 15.1155C15.9841 15.9762 17.4518 17.2668 18.4305 16.4061L24.5923 10.9882C24.7966 10.8086 24.9622 10.8653 24.9622 11.1167V27.6259C24.9622 28.1301 25.4266 28.5386 26.0001 28.5386C26.573 28.5386 27.038 28.1301 27.038 27.6259V11.1167C27.038 10.8661 27.1995 10.8049 27.4079 10.9882L33.5696 16.4061C34.5479 17.2668 36.016 15.9762 35.0373 15.1155L26.8995 7.90413ZM20.8 19.1651H17.1602C15.7232 19.1651 14.56 20.187 14.56 21.4496V36.9582C14.56 38.2203 15.7241 39.2427 17.1634 39.2427H34.8366C36.2749 39.2427 37.44 38.2212 37.44 36.9582V21.4496C37.44 20.1889 36.2742 19.1651 34.8398 19.1651H31.2C30.6256 19.1651 30.16 19.5737 30.16 20.0777C30.16 20.5817 30.6256 20.9903 31.2 20.9903H34.8398C35.1251 20.9903 35.36 21.1966 35.36 21.4496V36.9582C35.36 37.2128 35.1265 37.4175 34.8366 37.4175H17.1634C16.8732 37.4175 16.64 37.2126 16.64 36.9582V21.4496C16.64 21.1946 16.8725 20.9903 17.1602 20.9903H20.8C21.3744 20.9903 21.84 20.5817 21.84 20.0777C21.84 19.5737 21.3744 19.1651 20.8 19.1651Z" fill="#009051"/>
</svg>
